<svg width="380" height="289" viewBox="0 0 380 289" fill="none" xmlns="http://www.w3.org/2000/svg">
<path d="M181.679 248.488C167.024 248.489 152.573 245.533 139.486 239.859C126.399 234.184 115.041 225.949 106.322 215.813C97.604 205.677 91.769 193.924 89.2856 181.497C86.8022 169.069 87.7396 156.314 92.0226 144.255C96.3056 132.196 103.815 121.168 113.947 112.058C124.08 102.948 136.554 96.0095 150.367 91.7987C164.181 87.588 178.95 86.2226 193.487 87.8122C208.025 89.4018 221.928 93.9022 234.078 100.952C234.128 100.971 234.173 101 234.209 101.036C234.245 101.072 234.272 101.114 234.287 101.16C234.302 101.206 234.305 101.254 234.296 101.301C234.287 101.348 234.267 101.392 234.236 101.432C234.205 101.471 234.164 101.504 234.117 101.528C234.07 101.553 234.017 101.568 233.962 101.573C233.907 101.578 233.851 101.572 233.799 101.557C233.747 101.541 233.699 101.516 233.66 101.483C221.605 94.4872 207.811 90.0206 193.387 88.4423C178.962 86.864 164.308 88.2179 150.602 92.3953C136.896 96.5727 124.519 103.457 114.465 112.496C104.411 121.535 96.9604 132.477 92.7111 144.442C88.4618 156.407 87.5323 169.063 89.9973 181.394C92.4622 193.725 98.2529 205.386 106.904 215.442C115.556 225.498 126.827 233.668 139.813 239.297C152.799 244.926 167.138 247.857 181.679 247.853C202.774 247.752 223.211 241.524 239.679 230.179C256.147 218.835 267.681 203.038 272.411 185.349C272.511 184.92 273.248 185.091 273.148 185.503C268.466 203.372 256.861 219.34 240.239 230.786C223.618 242.231 202.968 248.473 181.679 248.488Z" fill="#6CC9B3"/>
<path d="M294.227 11.8409C290.828 10.9834 287.253 10.7738 283.75 11.2268C280.247 11.6797 276.901 12.7844 273.945 14.4639L273.547 13.7438C273.08 12.8904 272.239 12.2309 271.209 11.9096C270.178 11.5883 269.042 11.6314 268.048 12.0295L265.099 13.2295L261.712 7.12651C260.925 5.70151 259.818 4.42412 258.456 3.36745C257.095 2.31079 255.504 1.49559 253.775 0.968525C252.047 0.441459 250.215 0.212868 248.384 0.295839C246.552 0.37881 244.758 0.771713 243.103 1.45206C184.229 25.607 236.031 4.34929 177.356 28.4186C175.702 29.0962 174.22 30.0474 172.993 31.2179C171.767 32.3885 170.821 33.7554 170.208 35.2407C169.596 36.7259 169.33 38.3004 169.424 39.8743C169.519 41.4481 169.973 42.9905 170.761 44.4133L181.46 63.7339C182.247 65.1567 183.353 66.4322 184.713 67.4874C186.074 68.5426 187.662 69.3569 189.388 69.8838C191.115 70.4108 192.944 70.64 194.773 70.5584C196.603 70.4768 198.395 70.086 200.049 69.4083L265.796 42.459C267.453 41.7814 268.937 40.8295 270.165 39.6576C271.393 38.4858 272.341 37.1171 272.953 35.6299C273.566 34.1426 273.831 32.566 273.735 30.9903C273.638 29.4146 273.182 27.8707 272.391 26.4471L270.02 22.1784L272.989 20.9612C273.981 20.5596 274.747 19.8362 275.121 18.9494C275.494 18.0627 275.444 17.0847 274.981 16.2296L274.284 14.9953C277.15 13.3525 280.399 12.2694 283.803 11.8222C287.207 11.375 290.683 11.5745 293.988 12.4067C305.126 15.8353 309.927 27.3385 307.457 35.9616C304.986 44.5847 296.957 52.1792 291.518 59.6537C282.233 72.357 278.328 82.0944 284.305 97.112C284.319 97.1546 284.343 97.1944 284.375 97.2289C284.407 97.2634 284.447 97.292 284.492 97.3128C284.538 97.3336 284.587 97.3462 284.639 97.3499C284.69 97.3537 284.741 97.3484 284.79 97.3344C284.839 97.3204 284.884 97.298 284.922 97.2686C284.961 97.2392 284.992 97.2034 285.013 97.1633C285.035 97.1233 285.047 97.0798 285.049 97.0356C285.05 96.9914 285.041 96.9474 285.023 96.9062C279.046 82.043 282.791 72.8027 292.155 59.9966C297.654 52.4707 305.683 44.9105 308.234 36.1159C310.784 27.3214 305.743 15.3896 294.227 11.8409ZM199.61 68.8769C196.45 70.1701 192.822 70.3313 189.524 69.3253C186.226 68.3193 183.526 66.2281 182.018 63.511L171.398 44.1904C170.654 42.8412 170.226 41.3788 170.139 39.887C170.052 38.3951 170.309 36.9033 170.894 35.4969C171.479 34.0906 172.381 32.7974 173.548 31.6916C174.715 30.5858 176.124 29.6891 177.694 29.0529L187.656 24.9213L209.692 64.7625L199.61 68.8769ZM210.329 64.4882L188.373 24.647L209.871 15.8353L231.926 55.6765L210.329 64.4882ZM232.524 55.4022L210.548 15.6296L232.046 6.81793L254.101 46.6591L232.524 55.4022ZM272.59 20.4297L269.642 21.6469L265.358 13.9153L268.307 12.7152C268.707 12.5497 269.141 12.4538 269.584 12.4332C270.028 12.4126 270.471 12.4676 270.89 12.595C271.308 12.7225 271.693 12.9199 272.023 13.1759C272.352 13.4319 272.62 13.7415 272.81 14.0867L274.224 16.6068C274.592 17.293 274.635 18.0753 274.345 18.7885C274.055 19.5017 273.455 20.0902 272.67 20.4297H272.59Z" fill="#6CC9B3"/>
<path d="M258.146 29.9614C257.882 29.9614 257.628 29.8711 257.441 29.7104C257.255 29.5496 257.15 29.3316 257.15 29.1043V22.6412L252.388 24.4584C252.237 24.5186 252.07 24.5453 251.904 24.5359C251.738 24.5264 251.577 24.4813 251.436 24.4045C251.295 24.3278 251.179 24.2219 251.098 24.0965C251.018 23.9712 250.975 23.8303 250.973 23.687V15.9039C250.973 15.6766 251.078 15.4586 251.265 15.2978C251.452 15.1371 251.705 15.0468 251.969 15.0468C252.234 15.0468 252.487 15.1371 252.674 15.2978C252.861 15.4586 252.966 15.6766 252.966 15.9039V22.3841L257.727 20.5498C257.88 20.4889 258.048 20.4624 258.216 20.4726C258.384 20.4828 258.546 20.5295 258.688 20.6082C258.829 20.687 258.945 20.7953 259.024 20.9229C259.103 21.0506 259.144 21.1935 259.142 21.3383V29.1214C259.137 29.3458 259.029 29.5594 258.843 29.7165C258.657 29.8735 258.407 29.9615 258.146 29.9614Z" fill="white"/>
<path d="M222.722 147.513L203.197 143.502L118.561 68.277C105.473 73.8939 94.6869 82.8105 87.6397 93.8377L123.263 127.061L82.2803 118.661C74.1913 129.461 70.6848 140.845 72.5178 152.948L176.379 176.777L185.365 185.16C197.319 196.269 217.422 203.023 235.273 199.012C237.186 198.772 228.938 162.857 222.722 147.513Z" fill="#B6E4CD"/>
<path d="M193.095 173.108C192.757 172.8 192.199 173.228 192.517 173.537C194.26 175.209 196.138 176.772 198.136 178.217C198.214 178.258 198.306 178.274 198.396 178.262C198.487 178.249 198.568 178.208 198.627 178.148C198.685 178.087 198.716 178.01 198.714 177.932C198.711 177.853 198.676 177.778 198.614 177.72C196.644 176.303 194.799 174.761 193.095 173.108Z" fill="#347359"/>
<path d="M216.665 186.034C214.192 185.425 211.78 184.645 209.453 183.703C209.366 183.681 209.272 183.686 209.19 183.718C209.107 183.75 209.04 183.806 209.002 183.876C208.963 183.947 208.955 184.027 208.979 184.102C209.004 184.177 209.058 184.243 209.134 184.286C211.491 185.246 213.937 186.037 216.446 186.652C216.495 186.671 216.548 186.681 216.602 186.682C216.656 186.682 216.71 186.672 216.759 186.653C216.809 186.634 216.853 186.607 216.888 186.572C216.924 186.537 216.951 186.496 216.967 186.451C216.983 186.407 216.987 186.36 216.98 186.314C216.973 186.268 216.955 186.223 216.926 186.184C216.897 186.144 216.859 186.111 216.814 186.085C216.769 186.059 216.718 186.042 216.665 186.034Z" fill="#347359"/>
<path d="M132.866 153.719C139.461 155.194 140.278 155.434 140.477 155.434C140.565 155.43 140.649 155.399 140.714 155.348C140.778 155.296 140.82 155.227 140.832 155.152C140.844 155.077 140.825 155 140.778 154.936C140.732 154.872 140.66 154.823 140.577 154.799L133.046 153.085C132.997 153.075 132.947 153.073 132.898 153.08C132.848 153.086 132.801 153.101 132.759 153.123C132.716 153.146 132.679 153.175 132.65 153.209C132.62 153.244 132.599 153.283 132.587 153.325C132.576 153.367 132.573 153.41 132.581 153.452C132.589 153.495 132.606 153.535 132.632 153.572C132.658 153.608 132.692 153.64 132.732 153.666C132.772 153.691 132.818 153.709 132.866 153.719Z" fill="#347359"/>
<path d="M112.943 148.645C112.845 148.622 112.741 148.634 112.653 148.677C112.565 148.72 112.501 148.792 112.475 148.876C112.448 148.96 112.462 149.05 112.512 149.126C112.562 149.201 112.646 149.256 112.744 149.279C119.338 150.753 120.155 150.993 120.354 150.993C120.455 150.993 120.551 150.959 120.622 150.898C120.693 150.837 120.733 150.754 120.733 150.668C120.733 150.581 120.693 150.499 120.622 150.437C120.551 150.376 120.455 150.342 120.354 150.342L112.943 148.645Z" fill="#347359"/>
<path d="M92.8199 144.205C92.7715 144.195 92.7213 144.193 92.6721 144.199C92.6228 144.206 92.5756 144.221 92.5331 144.243C92.4905 144.265 92.4535 144.295 92.4241 144.329C92.3947 144.364 92.3735 144.403 92.3617 144.445C92.3499 144.486 92.3478 144.53 92.3554 144.572C92.3631 144.614 92.3804 144.655 92.4063 144.692C92.4322 144.728 92.4662 144.76 92.5064 144.785C92.5466 144.811 92.5922 144.829 92.6406 144.839C99.2154 146.296 100.052 146.553 100.251 146.553C100.335 146.536 100.409 146.496 100.462 146.438C100.515 146.381 100.544 146.31 100.544 146.236C100.544 146.163 100.515 146.091 100.462 146.034C100.409 145.976 100.335 145.936 100.251 145.919L92.8199 144.205Z" fill="#347359"/>
<path d="M317.379 206.606C314.901 206.609 312.469 206.038 310.336 204.954C308.203 203.87 306.449 202.312 305.257 200.443C304.064 198.575 303.479 196.465 303.56 194.334C303.642 192.204 304.388 190.131 305.721 188.335C307.054 186.538 308.924 185.083 311.135 184.122C313.346 183.161 315.817 182.729 318.289 182.873C320.761 183.016 323.142 183.729 325.183 184.937C327.224 186.145 328.85 187.803 329.891 189.737C330.863 191.546 331.291 193.537 331.136 195.525C330.98 197.514 330.245 199.437 328.998 201.117C327.752 202.798 326.035 204.181 324.004 205.14C321.974 206.099 319.695 206.603 317.379 206.606ZM317.379 183.497C314.994 183.501 312.656 184.067 310.619 185.134C308.582 186.2 306.924 187.727 305.824 189.547C304.724 191.368 304.225 193.413 304.381 195.46C304.537 197.507 305.342 199.479 306.708 201.16C308.074 202.842 309.95 204.169 312.132 204.998C314.313 205.827 316.716 206.125 319.081 205.862C321.446 205.598 323.681 204.781 325.545 203.501C327.408 202.221 328.829 200.526 329.651 198.6C330.383 196.899 330.624 195.07 330.354 193.271C330.084 191.471 329.31 189.755 328.099 188.27C326.888 186.785 325.276 185.574 323.402 184.743C321.528 183.912 319.447 183.484 317.339 183.497H317.379Z" fill="#6CC9B3"/>
<path d="M317.02 194.863L313.175 187.732C313.144 187.693 313.124 187.649 313.116 187.602C313.107 187.556 313.11 187.509 313.125 187.464C313.139 187.418 313.165 187.376 313.2 187.341C313.235 187.305 313.279 187.276 313.328 187.256C313.378 187.236 313.431 187.225 313.486 187.225C313.54 187.225 313.594 187.234 313.644 187.253C313.694 187.272 313.738 187.301 313.774 187.336C313.81 187.371 313.836 187.413 313.852 187.457L317.518 194.315L325.328 191.212C325.415 191.189 325.508 191.195 325.591 191.226C325.674 191.258 325.74 191.315 325.779 191.385C325.818 191.456 325.825 191.536 325.801 191.611C325.777 191.686 325.722 191.751 325.647 191.795L317.498 195.035C317.408 195.064 317.308 195.062 317.22 195.03C317.131 194.998 317.059 194.939 317.02 194.863Z" fill="#6CC9B3"/>
<path d="M345.71 60.528C344.036 58.0594 334.353 44.3619 331.524 45.8191C329.751 46.762 332.68 53.0536 336.246 59.1566C333.497 58.8651 320.965 57.5451 320.487 59.8423C320.008 62.1395 331.883 64.9853 340.928 66.5625C342.562 68.9625 351.368 81.3914 354.616 81.3914C357.863 81.3914 351.966 70.6083 350.392 67.9168C353.121 68.2254 365.673 69.6311 366.151 67.2482C366.63 64.8653 354.755 62.0881 345.71 60.528ZM331.903 46.3848C333.895 45.3562 343.2 58.1451 344.734 60.3566C342.303 59.9452 339.673 59.568 337.143 59.2594C332.7 51.7507 331.106 46.8477 331.903 46.3848ZM349.037 67.0596C346.626 66.751 344.036 66.3739 341.347 65.9282C339.992 63.9395 338.677 61.8823 337.481 59.8937C340.032 60.2023 342.642 60.5966 345.172 61.0252C346.567 63.0652 347.882 65.1053 349.037 67.0596ZM321.144 59.8937C321.483 58.1794 334.294 59.5166 336.585 59.7909C337.767 61.7795 339.022 63.7681 340.35 65.7567C328.157 63.631 321.005 61.008 321.144 59.9623V59.8937ZM354.735 80.7742C352.743 81.8028 343.439 69.0139 341.924 66.8025C344.355 67.2139 346.985 67.5911 349.515 67.8996C353.958 75.3398 355.632 80.2428 354.735 80.7742ZM365.414 67.0596C365.076 68.6711 352.444 67.4539 349.993 67.1625C348.811 65.1739 347.556 63.1852 346.228 61.1966C358.481 63.4252 365.633 66.0824 365.414 67.0596Z" fill="#6CC9B3"/>
<path d="M19.8 197.846L0.135435 183.274C-0.243113 182.983 0.254976 182.503 0.613601 182.777L19.7602 196.989L24.8407 167.057C24.8565 166.97 24.9116 166.893 24.9938 166.842C25.076 166.79 25.1786 166.769 25.279 166.782C25.3794 166.796 25.4694 166.844 25.5292 166.914C25.589 166.985 25.6136 167.073 25.5978 167.16L20.4177 197.658C20.4055 197.714 20.3765 197.766 20.3334 197.81C20.2903 197.853 20.2346 197.886 20.172 197.905C20.1095 197.924 20.0422 197.929 19.9769 197.919C19.9116 197.908 19.8506 197.883 19.8 197.846Z" fill="#6CC9B3"/>
<path d="M128.483 18.3382C127.589 18.3114 126.705 18.5137 125.944 18.9193C125.183 19.325 124.579 19.9158 124.209 20.617C123.838 21.3182 123.718 22.0982 123.863 22.8582C124.008 23.6183 124.412 24.3242 125.024 24.8865C125.636 25.4489 126.427 25.8424 127.299 26.0173C128.171 26.1922 129.083 26.1405 129.921 25.8689C130.759 25.5972 131.484 25.1178 132.004 24.4914C132.525 23.8649 132.818 23.1196 132.846 22.3497C132.879 21.3216 132.439 20.3239 131.622 19.573C130.805 18.8221 129.678 18.3784 128.483 18.3382ZM128.344 25.4527C127.594 25.4523 126.861 25.2594 126.24 24.8986C125.618 24.5379 125.136 24.0256 124.855 23.4276C124.574 22.8295 124.506 22.1728 124.662 21.5417C124.817 20.9105 125.188 20.3336 125.726 19.8848C126.265 19.4361 126.947 19.1359 127.685 19.0227C128.423 18.9095 129.184 18.9886 129.869 19.2496C130.555 19.5107 131.134 19.942 131.534 20.4882C131.933 21.0344 132.133 21.6706 132.109 22.3154C132.078 23.1568 131.668 23.9548 130.965 24.5403C130.262 25.1259 129.322 25.4531 128.344 25.4527Z" fill="#6CC9B3"/>
<path d="M111.548 95.2604C111.229 94.9518 110.651 95.3804 110.99 95.6889C116.509 100.986 116.23 100.832 116.469 100.832C116.54 100.83 116.608 100.811 116.666 100.777C116.725 100.743 116.771 100.696 116.8 100.641C116.829 100.585 116.839 100.524 116.83 100.464C116.821 100.404 116.793 100.348 116.748 100.301L111.548 95.2604Z" fill="#347359"/>
<path d="M125.455 108.546C125.425 108.507 125.386 108.473 125.34 108.448C125.293 108.423 125.242 108.406 125.187 108.4C125.133 108.394 125.078 108.398 125.026 108.411C124.973 108.425 124.925 108.449 124.884 108.48C124.844 108.511 124.811 108.55 124.789 108.593C124.768 108.636 124.757 108.683 124.758 108.73C124.759 108.777 124.772 108.823 124.796 108.866C124.82 108.908 124.854 108.945 124.897 108.975C130.515 114.358 130.137 114.118 130.376 114.118C130.45 114.118 130.522 114.1 130.585 114.065C130.647 114.031 130.696 113.981 130.725 113.923C130.755 113.864 130.764 113.8 130.752 113.737C130.739 113.674 130.705 113.616 130.655 113.569L125.455 108.546Z" fill="#347359"/>
<path d="M139.361 121.816C139.023 121.507 138.465 121.936 138.803 122.244C144.422 127.627 144.043 127.387 144.283 127.387C144.353 127.385 144.421 127.366 144.479 127.332C144.538 127.298 144.584 127.251 144.613 127.196C144.642 127.14 144.653 127.079 144.644 127.019C144.634 126.959 144.606 126.903 144.561 126.856L139.361 121.816Z" fill="#347359"/>
<path d="M167.155 148.37C167.085 148.321 166.997 148.295 166.907 148.297C166.817 148.299 166.73 148.328 166.663 148.38C166.596 148.431 166.552 148.502 166.54 148.579C166.528 148.656 166.548 148.734 166.597 148.799C172.116 154.079 171.837 153.942 172.076 153.942C172.146 153.94 172.214 153.92 172.273 153.887C172.331 153.853 172.378 153.806 172.407 153.751C172.436 153.695 172.446 153.634 172.437 153.574C172.428 153.514 172.399 153.457 172.355 153.411L167.155 148.37Z" fill="#347359"/>
<path d="M181.061 161.657C181.032 161.617 180.993 161.584 180.946 161.558C180.9 161.533 180.848 161.517 180.794 161.51C180.74 161.504 180.685 161.508 180.632 161.522C180.58 161.535 180.532 161.559 180.491 161.59C180.45 161.622 180.418 161.66 180.396 161.703C180.374 161.746 180.364 161.793 180.365 161.84C180.366 161.887 180.379 161.934 180.403 161.976C180.427 162.018 180.461 162.055 180.504 162.085C186.022 167.365 185.743 167.228 185.983 167.228C186.057 167.229 186.129 167.21 186.191 167.176C186.254 167.141 186.303 167.091 186.332 167.033C186.362 166.975 186.371 166.91 186.358 166.847C186.346 166.784 186.312 166.726 186.261 166.68L181.061 161.657Z" fill="#347359"/>
<path d="M153.248 135.101C152.929 134.776 152.371 135.204 152.69 135.53C158.229 140.81 157.93 140.673 158.169 140.673C158.243 140.674 158.316 140.655 158.378 140.621C158.44 140.586 158.489 140.536 158.519 140.478C158.549 140.42 158.558 140.355 158.545 140.292C158.533 140.229 158.499 140.171 158.448 140.125L153.248 135.101Z" fill="#347359"/>
<path d="M374.818 137.999C363.581 128.279 341.765 116.038 341.546 115.918C341.485 115.888 341.417 115.872 341.347 115.872C341.277 115.872 341.208 115.888 341.147 115.918C339.266 116.908 337.504 118.057 335.888 119.347C333.337 118.215 329.492 116.107 329.412 114.924C329.113 110.312 333.736 102.684 332.222 101.449C332.066 101.344 331.878 101.278 331.681 101.26C331.484 101.241 331.284 101.272 331.106 101.346C329.113 101.998 327.261 104.432 326.304 106.044C326.356 102.941 326.197 99.8384 325.826 96.7519C325.709 94.9113 325.456 93.079 325.069 91.266C324.053 87.7345 323.395 87.1002 322.738 87.1688C322.081 87.2373 321.662 88.7459 321.523 90.3403C320.945 87.6488 320.008 84.7173 318.813 84.7687C318.335 84.7687 317.319 84.7687 317.08 90.8889C314.749 85.3344 309.429 79.4885 300.862 73.0598C300.811 73.0271 300.752 73.0055 300.689 72.9966C300.626 72.9877 300.562 72.9918 300.502 73.0086C300.441 73.0253 300.386 73.0543 300.342 73.093C300.297 73.1317 300.263 73.1791 300.244 73.2312C299.388 76.197 298.491 79.3685 297.654 82.7115C297.575 82.6397 297.479 82.5829 297.372 82.5446C297.266 82.5062 297.152 82.4872 297.037 82.4886C294.725 82.4886 292.912 89.9288 292.295 92.0889C292.422 90.8933 292.314 89.6878 291.976 88.5231C291.677 87.8716 291 87.6831 290.342 88.3688C289.067 89.6888 288.051 92.8775 286.357 96.4947C285.889 96.1366 285.306 95.9094 284.684 95.8433C281.994 95.2947 269.901 92.8089 256.632 88.866C250.654 87.1516 241.968 87.6316 237.067 92.1403C234.158 94.8147 231.627 99.872 236.011 108.821C240.195 117.393 252.129 127.096 261.672 132.307C248.762 132.427 232.225 129.89 212.68 121.301C211.92 120.789 211.041 120.424 210.102 120.232C209.163 120.04 208.187 120.024 207.241 120.187C202.32 121.284 199.809 128.879 200.447 140.553C115.154 64.7624 118.76 67.8996 118.501 67.951C113.599 70.1194 108.978 72.7283 104.714 75.7341L96.3065 67.6082C93.6168 61.9166 93.2582 56.7736 91.5846 51.3905C90.0812 46.5992 87.8788 41.991 85.0298 37.6758C83.8144 35.9615 82.9178 35.1558 82.1408 35.2586C77.7178 35.7558 76.8611 55.3507 73.3944 65.3281C72.5576 67.7796 70.884 73.5398 71.143 75.717C71.6436 77.7785 72.6488 79.7246 74.0917 81.4257C75.1875 82.9686 90.1899 96.8548 122.028 126.53L82.5194 118.49C82.3201 118.49 82.1607 118.318 81.9416 118.593C79.3045 122.087 77.1008 125.811 75.3668 129.701L64.8272 127.061C59.1092 123.393 55.7022 119.278 50.8807 115.421C46.6656 112.074 41.9803 109.195 36.9342 106.849C34.8024 105.924 33.5871 105.701 32.9495 106.129C29.423 108.564 40.8592 125.501 44.2063 135.633C45.2337 139.056 46.753 142.356 48.729 145.456C50.4128 146.98 52.4489 148.183 54.7061 148.988C57.8314 150.329 61.2008 151.198 64.6679 151.559L176.24 177.12C185.365 185.692 189.27 189.892 197.478 193.938C205.641 198.135 214.929 200.439 224.435 200.624C230.197 200.584 235.9 199.619 241.251 197.778C254.34 193.732 286.218 183.909 308.791 161.657C312.257 158.235 315.415 154.59 318.235 150.754C335.429 157.508 346.885 164.468 360.075 163.92C369.16 163.508 375.595 160.131 378.165 154.405C379.369 151.663 379.693 148.694 379.104 145.807C378.515 142.921 377.035 140.224 374.818 137.999ZM49.2669 144.976C47.3413 141.946 45.8622 138.721 44.8638 135.376C42.0347 126.804 33.0292 112.575 32.9097 107.809C32.9097 107.261 33.0292 106.524 33.6668 106.524C34.5895 106.633 35.4771 106.901 36.2767 107.312C36.8346 113.244 46.6968 128.776 49.8049 138.325C50.8226 141.581 52.1555 144.757 53.7896 147.822C52.0738 147.146 50.5352 146.178 49.2669 144.976ZM310.365 100.969C310.106 96.1519 310.724 95.7233 310.724 95.7233C310.724 95.7233 311.342 95.8604 312.597 98.8434C312.716 99.152 313.792 101.741 313.792 101.741C313.792 102.049 313.992 104.604 314.091 105.512C314.078 105.56 314.078 105.61 314.09 105.658C314.103 105.705 314.128 105.75 314.163 105.789C314.199 105.827 314.244 105.858 314.295 105.88C314.346 105.901 314.403 105.912 314.46 105.912C314.517 105.912 314.573 105.901 314.624 105.88C314.676 105.858 314.721 105.827 314.756 105.789C314.792 105.75 314.817 105.705 314.829 105.658C314.842 105.61 314.841 105.56 314.828 105.512C314.51 102.083 314.49 99.4091 313.812 94.969C313.135 90.5289 313.812 89.0717 314.231 89.0031C314.629 89.0031 315.765 90.186 316.92 94.0261C317.219 95.0204 318.255 99.8206 318.753 103.626C318.74 103.674 318.74 103.724 318.752 103.772C318.765 103.82 318.79 103.865 318.825 103.903C318.861 103.941 318.906 103.973 318.957 103.994C319.008 104.015 319.065 104.026 319.122 104.026C319.179 104.026 319.235 104.015 319.287 103.994C319.338 103.973 319.383 103.941 319.418 103.903C319.454 103.865 319.479 103.82 319.491 103.772C319.504 103.724 319.503 103.674 319.49 103.626C319.231 101.603 318.793 99.2034 318.415 97.2662C318.374 95.8261 318.147 94.3943 317.737 92.9975C317.737 85.9516 318.753 85.5744 318.773 85.5573C319.311 85.5573 320.766 88.6774 321.284 93.9575C321.722 97.6948 322.18 100.421 322.28 102.649C322.28 102.731 322.318 102.81 322.385 102.867C322.452 102.925 322.543 102.958 322.638 102.958C322.69 102.958 322.741 102.949 322.788 102.931C322.835 102.914 322.878 102.889 322.913 102.856C322.949 102.824 322.976 102.786 322.994 102.745C323.012 102.703 323.02 102.659 323.017 102.615C322.877 99.4091 322.14 96.2205 322.1 93.3404C321.959 91.5303 322.196 89.7131 322.798 87.9745C322.957 88.0945 323.455 88.7117 324.272 91.5575C324.989 94.0775 326.264 106.986 324.949 111.118C324.926 111.202 324.942 111.291 324.994 111.365C325.046 111.439 325.131 111.492 325.228 111.512C325.326 111.533 325.429 111.519 325.515 111.474C325.601 111.429 325.663 111.356 325.687 111.272C325.962 110.144 326.122 108.996 326.165 107.844C326.424 107.329 328.635 102.924 331.305 102.101C331.435 102.066 331.574 102.066 331.704 102.101C332.58 102.838 328.376 110.861 328.635 115.164C328.755 116.878 333.656 119.261 335.29 119.998C330.861 123.781 327.4 128.318 325.129 133.319C313.952 126.033 309.369 123.581 309.867 115.952C310.206 111.632 310.624 105.495 310.365 100.969ZM303.053 117.118C305.305 116.216 307.408 115.064 309.309 113.69C308.791 116.485 309.086 119.347 310.166 122.021C308.513 123.478 306.799 124.833 305.066 126.118C298.83 128.433 296.638 127.13 294.606 125.553C298.491 123.427 302.037 120.615 303.053 117.118ZM300.782 119.038C299.029 120.067 295.941 119.707 291.817 118.01C293.126 117.677 294.31 117.05 295.243 116.192C295.961 115.507 296.718 114.718 297.495 113.861C298.96 114.7 300.735 115.042 302.476 114.821C302.653 115.59 302.59 116.386 302.292 117.127C301.995 117.868 301.474 118.528 300.782 119.038ZM309.887 95.7919C309.498 97.485 309.411 99.2192 309.628 100.935C309.827 104.501 309.628 109.232 309.389 112.472C298.371 116.227 292.873 114.924 295.443 97.1976C300.175 96.2355 305.025 95.7636 309.887 95.7919ZM294.068 88.5574C295.243 84.6315 296.499 83.1572 296.997 83.1572C297.096 83.1572 297.256 83.3115 297.395 83.6544C296.538 87.083 295.243 92.9975 294.586 97.9691C293.367 98.0103 292.163 98.2187 291.02 98.5862C291.996 95.809 292.813 92.7746 294.068 88.5574ZM284.664 99.9063C283.13 102.958 281.596 105.701 280.938 106.764C280.893 106.841 280.886 106.93 280.918 107.012C280.95 107.094 281.018 107.162 281.108 107.201C281.197 107.239 281.301 107.246 281.397 107.218C281.492 107.191 281.571 107.132 281.616 107.055C287.593 96.769 288.948 91.266 290.641 89.0031C291.099 88.4031 291.179 88.3688 291.358 89.0031C291.559 90.9708 291.559 92.9499 291.358 94.9176C290.92 96.3233 290.502 97.6605 290.103 98.7748C289.597 98.9856 289.105 99.2203 288.629 99.4777C288.23 99.7177 288.629 100.266 289.047 100.026C290.675 99.1041 292.56 98.5715 294.506 98.4834C293.49 106.524 294.227 111.169 296.857 113.312C296.08 114.17 295.323 115.027 294.626 115.627C291.916 118.215 286.517 118.095 282.532 117.341C278.946 116.672 275.491 115.564 272.272 114.05C273.019 108.446 275.58 103.136 279.663 98.7234C281.222 99.4012 282.922 99.8034 284.664 99.9063ZM236.648 108.581C232.424 100.009 234.835 95.1404 237.585 92.6032C242.207 88.3345 250.714 87.8202 256.353 89.5002C267.669 92.9289 278.109 95.1576 282.652 96.1176C275.32 98.6377 268.586 115.352 272.431 121.421L247.905 110.724C247.815 110.685 247.711 110.679 247.616 110.706C247.521 110.733 247.442 110.792 247.397 110.869C247.352 110.947 247.345 111.036 247.376 111.118C247.408 111.2 247.476 111.268 247.566 111.307L273.726 122.707C276.774 124.421 280.56 120.993 282.672 118.198C285.333 118.672 288.079 118.672 290.741 118.198C293.669 119.484 298.152 121.061 300.981 119.621C299.328 121.85 295.383 124.764 289.127 127.284C280.908 130.442 272.027 132.128 263.027 132.239C253.404 127.301 240.932 117.29 236.648 108.581ZM260.776 132.976C272.362 133.198 283.807 130.754 293.928 125.896C296.359 127.799 298.511 128.741 303.253 127.404C278.01 144.719 245.654 144.325 228.3 142.473C226.308 138.325 221.048 128.193 215.111 123.101C233.122 130.61 248.523 132.976 260.776 132.976ZM77.0205 68.551C75.6851 72.3403 74.7057 76.2157 74.0917 80.14C73.0136 78.7785 72.2618 77.2457 71.8802 75.6313C72.1225 72.1822 72.8654 68.7727 74.0917 65.4824C77.0603 56.9107 78.435 39.0987 81.4833 36.2358C82.4995 35.2758 83.1968 36.2358 84.2328 37.813C81.2642 42.7674 79.8895 58.8479 77.0205 68.551ZM81.563 87.8202C84.9306 80.6332 89.7614 74.0208 95.8283 68.2939L103.997 76.1799C97.3123 80.9711 91.7129 86.7829 87.4803 93.3232L81.563 87.8202ZM65.0265 150.908C63.4235 143.261 63.4235 135.429 65.0265 127.781L75.1875 130.284C72.1175 137.397 71.0723 145.039 72.1392 152.571L65.0265 150.908ZM72.8365 152.622C72.2089 148.56 72.2089 144.444 72.8365 140.382L79.9692 141.959C80.0199 141.981 80.0756 141.992 80.1322 141.993C80.1888 141.994 80.2449 141.984 80.2964 141.963C80.3478 141.943 80.3933 141.913 80.4294 141.875C80.4655 141.838 80.4914 141.794 80.5052 141.746C80.5189 141.699 80.5201 141.65 80.5088 141.602C80.4974 141.554 80.4737 141.509 80.4395 141.471C80.4053 141.432 80.3614 141.4 80.311 141.378C80.2606 141.355 80.2051 141.343 80.1485 141.342L72.9361 139.747C74.3539 132.341 77.5646 125.274 82.36 119.004L122.785 127.301L155.778 158.142L153.089 157.542C152.991 157.52 152.887 157.531 152.799 157.575C152.711 157.618 152.647 157.69 152.62 157.774C152.594 157.858 152.608 157.948 152.658 158.023C152.708 158.099 152.792 158.154 152.889 158.177L156.695 159.017C163.847 165.668 170.223 171.6 175.084 176.16L72.8365 152.622ZM235.074 198.618C220.211 201.944 206.723 197.641 197.737 193.218C193.25 190.998 189.18 188.206 185.664 184.937L88.0382 93.7861C90.6136 89.7782 93.7081 86.0343 97.2628 82.6258C102.682 87.7688 102.284 87.4945 102.523 87.4945C102.593 87.4922 102.661 87.4731 102.72 87.4392C102.778 87.4054 102.824 87.3583 102.853 87.303C102.882 87.2478 102.893 87.1868 102.884 87.1267C102.875 87.0666 102.846 87.01 102.802 86.963L97.8207 82.1457C103.731 76.6494 110.718 72.0886 118.462 68.6711C222.961 161.554 218.299 157.491 218.538 157.491C218.612 157.491 218.684 157.473 218.747 157.438C218.809 157.404 218.858 157.354 218.887 157.296C218.917 157.237 218.926 157.173 218.914 157.11C218.901 157.047 218.867 156.989 218.817 156.942L204.352 144.085L222.483 147.805C227.122 160.57 230.796 173.581 233.48 186.755C232.211 186.978 230.927 187.133 229.635 187.217C229.535 187.217 229.438 187.252 229.367 187.313C229.296 187.374 229.257 187.457 229.257 187.543C229.257 187.63 229.296 187.712 229.367 187.774C229.438 187.835 229.535 187.869 229.635 187.869C230.974 187.785 232.305 187.624 233.62 187.389C234.795 193.543 235.473 198.001 235.074 198.704V198.618ZM377.408 154.045C373.424 162.942 360.593 164.52 349.934 162.188C339.673 159.942 325.069 152.074 312.477 147.822C312.422 147.797 312.361 147.783 312.298 147.782C312.236 147.781 312.174 147.793 312.118 147.816C312.062 147.84 312.013 147.874 311.975 147.917C311.937 147.959 311.911 148.009 311.9 148.062L309.907 159.154C287.394 182.657 254.121 192.892 240.792 197.024C239.298 197.469 237.963 197.949 235.772 198.481C236.489 192.721 225.81 150.342 220.351 142.028C234.855 144.41 280.002 149.091 310.405 122.587C312.617 126.256 318.175 129.581 324.81 133.902C323.866 136.074 323.133 138.311 322.618 140.588C322.594 140.741 322.611 140.897 322.67 141.043C322.729 141.189 322.827 141.321 322.957 141.428L349.436 153.325C349.479 153.356 349.53 153.378 349.585 153.39C349.64 153.402 349.697 153.403 349.753 153.393C349.808 153.383 349.86 153.363 349.905 153.334C349.951 153.304 349.987 153.267 350.013 153.223C350.039 153.18 350.054 153.132 350.055 153.084C350.057 153.035 350.046 152.987 350.023 152.942C350 152.898 349.966 152.858 349.923 152.826C349.88 152.795 349.829 152.772 349.774 152.759L323.336 140.862C325.607 130.576 332.441 121.198 341.267 116.518C343.478 117.77 363.601 129.221 374.201 138.393C376.318 140.525 377.732 143.106 378.296 145.868C378.86 148.63 378.554 151.471 377.408 154.096V154.045Z" fill="#347359"/>
<path d="M113.919 230.144L152.969 236.693L116.37 208.647L77.2995 202.098L113.919 230.144Z" fill="#6CC9B3"/>
<path d="M154.802 235.647L190.545 215.452L147.849 210.978L133.344 219.207L154.802 235.647Z" fill="#6CC9B3"/>
<path d="M218.657 273.088L210.249 279.843L202.42 272.608C202.351 272.545 202.256 272.507 202.155 272.504C202.054 272.501 201.956 272.532 201.882 272.591C201.808 272.65 201.764 272.732 201.76 272.819C201.756 272.906 201.793 272.99 201.862 273.054L209.712 280.288L201.304 287.026C201.23 287.085 201.186 287.167 201.182 287.254C201.179 287.341 201.215 287.425 201.284 287.489C201.353 287.552 201.448 287.59 201.549 287.593C201.65 287.596 201.748 287.565 201.822 287.506L210.23 280.751L218.06 287.986C218.094 288.017 218.134 288.043 218.18 288.061C218.225 288.079 218.274 288.089 218.324 288.09C218.374 288.092 218.424 288.085 218.471 288.07C218.518 288.055 218.561 288.032 218.597 288.003C218.634 287.974 218.664 287.939 218.684 287.899C218.705 287.86 218.717 287.818 218.719 287.775C218.721 287.732 218.713 287.689 218.695 287.649C218.678 287.609 218.651 287.572 218.617 287.54L210.768 280.306L219.175 273.568C219.212 273.539 219.241 273.504 219.262 273.465C219.283 273.426 219.295 273.383 219.297 273.34C219.298 273.297 219.29 273.254 219.273 273.214C219.256 273.174 219.229 273.137 219.195 273.105C219.161 273.074 219.12 273.048 219.075 273.03C219.029 273.013 218.98 273.003 218.93 273.001C218.88 272.999 218.831 273.006 218.784 273.021C218.737 273.036 218.694 273.059 218.657 273.088Z" fill="#6CC9B3"/>
</svg>
