<svg xmlns="http://www.w3.org/2000/svg" viewBox="0 0 250 250">
  
<g transform="matrix(0.625,0,0,0.625,0,0)"><g transform="matrix(2,0,0,2,0,0)"><g>
    <path d="M194.78,33.86c-.47-.16-1.05.57-1.73,2.16a21.15,21.15,0,0,1-1,2c.37-1.43.78-3.43.92-4.16s.45-2.71-.29-2.91c-.48-.13-1,.62-1.63,2.25S190,36,189.51,37c.2-1.31.52-3.36.82-5.15.21-1.29.22-2.72-.41-2.87s-1.21,1.19-1.56,2.35c-.08.27-1,3-1.57,5,0-.85,0-2.11,0-3.64,0-1.32-.21-2.73-.86-2.78s-1.06,1.81-1.16,2.57c0,.3-.83,5.38-.83,5.38a6.08,6.08,0,0,1-.57,1.79c-.22.4-.32.35-.47.31-1.61-.37-4.47-3.75-5.55-2.57-.2.23-.83.91,2.59,5a2.84,2.84,0,0,1,.32,3.16l-1.44,2.67c-.4-.36-.8-.72-1.19-1.1a.19.19,0,0,0-.29,0c-.47.73-.92,1.43-1.35,2.12l-1.65-19.07a6.73,6.73,0,0,0-7.13-6.27l-22.65,2a11.41,11.41,0,0,0-.08-3.82,6.4,6.4,0,0,0,6-6.94c-.6-7-10.54-8.1-12.52-1.22a11.22,11.22,0,0,0-15.7,10.25c0,.11,0,2.35.09,3.65L109.05,29c-.52-6.54-6.4-11.51-13.55-11.51a14.3,14.3,0,0,0-10,3.94,11.76,11.76,0,0,0,1,18.07,14.63,14.63,0,0,0,11.85,2.7l3.28,37.88a.19.19,0,1,0,.37,0L98.68,42.09A14.17,14.17,0,0,0,103.57,40l5.62,2.1a.18.18,0,0,0,.24-.24l-2.27-5.52a11.59,11.59,0,0,0,1.92-6.95l13.29-1.15c.31,4.87,1.33,7.72,3,8.49,1.48.67,3.16-.37,4.4-1.41a10.4,10.4,0,0,1,.68,2.66c.42,3.76-1.73,5.85-4.17,8.18-3.15,3-7.91,7.55-10,15.8a.19.19,0,0,0,.37.09c2.06-8.15,6.77-12.64,9.89-15.62l.75-.71c.17.44.36.91.57,1.39a4.52,4.52,0,0,0,7.68,1.07,61.4,61.4,0,0,1,10.18-10.35c8.11.05,10.14-3.27,23.15,24.37l-2.23,5a.19.19,0,0,0,.34.15,117.8,117.8,0,0,1,10.53-19.77,28.76,28.76,0,0,0,12,7.07c-2.77,4.61-4.34,9.13-7.51,15.71-3.78,7.83-8.28,9.57-11.38,9.66-4.8.17-8.88-3.56-11.26-7.77-.25-.45-2.59-4.39-6.84-11.58,1-2.13,2-3.92,2.65-5a.19.19,0,0,0-.32-.2c-1.9,3-6,11.81-8.46,17.86-5.41,3.88-15.22,5.79-19.06,2.52-5.3-17-3.16-20.86-1.09-24.61l.2-.36a.19.19,0,0,0-.33-.18l-.2.36c-2.11,3.81-4.29,7.76,1.06,24.91-1.11,4.16-1.36,6.87-1.91,9.38l-9.77.85a.19.19,0,0,0,0,.37l56.88-4.92a6.49,6.49,0,0,0,5.62-4.57c5.15-5,7.39-14.64,12.15-22.47a.19.19,0,0,0-.11-.28q-.6-.16-1.2-.36c4.43-9.87,3.68-8.76,5.61-14.91C194.6,38,195.8,34.2,194.78,33.86Zm-88,2.35c0,.15-.14-.2,2.14,5.35-5-1.89-5.25-2-5.38-2a14.1,14.1,0,0,1-4.89,2.16l-.43-4.92a6.36,6.36,0,0,1,5.61-7l4.87-.42A11.49,11.49,0,0,1,106.78,36.21Zm28.5,11.7a4.15,4.15,0,0,1-7.05-1c-.23-.54-.43-1-.62-1.54.28-.27.54-.53.77-.79a8.15,8.15,0,0,0,2.36-7.47,11,11,0,0,0,1-3.83.19.19,0,0,0-.33-.13c-6.61,7.42-8.73,1.57-8.74-8.37a29.21,29.21,0,0,1,6.66-1c.29,1.31.37,2.56,1,2.62.29,0,.58-.22,1-.79,1.11-1.61,3.32.94.57,2.94a.19.19,0,0,0,0,.26c3.52,5.53,6.56,8.76,13.35,9A63.45,63.45,0,0,0,135.28,47.91Zm33.82,13.8c-13.64-28.94-15.37-23.85-24.59-24.33a12.69,12.69,0,0,1-7.29-2.57,11.15,11.15,0,0,0,7.29-8.53l22.74-2A6.35,6.35,0,0,1,174,30.24l1.7,19.57A117,117,0,0,0,169.1,61.71Zm-22.51,12a22.17,22.17,0,0,1,10.66,8.9l-6.31.54A23.18,23.18,0,0,0,144.48,75,17.93,17.93,0,0,0,146.59,73.67ZM127.3,76.29a9.71,9.71,0,0,0,5.91,1.58,25.42,25.42,0,0,0,10.91-2.72,23.1,23.1,0,0,1,6.42,8l-25.07,2.17C125.93,83.18,126.34,80,127.3,76.29Zm44.92,5h0l-14.51,1.25a22.57,22.57,0,0,0-10.86-9.18c1.55-3.75,3.68-8.52,5.53-12.3,4.58,7.76,6.53,11,6.68,11.32,4.21,7.47,11.85,10.79,18.23,5.25A6,6,0,0,1,172.22,81.27Zm19.19-47.92c.65-1.77,1.09-2,1.18-2s.36.68,0,2.48a48.13,48.13,0,0,1-1.3,5.48c-.09.09-.37.69-1,1.52a12,12,0,0,0-1.54-1.32A62.18,62.18,0,0,0,191.41,33.35Zm-2.69-1.89c.55-1.82,1-2.11,1.11-2.08s.42.67.13,2.44c-.46,2.74-1,6.09-1,6.45-.05.13-.05.1-.49,1a11.15,11.15,0,0,0-1.88-1Zm5.8,5.33c-.55,2.22-1,3.35-2.19,7.44-.48,1.7-3.51,8.49-4,9.62a28.62,28.62,0,0,1-9.19-5.37l1.48-2.74a3.22,3.22,0,0,0-.36-3.58c-2.37-2.84-2.9-4.19-2.6-4.51.74-.8,3.63,2.34,5.21,2.69.24,0,.46.06.74-.33a6.18,6.18,0,0,0,.73-2.09s.79-5.08.83-5.39c.26-1.87.66-2.24.77-2.24s.52.59.51,2.39c0,2.73,0,4.58,0,4.84s-.14.43-.2.61c-.27-.11-.55-.21-.85-.3a.18.18,0,1,0-.11.35c3,1,4.65,2.52,6.5,4.89a.19.19,0,1,0,.3-.23c-.5-.64-1-1.23-1.49-1.76a24.52,24.52,0,0,0,2.83-4.91c.74-1.73,1.19-2,1.28-2S195,35,194.52,36.79Z" style="fill: #63eabd"></path>
    <path d="M93,52.72a4.82,4.82,0,0,0-5.19-4.41l-5.1.43a.19.19,0,0,0,0,.37c.1,0,5-.4,5.08-.42a4.44,4.44,0,0,1,4.81,4.06L94,69.39a.19.19,0,0,0,.37,0Z" style="fill: #63eabd"></path>
    <path d="M92.91,87.7c-.48.47-1.9.53-2.58.58a.19.19,0,0,0,0,.38c.83-.07,2.24-.11,2.83-.69A.19.19,0,0,0,92.91,87.7Z" style="fill: #63eabd"></path>
    <path d="M71.2,49.71c-7.19.6-29.56,2.47-29.66,2.49a4.83,4.83,0,0,0-4.41,5.22l2.58,30.66a4.84,4.84,0,0,0,5.22,4.41l10.22-.87a.18.18,0,0,0,.17-.2c0-.1-.1-.2-.2-.17l-10.22.86a4.46,4.46,0,0,1-4.82-4.06L37.5,57.39a4.45,4.45,0,0,1,4.07-4.81l29.66-2.5C71.5,50.06,71.43,49.66,71.2,49.71Z" style="fill: #63eabd"></path>
    <g>
      <path d="M112,94.26h0Z" style="fill: #63eabd"></path>
      <path d="M112,94.26h0Z" style="fill: #63eabd"></path>
      <path d="M111.84,94.27h0Z" style="fill: #63eabd"></path>
      <path d="M112.05,94.26l.13,0Z" style="fill: #63eabd"></path>
      <path d="M112.36,94.23h0Z" style="fill: #63eabd"></path>
      <path d="M111.7,94.29h0Z" style="fill: #63eabd"></path>
      <path d="M112.53,94.22h0Z" style="fill: #63eabd"></path>
      <path d="M112.86,94.19h0Z" style="fill: #63eabd"></path>
      <path d="M113,94.18h0Z" style="fill: #63eabd"></path>
      <path d="M113,94.18h0Z" style="fill: #63eabd"></path>
      <path d="M112.61,94.21h0Z" style="fill: #63eabd"></path>
      <path d="M154.7,138.9l-3.54-41.46a6.47,6.47,0,0,0-7-5.9L111.7,94.29a.19.19,0,0,0,0,.37l32.49-2.74a6.09,6.09,0,0,1,6.59,5.55l3.53,41.46a6.09,6.09,0,0,1-5.51,6.59c-.11,0-58.32,4.91-60.84,5.13a.19.19,0,0,0,0,.37l60.81-5.12A6.48,6.48,0,0,0,154.7,138.9ZM113.11,94.17Zm0,0Zm-1.36.11Z" style="fill: #63eabd"></path>
    </g>
    <path d="M89.79,96.52a.19.19,0,0,1,0-.38l10.1-.86a.19.19,0,1,1,0,.38Z" style="fill: #63eabd"></path>
    <path d="M120.08,69.35c3.91-4.28,5.83-4.66,8.82-6.7.34-.23.29-1-2.13-.21l-1,.3c1.08-1.06,3.05-2.59,4.17-3.67.3-.29.14-1-2.13.14-.5.25-2.2,1.11-3,1.58a30.51,30.51,0,0,1,2.24-2.53c2.57-2.61,2.3-3.62-1.14-1.59a46.24,46.24,0,0,0-8,6.79c-1.74,1.1-1.08-3.56-1.26-4.69-.25-1.55-.58-3.26-1.82.89-.34,1.13-1.73,4.66-4.34,11a16.26,16.26,0,0,1,8.1,2.2c.54-1.44,1-2.58,1.35-3.56Z" style="fill: #ffffff"></path>
    <path d="M60.91,66.12c0-3.92-.71-2.53-1.34-1.26-.46.93-1.14,5.14-2.34,3.72-.1-.16-2.85-5.57-5.06-8-2.43-2.67-2.93-1.87-1.41,1.07A28.46,28.46,0,0,1,52,64.44c-.55-.61-1.79-1.81-2.15-2.16-1.66-1.58-2-1-1.81-.69s2.63,4.2,2.62,4.29L50,65.37c-1.9-1.3-2.13-.68-1.9-.39,2,2.56,3.57,3.37,5.8,8.08.09.22.23,2.91.27,3.5a10.34,10.34,0,0,1,4.63-.48,16.09,16.09,0,0,1,2.44-5.44C61,68.93,60.9,67.19,60.91,66.12Z" style="fill: #ffffff"></path>
    <path d="M81.51,52.76c1.62,6.23,1.82,8.59,1.33,9.74S80.3,62.5,78.3,61c.22,1,.45,1.94.69,2.7A1.6,1.6,0,0,0,80.37,65a11.07,11.07,0,0,1-6.89,1.7,5,5,0,0,1-3.1-1.33c1.18-.64,2.14-.4,4.92-4.06,1-1.27,2-2.37,2.78-3.42-2-2.27-.35-3.77.73-2.26.58.81,1.41.58.91-1.85A10.58,10.58,0,0,0,81.51,52.76Z" style="fill: #ffffff"></path>
    <path d="M68.86,71.93a1.07,1.07,0,1,1-1.18-1A1.07,1.07,0,0,1,68.86,71.93Z" style="fill: #35a079"></path>
    <path d="M61.27,80.77a1.07,1.07,0,1,1-1.18-1A1.08,1.08,0,0,1,61.27,80.77Z" style="fill: #35a079"></path>
    <path d="M65.77,92.42a1.07,1.07,0,1,1-2.13.22,1.07,1.07,0,0,1,2.13-.22Z" style="fill: #35a079"></path>
    <path d="M55.9,78.76a1.07,1.07,0,1,1-2.13.22,1.07,1.07,0,0,1,2.13-.22Z" style="fill: #35a079"></path>
    <path d="M77.89,76.12a1.08,1.08,0,1,1-1.18-1A1.08,1.08,0,0,1,77.89,76.12Z" style="fill: #35a079"></path>
    <path d="M71.71,84.77a1.07,1.07,0,1,1-1.18-1A1.07,1.07,0,0,1,71.71,84.77Z" style="fill: #35a079"></path>
    <path d="M82.82,88.79a1.08,1.08,0,1,1-1.18-1A1.08,1.08,0,0,1,82.82,88.79Z" style="fill: #35a079"></path>
    <path d="M87.42,70.38a1.08,1.08,0,1,1-1.18-.95A1.08,1.08,0,0,1,87.42,70.38Z" style="fill: #35a079"></path>
    <path d="M97.36,88.34a1.08,1.08,0,1,1-1.18-1A1.08,1.08,0,0,1,97.36,88.34Z" style="fill: #35a079"></path>
    <path d="M97.16,76.25a1.07,1.07,0,1,1-1.18-1A1.08,1.08,0,0,1,97.16,76.25Z" style="fill: #35a079"></path>
    <path d="M109,90.59a1.06,1.06,0,0,1-1,1.18,1.07,1.07,0,1,1-.22-2.13A1.06,1.06,0,0,1,109,90.59Z" style="fill: #35a079"></path>
    <path d="M110.32,79.29a1.08,1.08,0,0,1-1,1.18,1.07,1.07,0,1,1,1-1.18Z" style="fill: #35a079"></path>
    <path d="M118.64,74.55a1.07,1.07,0,1,1-2.13.22,1.06,1.06,0,0,1,.95-1.18A1.08,1.08,0,0,1,118.64,74.55Z" style="fill: #35a079"></path>
    <path d="M77.19,112.07a15.53,15.53,0,0,1-4.68-4.25l0,0a17.38,17.38,0,0,1,0-6.9.21.21,0,0,1,.21-.11,28.88,28.88,0,0,0,7.66,0,.18.18,0,0,1,.2.16c.27,2.53.5,3.87.69,6.23,0,.34-1.28.88-3.76,4.87A.17.17,0,0,1,77.19,112.07Zm-4.36-4.44a15.2,15.2,0,0,0,4.39,4,23.83,23.83,0,0,1,3.59-4.56c-.18-2.29-.4-3.61-.65-6a28.42,28.42,0,0,1-7.43,0A18.19,18.19,0,0,0,72.83,107.63Z" style="fill: #35a079"></path>
    <path d="M187.65,47.71a.19.19,0,0,1-.19-.19,10.56,10.56,0,0,0-3-8,.18.18,0,1,1,.26-.26,10.85,10.85,0,0,1,3.14,8.24A.2.2,0,0,1,187.65,47.71Z" style="fill: #63eabd"></path>
    <path d="M160.88,98.36a3.64,3.64,0,0,0,6.45,1.91,3.58,3.58,0,0,0,.8-2.67l-.55-5.19a3.64,3.64,0,1,0-7.25.76Zm2.73-8.82a3.26,3.26,0,0,1,3.6,2.91l.54,5.19a3.27,3.27,0,1,1-6.5.68l-.55-5.19A3.28,3.28,0,0,1,163.61,89.54Z" style="fill: #63eabd"></path>
    <path d="M170.71,97.56,170.44,95a.22.22,0,0,0-.21-.17.19.19,0,0,0-.17.21l.27,2.57a5.84,5.84,0,1,1-11.61,1.22l-.27-2.57a.19.19,0,0,0-.38,0l.27,2.57a6.23,6.23,0,0,0,6.65,5.55l.46,4.41-2.37.24a.19.19,0,0,0,0,.38l5.13-.54a.19.19,0,1,0,0-.37l-2.36.25-.47-4.41A6.23,6.23,0,0,0,170.71,97.56Z" style="fill: #63eabd"></path>
    <path d="M129.72,126.71l-1.11-13a.19.19,0,0,0-.3-.14L123,117.26a5.14,5.14,0,0,0-5.42-4c-.17,0-11.72,1-11.85,1a5.11,5.11,0,0,0-4.66,5.52l.47,5.53a5.12,5.12,0,0,0,5.53,4.66l11.85-1a5.13,5.13,0,0,0,4.67-4.85l5.87,2.75A.18.18,0,0,0,129.72,126.71Zm-10.84,1.9c-.1,0-11.73,1-11.85,1a4.73,4.73,0,0,1-5.12-4.31l-.47-5.53a4.73,4.73,0,0,1,4.31-5.12l11.85-1a4.76,4.76,0,0,1,5.12,4.32l.47,5.52A4.75,4.75,0,0,1,118.88,128.61Zm4.7-4.88c0-.11-.5-6-.52-6.06l5.2-3.63,1.06,12.38Z" style="fill: #63eabd"></path>
    <path d="M17.4,87.5a.19.19,0,0,1,0-.38l3.95-.4a.19.19,0,1,1,0,.38Z" style="fill: #63eabd"></path>
    <path d="M28.38,86.38a.19.19,0,0,1,0-.38l4-.4a.19.19,0,0,1,0,.38Z" style="fill: #63eabd"></path>
    <path d="M24.32,83.06l-.4-4a.19.19,0,1,1,.37,0l.41,4A.19.19,0,0,1,24.32,83.06Z" style="fill: #63eabd"></path>
    <path d="M25.44,94l-.4-4a.19.19,0,0,1,.37,0l.41,4A.19.19,0,0,1,25.44,94Z" style="fill: #63eabd"></path>
    <path d="M22.13,84.51c-.1,0,.11.15-3.2-2.56-.2-.16.05-.45.23-.29l3.09,2.51A.19.19,0,0,1,22.13,84.51Z" style="fill: #63eabd"></path>
    <path d="M30.69,91.48c-.1,0,.1.14-3.2-2.55a.19.19,0,1,1,.23-.29l3.09,2.51A.19.19,0,0,1,30.69,91.48Z" style="fill: #63eabd"></path>
    <path d="M27.1,84a.19.19,0,0,1-.15-.31l2.52-3.08c.15-.2.44,0,.29.24C27,84.19,27.22,84,27.1,84Z" style="fill: #63eabd"></path>
    <path d="M20.12,92.56a.19.19,0,0,1-.14-.31l2.51-3.08a.19.19,0,1,1,.29.24C20.05,92.75,20.25,92.56,20.12,92.56Z" style="fill: #63eabd"></path>
    <path d="M61.94,39.07a2.64,2.64,0,0,1,3.82-3.64,2.64,2.64,0,1,1-3.82,3.64Zm.35-3.45a2.26,2.26,0,1,0,3.12,3.27,2.26,2.26,0,1,0-3.12-3.27Z" style="fill: #63eabd"></path>
    <path d="M172.6,11.22l-5,.41-.42-5a.19.19,0,0,0-.37,0l.42,5-5,.41a.19.19,0,0,0,0,.38l5-.42.41,5a.19.19,0,0,0,.38,0l-.42-5,5-.42A.19.19,0,1,0,172.6,11.22Z" style="fill: #63eabd"></path>
    <path d="M130.22,58.61c-.27-.39-1.11-.24-2.45.43-.25.13-1.24.63-2.09,1.09.53-.62,1.06-1.22,1.57-1.74,1.44-1.45,2-2.4,1.68-2.81-.12-.15-.47-.59-3.05.92a46.18,46.18,0,0,0-7.68,6.56c-1.7,1.79-1.06-3.19-1.24-4.33s-.33-1.82-.76-1.85-.75.43-1.43,2.72c-.33,1.09-1.65,4.45-4.28,10.91a14.91,14.91,0,0,0-1.49.1c-.38,0,.14.62-4.38,10.86l-.75,1.73C94.43,67.1,92.58,65.49,80.38,64.77a1.41,1.41,0,0,1-1.17-1c.58.08,3.08-.07,3.62-.85s.69-2.16-.15-6.1a1.62,1.62,0,0,0,.45-2.77,1.63,1.63,0,0,0-.14-3,1.62,1.62,0,0,0-1.14-2.65,1.62,1.62,0,0,0-2-2.06,1.62,1.62,0,0,0-2.65-1.23,1.69,1.69,0,0,0-3-.31,1.62,1.62,0,0,0-2.84.67A1.61,1.61,0,0,0,69,47.14a1.62,1.62,0,0,0-1.66,2.36,1.63,1.63,0,0,0-.73,2.86,1.62,1.62,0,0,0,.15,2.94,1.62,1.62,0,0,0,1.16,2.64,1.62,1.62,0,0,0,2,2.05,1.62,1.62,0,0,0,2.65,1.22,1.59,1.59,0,0,0,1.71,1.1c-2.44,2.9-4.35,2.77-9.12,4.89a10.08,10.08,0,0,0-3.81,3c-.16-1.74-.24-3.17-.23-4,0-2.18-.2-2.68-.53-2.75s-.73.52-1.17,1.41-1.25,5.33-2.17,3.45a41.51,41.51,0,0,0-4.92-7.77c-1.64-1.8-2.16-1.79-2.41-1.61-.72.51.69,2.73,1.55,4.73-.62-.63-1.34-1.32-1.45-1.43-1-1-1.68-1.3-2-1a.43.43,0,0,0-.07.56c.55,1,1.53,2.44,2.2,3.57-.53-.37-1.78-1.2-2.21-.73a.44.44,0,0,0,0,.57c2.1,2.64,3.55,3.35,5.78,8,.09.56.17,2,.24,3.32-.76.19-1.3.35-1.36.37a.2.2,0,0,0-.13.2c.71,8.62,2.16,14.51,4.57,18.52a5.44,5.44,0,0,0,6.91,2.34,19.32,19.32,0,0,0-6.28,8.5c-2.25,6.08-9.79,13.51-10.68,14.37-11-10.34-11.72-11.06-11.83-11.13a2,2,0,0,0-1.91-.39l-5-6.1c-3.72-5.29-26.45,13.57-23,18.33,0,0,0,0,0,0A3.48,3.48,0,0,0,8,122.67c2.56,0,6.07-1.72,9.31-2.63,1.89-.52,3.76-1.15,5.51-.58a1.81,1.81,0,0,0,.39,1.72c.09.1,0,0,19.81,17.13a7.51,7.51,0,0,0,10.08-.25c4.67-4.12,15.44-13.65,19.64-17.37.17.22.34.44.52.64a17,17,0,0,1,4,11.49l-8.68,24.87c0,.13,0,.2.12.26.48.3,1,.59,1.44.87-1.84,4.34-3.91,9-4.46,10.25s-.16,3.24.17,4.53a43.9,43.9,0,0,0,7,14c2.25,3.19,6.35,8.19,8.23,4.78,1.39-2.52.27-8-1.2-11.58-3.38-8.32.9-14.71,1.82-17.87.6.1,1.21.18,1.83.25a.28.28,0,0,0,.3-.18c.51-1.42,8.82-24.8,8.85-24.89a28.11,28.11,0,0,0,1.23-9.79C93.7,116,93.29,107.6,89.6,95c1-2,.76-8.42.67-10.48a88.24,88.24,0,0,0,10,11.55,7.52,7.52,0,0,0,12-2.19c2.71-5.72,6.31-14.47,7.54-20.29a.2.2,0,0,0-.08-.2l-.78-.49c.63-1.72,1.09-2.94,1.36-3.48,3.83-4.18,5.76-4.58,8.73-6.61a.47.47,0,0,0,.19-.57c-.31-.63-2-.13-2.64.08,1-.92,2.65-2.24,3.56-3.11A.45.45,0,0,0,130.22,58.61ZM73.84,63.33c.61-.61,3.86-4.69,4.39-5.37a.2.2,0,0,0,0-.24c-1.82-2-.5-3.33.44-2,.64.9,1.77.75,1.27-1.85a10.25,10.25,0,0,0,1.47-.79c1.57,6.14,1.73,8.34,1.28,9.35s-3.27-.79-4.27-1.52a.18.18,0,0,0-.29.19c.32,1.52.59,3.64,1.9,4-5.67,2.72-8.58.89-9.3.31A9.34,9.34,0,0,0,73.84,63.33ZM51.57,68.77c-.94-1.25-3.38-3.76-3.41-4,.05,0,.49-.07,1.68.74a4.05,4.05,0,0,1,1.1,1.24C51.55,68,52.43,69.6,53,71.05A22.93,22.93,0,0,0,51.57,68.77Zm-.3-2.18a28.69,28.69,0,0,0-1.8-3.06,21.64,21.64,0,0,1-1.26-2.11s.49,0,1.53,1c.15.15,1.5,1.44,2.11,2.11a24,24,0,0,1,1.68,6.79A47.21,47.21,0,0,0,51.27,66.59Zm-.34-5c-1-1.82-.88-2.37-.81-2.41S50.49,59,52,60.72a41.61,41.61,0,0,1,5.83,9.8.19.19,0,1,0,.34-.15c-.18-.44-.38-.88-.58-1.32,1.17.17,1.69-3.23,2.12-4.11.14-.28.58-1.17.74-1.21s.26.28.24,2.39c0,1,.09,2.55.27,4.49a15.64,15.64,0,0,0-2.36,5.31,13.11,13.11,0,0,0-4.34.44C54,70.74,53.71,67,50.93,61.57Zm11,38.62a5.48,5.48,0,0,1,2.37.56c-1.58,1.1-3.05,4.5-3.27,5l-3.42,1.62A19.91,19.91,0,0,1,61.94,100.19Zm-38.8,19c-1.91-.69-3.8-.07-5.9.52-3.44,1-7.14,2.82-9.66,2.58,6.14-.72,21-13.34,20.92-18.16.58.72,5.25,6.36,6.56,8-1.11,3.31-5.83,8.07-9.21,9A7,7,0,0,0,23.14,119.16Zm1.22,2.49c4.23.45,11.8-7.82,11.29-11l4.13,3.89c-2.09,5.89-5.58,9.57-10.67,11.24Zm28.52,16.14a7.32,7.32,0,0,1-3.44,1.81A7.14,7.14,0,0,1,43.29,138l-13.85-12a15.72,15.72,0,0,0,6.13-3.78l8.4,7.35a7.51,7.51,0,0,0,9.91,0l15.83-14,.2,7.16Zm24.77-5.2a17.47,17.47,0,0,0-4.08-11.51,21.73,21.73,0,0,1-4.85-11.46.19.19,0,1,0-.37,0,18.3,18.3,0,0,0,1.31,5.46l-16,14.21a7.14,7.14,0,0,1-9.42,0L35.83,122a20.19,20.19,0,0,0,4.25-7.2L49.82,124c.17.17.43-.11.25-.28L47.22,121c.89-.86,7.37-7.27,10.15-13.06,4.06-1.92,4-1.84,4-1.94s1.76-4.29,3.42-5.11a.19.19,0,0,0,0-.33,6.6,6.6,0,0,0-2.48-.76,22.49,22.49,0,0,1,4.34-3.37c.14-.09.13-.13.13-.28,5.27,1.58,13.06,1,18.46,0,2.35,9.22,3.32,19.28,4.12,32.49A22.25,22.25,0,0,1,88.29,137c-.74,2.28-3,9.38-5.93,18.74a27.46,27.46,0,0,1-11-4.84C78,131.94,77.63,133,77.65,132.59Zm1.91,48.35c1.55,3.79,2.32,8.41,1.42,10.8.41-5.77-10.92-25.08-14.58-23.36.83-1.87,2.53-5.74,4.07-9.37a34.22,34.22,0,0,0,10.88,3.86C80.45,165.89,76.16,172.59,79.56,180.94Zm4-18.14A34,34,0,0,1,69,157.68l2.24-6.41a26.32,26.32,0,0,0,14.56,5.21Zm10-34.47a28,28,0,0,1-1.2,9.62c-.21.61-3.89,11-6.45,18.15a24.1,24.1,0,0,1-3.18-.3c1.48-4.67,5.32-16.86,5.9-18.66a22.67,22.67,0,0,0,1.1-8.54c-.81-13.23-1.78-23.3-4.13-32.55,1.23-.24,2.46-.52,3.66-.84C92.92,107.71,93.33,116.08,93.57,128.33Zm25.81-54.7c-1.25,5.79-4.8,14.42-7.48,20.08a7.13,7.13,0,0,1-11.42,2.07,92.59,92.59,0,0,1-13-15.92.19.19,0,0,0-.34.15L90,88.76c0,2.37-.18,4.95-.69,6.06C81.21,97,72,97.38,66.79,95.76c0-6.22-3.08-18.79-3.11-18.92a.19.19,0,1,0-.36.09c0,.12,3,12.13,3.09,18.42h0c-2.34,3.37-7,3.53-9.08,0-2.37-3.94-3.8-9.73-4.5-18.21.71-.22,4-1.11,5.71-.84a38.18,38.18,0,0,0-.17,13.82.18.18,0,1,0,.36-.07c0-.18-3.34-18.09,6.58-22.5,2.31-1,3.5-1.37,5-2a5.87,5.87,0,0,0,4.11,1.38,13.84,13.84,0,0,0,6.27-1.77c12.32.76,13.75,2.62,24.39,20.88a.19.19,0,0,0,.33-.19c-.46-.77-.89-1.52-1.32-2.24.58-1.52,3.37-7.28,5-12.65A15.18,15.18,0,0,1,119.38,73.63Zm-.79-.94a15.43,15.43,0,0,0-7.7-2.18c2.64-6.46,3.91-9.7,4.24-10.8.68-2.27,1-2.45,1-2.46s.36,1.18.42,1.54c.17,1.09-.41,4.9.91,5-.36.4-.72.82-1.07,1.24a.19.19,0,0,0,.29.24,46.05,46.05,0,0,1,9.35-8.46c2.24-1.32,2.56-1,2.56-1s-.07.72-1.64,2.32C122.27,62.92,120.74,66.9,118.59,72.69Zm8.24-10.07c1.78-.55,2-.23,2-.23s0,.06-.07.1c-2.95,2-4.17,2.13-7.33,5.18a64,64,0,0,1,4.46-4.77Zm1-1.95a54.68,54.68,0,0,0-6.92,7A26.55,26.55,0,0,1,125,60.92c.82-.48,2.58-1.37,2.92-1.54,1.67-.84,2-.56,2-.56A19.6,19.6,0,0,1,127.88,60.67Z" style="fill: #35a079"></path>
  </g></g></g></svg>