<svg width="263" height="266" viewBox="0 0 263 266" fill="none" xmlns="http://www.w3.org/2000/svg">
<circle cx="131.5" cy="134.5" r="131.5" fill="#8EA9FF" fill-opacity="0.17"/>
<line x1="107.492" y1="0.911387" x2="154.492" y2="261.911" stroke="#0F1145"/>
<path d="M24.2 162.648C21.788 162.648 19.7 162.216 17.936 161.352C16.172 160.452 14.714 159.174 13.562 157.518C12.41 155.862 11.546 153.828 10.97 151.416C10.43 149.004 10.16 146.25 10.16 143.154C10.16 140.094 10.43 137.358 10.97 134.946C11.546 132.498 12.41 130.446 13.562 128.79C14.714 127.134 16.172 125.874 17.936 125.01C19.7 124.11 21.788 123.66 24.2 123.66C28.988 123.66 32.516 125.37 34.784 128.79C37.088 132.21 38.24 136.998 38.24 143.154C38.24 149.31 37.088 154.098 34.784 157.518C32.516 160.938 28.988 162.648 24.2 162.648ZM24.2 156.654C26.612 156.654 28.286 155.754 29.222 153.954C30.194 152.118 30.68 149.652 30.68 146.556V139.752C30.68 136.656 30.194 134.208 29.222 132.408C28.286 130.572 26.612 129.654 24.2 129.654C21.788 129.654 20.096 130.572 19.124 132.408C18.188 134.208 17.72 136.656 17.72 139.752V146.556C17.72 149.652 18.188 152.118 19.124 153.954C20.096 155.754 21.788 156.654 24.2 156.654ZM48.5249 162.594C47.0489 162.594 45.9509 162.234 45.2309 161.514C44.5469 160.758 44.2049 159.804 44.2049 158.652V157.68C44.2049 156.528 44.5469 155.574 45.2309 154.818C45.9509 154.062 47.0489 153.684 48.5249 153.684C50.0369 153.684 51.1349 154.062 51.8189 154.818C52.5029 155.574 52.8449 156.528 52.8449 157.68V158.652C52.8449 159.804 52.5029 160.758 51.8189 161.514C51.1349 162.234 50.0369 162.594 48.5249 162.594ZM72.9156 162.648C70.5036 162.648 68.4156 162.216 66.6516 161.352C64.8876 160.452 63.4296 159.174 62.2776 157.518C61.1256 155.862 60.2616 153.828 59.6856 151.416C59.1456 149.004 58.8756 146.25 58.8756 143.154C58.8756 140.094 59.1456 137.358 59.6856 134.946C60.2616 132.498 61.1256 130.446 62.2776 128.79C63.4296 127.134 64.8876 125.874 66.6516 125.01C68.4156 124.11 70.5036 123.66 72.9156 123.66C77.7036 123.66 81.2316 125.37 83.4996 128.79C85.8036 132.21 86.9556 136.998 86.9556 143.154C86.9556 149.31 85.8036 154.098 83.4996 157.518C81.2316 160.938 77.7036 162.648 72.9156 162.648ZM72.9156 156.654C75.3276 156.654 77.0016 155.754 77.9376 153.954C78.9096 152.118 79.3956 149.652 79.3956 146.556V139.752C79.3956 136.656 78.9096 134.208 77.9376 132.408C77.0016 130.572 75.3276 129.654 72.9156 129.654C70.5036 129.654 68.8116 130.572 67.8396 132.408C66.9036 134.208 66.4356 136.656 66.4356 139.752V146.556C66.4356 149.652 66.9036 152.118 67.8396 153.954C68.8116 155.754 70.5036 156.654 72.9156 156.654ZM117.005 130.464H100.049L99.1845 143.1H99.5625C99.9585 142.308 100.391 141.57 100.859 140.886C101.327 140.202 101.867 139.626 102.479 139.158C103.091 138.69 103.793 138.33 104.585 138.078C105.413 137.79 106.403 137.646 107.555 137.646C109.175 137.646 110.687 137.916 112.091 138.456C113.495 138.996 114.701 139.788 115.709 140.832C116.753 141.84 117.563 143.082 118.139 144.558C118.751 146.034 119.057 147.708 119.057 149.58C119.057 151.488 118.751 153.234 118.139 154.818C117.527 156.402 116.627 157.788 115.439 158.976C114.251 160.128 112.793 161.028 111.065 161.676C109.337 162.324 107.357 162.648 105.125 162.648C103.397 162.648 101.849 162.45 100.481 162.054C99.1125 161.694 97.9065 161.19 96.8625 160.542C95.8185 159.894 94.9185 159.156 94.1625 158.328C93.4065 157.464 92.7405 156.564 92.1645 155.628L97.3485 151.632C97.7805 152.352 98.2305 153.036 98.6985 153.684C99.1665 154.296 99.7065 154.836 100.319 155.304C100.967 155.772 101.669 156.15 102.425 156.438C103.217 156.69 104.135 156.816 105.179 156.816C107.303 156.816 108.905 156.222 109.985 155.034C111.101 153.846 111.659 152.226 111.659 150.174V149.742C111.659 147.798 111.101 146.268 109.985 145.152C108.869 144.036 107.321 143.478 105.341 143.478C103.793 143.478 102.533 143.784 101.561 144.396C100.589 144.972 99.8145 145.602 99.2385 146.286L93.4065 145.476L94.8105 124.308H117.005V130.464Z" fill="#73FFCD"/>
<path d="M157.5 128.54C155.49 128.54 153.75 128.18 152.28 127.46C150.81 126.71 149.595 125.645 148.635 124.265C147.675 122.885 146.955 121.19 146.475 119.18C146.025 117.17 145.8 114.875 145.8 112.295C145.8 109.745 146.025 107.465 146.475 105.455C146.955 103.415 147.675 101.705 148.635 100.325C149.595 98.945 150.81 97.895 152.28 97.175C153.75 96.425 155.49 96.05 157.5 96.05C161.49 96.05 164.43 97.475 166.32 100.325C168.24 103.175 169.2 107.165 169.2 112.295C169.2 117.425 168.24 121.415 166.32 124.265C164.43 127.115 161.49 128.54 157.5 128.54ZM157.5 123.545C159.51 123.545 160.905 122.795 161.685 121.295C162.495 119.765 162.9 117.71 162.9 115.13V109.46C162.9 106.88 162.495 104.84 161.685 103.34C160.905 101.81 159.51 101.045 157.5 101.045C155.49 101.045 154.08 101.81 153.27 103.34C152.49 104.84 152.1 106.88 152.1 109.46V115.13C152.1 117.71 152.49 119.765 153.27 121.295C154.08 122.795 155.49 123.545 157.5 123.545ZM177.787 128.495C176.557 128.495 175.642 128.195 175.042 127.595C174.472 126.965 174.187 126.17 174.187 125.21V124.4C174.187 123.44 174.472 122.645 175.042 122.015C175.642 121.385 176.557 121.07 177.787 121.07C179.047 121.07 179.962 121.385 180.532 122.015C181.102 122.645 181.387 123.44 181.387 124.4V125.21C181.387 126.17 181.102 126.965 180.532 127.595C179.962 128.195 179.047 128.495 177.787 128.495ZM198.13 128.54C196.12 128.54 194.38 128.18 192.91 127.46C191.44 126.71 190.225 125.645 189.265 124.265C188.305 122.885 187.585 121.19 187.105 119.18C186.655 117.17 186.43 114.875 186.43 112.295C186.43 109.745 186.655 107.465 187.105 105.455C187.585 103.415 188.305 101.705 189.265 100.325C190.225 98.945 191.44 97.895 192.91 97.175C194.38 96.425 196.12 96.05 198.13 96.05C202.12 96.05 205.06 97.475 206.95 100.325C208.87 103.175 209.83 107.165 209.83 112.295C209.83 117.425 208.87 121.415 206.95 124.265C205.06 127.115 202.12 128.54 198.13 128.54ZM198.13 123.545C200.14 123.545 201.535 122.795 202.315 121.295C203.125 119.765 203.53 117.71 203.53 115.13V109.46C203.53 106.88 203.125 104.84 202.315 103.34C201.535 101.81 200.14 101.045 198.13 101.045C196.12 101.045 194.71 101.81 193.9 103.34C193.12 104.84 192.73 106.88 192.73 109.46V115.13C192.73 117.71 193.12 119.765 193.9 121.295C194.71 122.795 196.12 123.545 198.13 123.545ZM227.372 128V121.925H213.152V116.885L225.662 96.59H232.997V117.335H237.092V121.925H232.997V128H227.372ZM218.012 117.335H227.372V102.35H227.012L218.012 117.335Z" fill="#FFBEBE"/>
</svg>
