<svg width="263" height="264" viewBox="0 0 263 264" fill="none" xmlns="http://www.w3.org/2000/svg">
<circle cx="131.5" cy="132.5" r="131.5" fill="#8EA9FF" fill-opacity="0.17"/>
<line x1="129.5" y1="0.996198" x2="131.5" y2="263.996" stroke="#0F1145"/>
<path d="M36.1 151.804C33.1073 151.804 30.5167 151.268 28.328 150.196C26.1393 149.079 24.3303 147.494 22.901 145.439C21.4717 143.384 20.3997 140.861 19.685 137.868C19.015 134.875 18.68 131.458 18.68 127.617C18.68 123.82 19.015 120.426 19.685 117.433C20.3997 114.396 21.4717 111.85 22.901 109.795C24.3303 107.74 26.1393 106.177 28.328 105.105C30.5167 103.988 33.1073 103.43 36.1 103.43C42.0407 103.43 46.418 105.552 49.232 109.795C52.0907 114.038 53.52 119.979 53.52 127.617C53.52 135.255 52.0907 141.196 49.232 145.439C46.418 149.682 42.0407 151.804 36.1 151.804ZM36.1 144.367C39.0927 144.367 41.1697 143.25 42.331 141.017C43.537 138.739 44.14 135.679 44.14 131.838V123.396C44.14 119.555 43.537 116.517 42.331 114.284C41.1697 112.006 39.0927 110.867 36.1 110.867C33.1073 110.867 31.008 112.006 29.802 114.284C28.6407 116.517 28.06 119.555 28.06 123.396V131.838C28.06 135.679 28.6407 138.739 29.802 141.017C31.008 143.25 33.1073 144.367 36.1 144.367ZM66.2568 151.737C64.4255 151.737 63.0632 151.29 62.1698 150.397C61.3212 149.459 60.8968 148.275 60.8968 146.846V145.64C60.8968 144.211 61.3212 143.027 62.1698 142.089C63.0632 141.151 64.4255 140.682 66.2568 140.682C68.1328 140.682 69.4952 141.151 70.3438 142.089C71.1925 143.027 71.6168 144.211 71.6168 145.64V146.846C71.6168 148.275 71.1925 149.459 70.3438 150.397C69.4952 151.29 68.1328 151.737 66.2568 151.737ZM99.7113 151V141.955H78.5393V134.451L97.1653 104.234H108.086V135.121H114.183V141.955H108.086V151H99.7113ZM85.7753 135.121H99.7113V112.81H99.1753L85.7753 135.121Z" fill="#73FFCD"/>
<path d="M163.1 151.804C160.107 151.804 157.517 151.268 155.328 150.196C153.139 149.079 151.33 147.494 149.901 145.439C148.472 143.384 147.4 140.861 146.685 137.868C146.015 134.875 145.68 131.458 145.68 127.617C145.68 123.82 146.015 120.426 146.685 117.433C147.4 114.396 148.472 111.85 149.901 109.795C151.33 107.74 153.139 106.177 155.328 105.105C157.517 103.988 160.107 103.43 163.1 103.43C169.041 103.43 173.418 105.552 176.232 109.795C179.091 114.038 180.52 119.979 180.52 127.617C180.52 135.255 179.091 141.196 176.232 145.439C173.418 149.682 169.041 151.804 163.1 151.804ZM163.1 144.367C166.093 144.367 168.17 143.25 169.331 141.017C170.537 138.739 171.14 135.679 171.14 131.838V123.396C171.14 119.555 170.537 116.517 169.331 114.284C168.17 112.006 166.093 110.867 163.1 110.867C160.107 110.867 158.008 112.006 156.802 114.284C155.641 116.517 155.06 119.555 155.06 123.396V131.838C155.06 135.679 155.641 138.739 156.802 141.017C158.008 143.25 160.107 144.367 163.1 144.367ZM193.257 151.737C191.425 151.737 190.063 151.29 189.17 150.397C188.321 149.459 187.897 148.275 187.897 146.846V145.64C187.897 144.211 188.321 143.027 189.17 142.089C190.063 141.151 191.425 140.682 193.257 140.682C195.133 140.682 196.495 141.151 197.344 142.089C198.192 143.027 198.617 144.211 198.617 145.64V146.846C198.617 148.275 198.192 149.459 197.344 150.397C196.495 151.29 195.133 151.737 193.257 151.737ZM226.711 151V141.955H205.539V134.451L224.165 104.234H235.086V135.121H241.183V141.955H235.086V151H226.711ZM212.775 135.121H226.711V112.81H226.175L212.775 135.121Z" fill="#FFBEBE"/>
</svg>
