<svg width="263" height="263" viewBox="0 0 263 263" fill="none" xmlns="http://www.w3.org/2000/svg">
<circle cx="131.5" cy="131.5" r="131.5" fill="#8EA9FF" fill-opacity="0.17"/>
<line x1="171.462" y1="8.19028" x2="71.4624" y2="251.19" stroke="#0F1145"/>
<path d="M42.34 102.88C45.14 102.88 47.1933 102.32 48.5 101.2C49.8533 100.033 50.53 98.5633 50.53 96.79V96.3C50.53 94.2933 49.8767 92.73 48.57 91.61C47.31 90.4433 45.56 89.86 43.32 89.86C41.1733 89.86 39.26 90.3733 37.58 91.4C35.9467 92.4267 34.5233 93.8733 33.31 95.74L27.43 90.42C28.27 89.3 29.18 88.25 30.16 87.27C31.1867 86.2433 32.3533 85.38 33.66 84.68C34.9667 83.9333 36.4367 83.35 38.07 82.93C39.7033 82.51 41.5467 82.3 43.6 82.3C46.0733 82.3 48.3133 82.6033 50.32 83.21C52.3733 83.77 54.1233 84.61 55.57 85.73C57.0633 86.85 58.2067 88.2033 59 89.79C59.7933 91.33 60.19 93.08 60.19 95.04C60.19 96.6267 59.9333 98.05 59.42 99.31C58.9533 100.57 58.2767 101.667 57.39 102.6C56.55 103.533 55.5467 104.303 54.38 104.91C53.26 105.47 52.07 105.89 50.81 106.17V106.59C52.21 106.87 53.54 107.313 54.8 107.92C56.06 108.527 57.1333 109.343 58.02 110.37C58.9533 111.35 59.6767 112.517 60.19 113.87C60.75 115.223 61.03 116.763 61.03 118.49C61.03 120.637 60.5867 122.597 59.7 124.37C58.86 126.143 57.6467 127.66 56.06 128.92C54.4733 130.18 52.5833 131.16 50.39 131.86C48.1967 132.513 45.7467 132.84 43.04 132.84C40.66 132.84 38.56 132.583 36.74 132.07C34.92 131.603 33.31 130.95 31.91 130.11C30.5567 129.27 29.3667 128.313 28.34 127.24C27.3133 126.12 26.4267 124.953 25.68 123.74L32.47 118.56C33.03 119.54 33.6367 120.45 34.29 121.29C34.9433 122.083 35.69 122.783 36.53 123.39C37.37 123.997 38.3267 124.463 39.4 124.79C40.4733 125.117 41.6867 125.28 43.04 125.28C45.7467 125.28 47.8233 124.627 49.27 123.32C50.7167 122.013 51.44 120.217 51.44 117.93V117.44C51.44 115.2 50.6467 113.497 49.06 112.33C47.52 111.163 45.28 110.58 42.34 110.58H37.51V102.88H42.34ZM87.0727 132.84C83.946 132.84 81.2393 132.28 78.9527 131.16C76.666 129.993 74.776 128.337 73.2827 126.19C71.7893 124.043 70.6693 121.407 69.9227 118.28C69.2227 115.153 68.8727 111.583 68.8727 107.57C68.8727 103.603 69.2227 100.057 69.9227 96.93C70.6693 93.7567 71.7893 91.0967 73.2827 88.95C74.776 86.8033 76.666 85.17 78.9527 84.05C81.2393 82.8833 83.946 82.3 87.0727 82.3C93.2793 82.3 97.8527 84.5167 100.793 88.95C103.779 93.3833 105.273 99.59 105.273 107.57C105.273 115.55 103.779 121.757 100.793 126.19C97.8527 130.623 93.2793 132.84 87.0727 132.84ZM87.0727 125.07C90.1993 125.07 92.3693 123.903 93.5827 121.57C94.8427 119.19 95.4727 115.993 95.4727 111.98V103.16C95.4727 99.1467 94.8427 95.9733 93.5827 93.64C92.3693 91.26 90.1993 90.07 87.0727 90.07C83.946 90.07 81.7527 91.26 80.4927 93.64C79.2793 95.9733 78.6727 99.1467 78.6727 103.16V111.98C78.6727 115.993 79.2793 119.19 80.4927 121.57C81.7527 123.903 83.946 125.07 87.0727 125.07Z" fill="#73FFCD"/>
<path d="M159.008 140.056C162.368 140.056 164.832 139.384 166.4 138.04C168.024 136.64 168.836 134.876 168.836 132.748V132.16C168.836 129.752 168.052 127.876 166.484 126.532C164.972 125.132 162.872 124.432 160.184 124.432C157.608 124.432 155.312 125.048 153.296 126.28C151.336 127.512 149.628 129.248 148.172 131.488L141.116 125.104C142.124 123.76 143.216 122.5 144.392 121.324C145.624 120.092 147.024 119.056 148.592 118.216C150.16 117.32 151.924 116.62 153.884 116.116C155.844 115.612 158.056 115.36 160.52 115.36C163.488 115.36 166.176 115.724 168.584 116.452C171.048 117.124 173.148 118.132 174.884 119.476C176.676 120.82 178.048 122.444 179 124.348C179.952 126.196 180.428 128.296 180.428 130.648C180.428 132.552 180.12 134.26 179.504 135.772C178.944 137.284 178.132 138.6 177.068 139.72C176.06 140.84 174.856 141.764 173.456 142.492C172.112 143.164 170.684 143.668 169.172 144.004V144.508C170.852 144.844 172.448 145.376 173.96 146.104C175.472 146.832 176.76 147.812 177.824 149.044C178.944 150.22 179.812 151.62 180.428 153.244C181.1 154.868 181.436 156.716 181.436 158.788C181.436 161.364 180.904 163.716 179.84 165.844C178.832 167.972 177.376 169.792 175.472 171.304C173.568 172.816 171.3 173.992 168.668 174.832C166.036 175.616 163.096 176.008 159.848 176.008C156.992 176.008 154.472 175.7 152.288 175.084C150.104 174.524 148.172 173.74 146.492 172.732C144.868 171.724 143.44 170.576 142.208 169.288C140.976 167.944 139.912 166.544 139.016 165.088L147.164 158.872C147.836 160.048 148.564 161.14 149.348 162.148C150.132 163.1 151.028 163.94 152.036 164.668C153.044 165.396 154.192 165.956 155.48 166.348C156.768 166.74 158.224 166.936 159.848 166.936C163.096 166.936 165.588 166.152 167.324 164.584C169.06 163.016 169.928 160.86 169.928 158.116V157.528C169.928 154.84 168.976 152.796 167.072 151.396C165.224 149.996 162.536 149.296 159.008 149.296H153.212V140.056H159.008ZM212.919 176.008C209.559 176.008 206.563 175.476 203.931 174.412C201.299 173.292 199.059 171.752 197.211 169.792C195.363 167.776 193.963 165.368 193.011 162.568C192.059 159.712 191.583 156.52 191.583 152.992C191.583 148.792 192.199 144.844 193.431 141.148C194.719 137.396 196.371 133.98 198.387 130.9C200.403 127.764 202.643 124.992 205.107 122.584C207.627 120.12 210.119 118.048 212.583 116.368H227.535C224.063 118.832 220.955 121.212 218.211 123.508C215.523 125.804 213.143 128.128 211.071 130.48C209.055 132.832 207.375 135.296 206.031 137.872C204.743 140.392 203.763 143.136 203.091 146.104L203.763 146.272C204.323 145.152 204.967 144.088 205.695 143.08C206.479 142.016 207.403 141.092 208.467 140.308C209.531 139.468 210.763 138.824 212.163 138.376C213.563 137.872 215.187 137.62 217.035 137.62C219.443 137.62 221.683 138.04 223.755 138.88C225.883 139.72 227.703 140.952 229.215 142.576C230.783 144.144 231.987 146.048 232.827 148.288C233.723 150.528 234.171 153.02 234.171 155.764C234.171 158.732 233.667 161.448 232.659 163.912C231.651 166.376 230.223 168.504 228.375 170.296C226.527 172.088 224.287 173.488 221.655 174.496C219.079 175.504 216.167 176.008 212.919 176.008ZM212.919 167.272C215.999 167.272 218.407 166.432 220.143 164.752C221.935 163.016 222.831 160.552 222.831 157.36V156.1C222.831 152.908 221.935 150.472 220.143 148.792C218.407 147.056 215.999 146.188 212.919 146.188C209.783 146.188 207.347 147.056 205.611 148.792C203.875 150.472 203.007 152.908 203.007 156.1V157.36C203.007 160.552 203.875 163.016 205.611 164.752C207.347 166.432 209.783 167.272 212.919 167.272Z" fill="#FFBEBE"/>
</svg>
