<svg width="263" height="263" viewBox="0 0 263 263" fill="none" xmlns="http://www.w3.org/2000/svg">
<circle cx="131.5" cy="131.5" r="131.5" fill="#8EA9FF" fill-opacity="0.17"/>
<line x1="172.454" y1="8.20989" x2="61.4538" y2="248.21" stroke="#0F1145"/>
<path d="M31 111.6C28.7667 111.6 26.8333 111.2 25.2 110.4C23.5667 109.567 22.2167 108.383 21.15 106.85C20.0833 105.317 19.2833 103.433 18.75 101.2C18.25 98.9667 18 96.4167 18 93.55C18 90.7167 18.25 88.1833 18.75 85.95C19.2833 83.6833 20.0833 81.7833 21.15 80.25C22.2167 78.7167 23.5667 77.55 25.2 76.75C26.8333 75.9167 28.7667 75.5 31 75.5C35.4333 75.5 38.7 77.0833 40.8 80.25C42.9333 83.4167 44 87.85 44 93.55C44 99.25 42.9333 103.683 40.8 106.85C38.7 110.017 35.4333 111.6 31 111.6ZM31 106.05C33.2333 106.05 34.7833 105.217 35.65 103.55C36.55 101.85 37 99.5667 37 96.7V90.4C37 87.5333 36.55 85.2667 35.65 83.6C34.7833 81.9 33.2333 81.05 31 81.05C28.7667 81.05 27.2 81.9 26.3 83.6C25.4333 85.2667 25 87.5333 25 90.4V96.7C25 99.5667 25.4333 101.85 26.3 103.55C27.2 105.217 28.7667 106.05 31 106.05ZM53.5305 111.55C52.1638 111.55 51.1471 111.217 50.4805 110.55C49.8471 109.85 49.5305 108.967 49.5305 107.9V107C49.5305 105.933 49.8471 105.05 50.4805 104.35C51.1471 103.65 52.1638 103.3 53.5305 103.3C54.9305 103.3 55.9471 103.65 56.5805 104.35C57.2138 105.05 57.5305 105.933 57.5305 107V107.9C57.5305 108.967 57.2138 109.85 56.5805 110.55C55.9471 111.217 54.9305 111.55 53.5305 111.55ZM76.1219 111.6C73.8885 111.6 71.9552 111.2 70.3219 110.4C68.6885 109.567 67.3385 108.383 66.2719 106.85C65.2052 105.317 64.4052 103.433 63.8719 101.2C63.3719 98.9667 63.1219 96.4167 63.1219 93.55C63.1219 90.7167 63.3719 88.1833 63.8719 85.95C64.4052 83.6833 65.2052 81.7833 66.2719 80.25C67.3385 78.7167 68.6885 77.55 70.3219 76.75C71.9552 75.9167 73.8885 75.5 76.1219 75.5C80.5552 75.5 83.8219 77.0833 85.9219 80.25C88.0552 83.4167 89.1219 87.85 89.1219 93.55C89.1219 99.25 88.0552 103.683 85.9219 106.85C83.8219 110.017 80.5552 111.6 76.1219 111.6ZM76.1219 106.05C78.3552 106.05 79.9052 105.217 80.7719 103.55C81.6719 101.85 82.1219 99.5667 82.1219 96.7V90.4C82.1219 87.5333 81.6719 85.2667 80.7719 83.6C79.9052 81.9 78.3552 81.05 76.1219 81.05C73.8885 81.05 72.3219 81.9 71.4219 83.6C70.5552 85.2667 70.1219 87.5333 70.1219 90.4V96.7C70.1219 99.5667 70.5552 101.85 71.4219 103.55C72.3219 105.217 73.8885 106.05 76.1219 106.05ZM116.952 81.8H101.252L100.452 93.5H100.802C101.169 92.7667 101.569 92.0833 102.002 91.45C102.436 90.8167 102.936 90.2833 103.502 89.85C104.069 89.4167 104.719 89.0833 105.452 88.85C106.219 88.5833 107.136 88.45 108.202 88.45C109.702 88.45 111.102 88.7 112.402 89.2C113.702 89.7 114.819 90.4333 115.752 91.4C116.719 92.3333 117.469 93.4833 118.002 94.85C118.569 96.2167 118.852 97.7667 118.852 99.5C118.852 101.267 118.569 102.883 118.002 104.35C117.436 105.817 116.602 107.1 115.502 108.2C114.402 109.267 113.052 110.1 111.452 110.7C109.852 111.3 108.019 111.6 105.952 111.6C104.352 111.6 102.919 111.417 101.652 111.05C100.386 110.717 99.269 110.25 98.3023 109.65C97.3357 109.05 96.5023 108.367 95.8023 107.6C95.1023 106.8 94.4857 105.967 93.9523 105.1L98.7523 101.4C99.1523 102.067 99.569 102.7 100.002 103.3C100.436 103.867 100.936 104.367 101.502 104.8C102.102 105.233 102.752 105.583 103.452 105.85C104.186 106.083 105.036 106.2 106.002 106.2C107.969 106.2 109.452 105.65 110.452 104.55C111.486 103.45 112.002 101.95 112.002 100.05V99.65C112.002 97.85 111.486 96.4333 110.452 95.4C109.419 94.3667 107.986 93.85 106.152 93.85C104.719 93.85 103.552 94.1333 102.652 94.7C101.752 95.2333 101.036 95.8167 100.502 96.45L95.1023 95.7L96.4023 76.1H116.952V81.8Z" fill="#73FFCD"/>
<path d="M140.6 167.744C137.831 167.744 135.433 167.248 133.408 166.256C131.383 165.223 129.709 163.755 128.386 161.854C127.063 159.953 126.071 157.617 125.41 154.848C124.79 152.079 124.48 148.917 124.48 145.362C124.48 141.849 124.79 138.707 125.41 135.938C126.071 133.127 127.063 130.771 128.386 128.87C129.709 126.969 131.383 125.522 133.408 124.53C135.433 123.497 137.831 122.98 140.6 122.98C146.097 122.98 150.148 124.943 152.752 128.87C155.397 132.797 156.72 138.294 156.72 145.362C156.72 152.43 155.397 157.927 152.752 161.854C150.148 165.781 146.097 167.744 140.6 167.744ZM140.6 160.862C143.369 160.862 145.291 159.829 146.366 157.762C147.482 155.654 148.04 152.823 148.04 149.268V141.456C148.04 137.901 147.482 135.091 146.366 133.024C145.291 130.916 143.369 129.862 140.6 129.862C137.831 129.862 135.888 130.916 134.772 133.024C133.697 135.091 133.16 137.901 133.16 141.456V149.268C133.16 152.823 133.697 155.654 134.772 157.762C135.888 159.829 137.831 160.862 140.6 160.862ZM168.514 167.682C166.819 167.682 165.558 167.269 164.732 166.442C163.946 165.574 163.554 164.479 163.554 163.156V162.04C163.554 160.717 163.946 159.622 164.732 158.754C165.558 157.886 166.819 157.452 168.514 157.452C170.25 157.452 171.51 157.886 172.296 158.754C173.081 159.622 173.474 160.717 173.474 162.04V163.156C173.474 164.479 173.081 165.574 172.296 166.442C171.51 167.269 170.25 167.682 168.514 167.682ZM196.503 167.744C193.734 167.744 191.336 167.248 189.311 166.256C187.286 165.223 185.612 163.755 184.289 161.854C182.966 159.953 181.974 157.617 181.313 154.848C180.693 152.079 180.383 148.917 180.383 145.362C180.383 141.849 180.693 138.707 181.313 135.938C181.974 133.127 182.966 130.771 184.289 128.87C185.612 126.969 187.286 125.522 189.311 124.53C191.336 123.497 193.734 122.98 196.503 122.98C202 122.98 206.051 124.943 208.655 128.87C211.3 132.797 212.623 138.294 212.623 145.362C212.623 152.43 211.3 157.927 208.655 161.854C206.051 165.781 202 167.744 196.503 167.744ZM196.503 160.862C199.272 160.862 201.194 159.829 202.269 157.762C203.385 155.654 203.943 152.823 203.943 149.268V141.456C203.943 137.901 203.385 135.091 202.269 133.024C201.194 130.916 199.272 129.862 196.503 129.862C193.734 129.862 191.791 130.916 190.675 133.024C189.6 135.091 189.063 137.901 189.063 141.456V149.268C189.063 152.823 189.6 155.654 190.675 157.762C191.791 159.829 193.734 160.862 196.503 160.862ZM233.779 167.744C231.258 167.744 229.005 167.434 227.021 166.814C225.078 166.153 223.425 165.264 222.061 164.148C220.738 163.032 219.726 161.709 219.023 160.18C218.32 158.651 217.969 156.977 217.969 155.158C217.969 152.347 218.734 150.074 220.263 148.338C221.834 146.561 223.921 145.321 226.525 144.618V144.122C224.376 143.337 222.619 142.117 221.255 140.464C219.932 138.811 219.271 136.723 219.271 134.202C219.271 132.549 219.581 131.04 220.201 129.676C220.862 128.312 221.813 127.134 223.053 126.142C224.293 125.15 225.802 124.385 227.579 123.848C229.398 123.269 231.464 122.98 233.779 122.98C236.094 122.98 238.14 123.269 239.917 123.848C241.736 124.385 243.265 125.15 244.505 126.142C245.745 127.134 246.675 128.312 247.295 129.676C247.956 131.04 248.287 132.549 248.287 134.202C248.287 136.723 247.605 138.811 246.241 140.464C244.918 142.117 243.182 143.337 241.033 144.122V144.618C243.637 145.321 245.704 146.561 247.233 148.338C248.804 150.074 249.589 152.347 249.589 155.158C249.589 156.977 249.238 158.651 248.535 160.18C247.832 161.709 246.799 163.032 245.435 164.148C244.112 165.264 242.459 166.153 240.475 166.814C238.532 167.434 236.3 167.744 233.779 167.744ZM233.779 161.358C236.135 161.358 237.933 160.821 239.173 159.746C240.454 158.671 241.095 157.163 241.095 155.22V153.918C241.095 151.975 240.454 150.467 239.173 149.392C237.933 148.317 236.135 147.78 233.779 147.78C231.423 147.78 229.604 148.317 228.323 149.392C227.083 150.467 226.463 151.975 226.463 153.918V155.22C226.463 157.163 227.083 158.671 228.323 159.746C229.604 160.821 231.423 161.358 233.779 161.358ZM233.779 141.704C235.97 141.704 237.644 141.208 238.801 140.216C239.958 139.224 240.537 137.819 240.537 136V135.008C240.537 133.231 239.958 131.846 238.801 130.854C237.644 129.862 235.97 129.366 233.779 129.366C231.588 129.366 229.914 129.862 228.757 130.854C227.6 131.846 227.021 133.231 227.021 135.008V136C227.021 137.819 227.6 139.224 228.757 140.216C229.914 141.208 231.588 141.704 233.779 141.704Z" fill="#FFBEBE"/>
</svg>
