<svg width="416" height="568" viewBox="0 0 416 568" fill="none" xmlns="http://www.w3.org/2000/svg">
<g opacity="0.2">
<path d="M96.1662 176.809C94.2904 177.73 91.8259 177.088 90.6633 175.375C89.5006 173.662 90.079 171.525 91.9548 170.604C93.8306 169.682 96.2951 170.325 97.4577 172.038C98.6075 173.732 98.042 175.887 96.1662 176.809Z" fill="url(#paint0_linear_3_367)"/>
<path d="M14.6301 212.701L15.346 213.775L92.3485 175.278L91.6326 174.204L14.6301 212.701Z" fill="url(#paint1_linear_3_367)"/>
<path d="M92.6545 361.508C90.7787 362.43 88.3142 361.787 87.1516 360.074C85.9889 358.361 86.5673 356.225 88.4431 355.303C90.3188 354.382 92.7833 355.024 93.946 356.737C95.1086 358.45 94.5302 360.587 92.6545 361.508Z" fill="url(#paint2_linear_3_367)"/>
<path d="M11.1307 397.42L11.8466 398.493L88.8705 359.986L88.1546 358.912L11.1307 397.42Z" fill="url(#paint3_linear_3_367)"/>
<path d="M149.35 177.007C147.474 177.929 145.009 177.286 143.847 175.573C142.684 173.86 143.262 171.723 145.138 170.802C147.014 169.881 149.478 170.523 150.641 172.236C151.804 173.949 151.225 176.086 149.35 177.007Z" fill="url(#paint4_linear_3_367)"/>
<path d="M67.8135 212.9L68.5294 213.974L145.532 175.477L144.816 174.403L67.8135 212.9Z" fill="url(#paint5_linear_3_367)"/>
<path d="M63.658 116.678C61.7822 117.599 59.3177 116.957 58.155 115.244C56.9924 113.531 57.5708 111.394 59.4466 110.473C61.3223 109.552 63.7868 110.194 64.9495 111.907C66.0992 113.601 65.5337 115.757 63.658 116.678Z" fill="url(#paint6_linear_3_367)"/>
<path d="M20.6474 133.288L21.3629 134.36L59.8402 115.145L59.1248 114.073L20.6474 133.288Z" fill="url(#paint7_linear_3_367)"/>
<path d="M166.868 222.77C164.992 223.691 162.527 223.049 161.365 221.336C160.202 219.623 160.78 217.486 162.656 216.565C164.532 215.643 166.996 216.286 168.159 217.999C169.322 219.712 168.743 221.849 166.868 222.77Z" fill="url(#paint8_linear_3_367)"/>
<path d="M85.3438 258.681L86.0597 259.755L163.084 221.247L162.368 220.173L85.3438 258.681Z" fill="url(#paint9_linear_3_367)"/>
<path d="M95.7026 395.141C93.8269 396.062 91.3624 395.42 90.1997 393.707C89.0371 391.994 89.6155 389.857 91.4912 388.936C93.367 388.015 95.8315 388.657 96.9941 390.37C98.1568 392.083 97.5784 394.22 95.7026 395.141Z" fill="url(#paint10_linear_3_367)"/>
<path d="M14.1879 431.023L14.9039 432.097L91.9063 393.6L91.1904 392.526L14.1879 431.023Z" fill="url(#paint11_linear_3_367)"/>
<path d="M67.9992 156.195C66.1235 157.116 63.659 156.474 62.4963 154.761C61.3337 153.048 61.9121 150.911 63.7878 149.99C65.6636 149.069 68.1281 149.711 69.2907 151.424C70.4742 153.127 69.8958 155.264 67.9992 156.195Z" fill="url(#paint12_linear_3_367)"/>
<path d="M-13.5031 192.096L-12.7872 193.169L64.2366 154.662L63.5207 153.588L-13.5031 192.096Z" fill="url(#paint13_linear_3_367)"/>
<path d="M109.575 470.612C107.699 471.533 105.235 470.891 104.072 469.178C102.91 467.465 103.488 465.328 105.364 464.407C107.24 463.486 109.704 464.128 110.867 465.841C112.029 467.554 111.451 469.691 109.575 470.612Z" fill="url(#paint14_linear_3_367)"/>
<path d="M28.0514 506.524L28.7673 507.597L105.791 469.089L105.075 468.016L28.0514 506.524Z" fill="url(#paint15_linear_3_367)"/>
<path d="M359.224 204.792C357.348 205.713 354.884 205.071 353.721 203.358C352.558 201.645 353.137 199.508 355.012 198.587C356.888 197.665 359.353 198.308 360.515 200.021C361.699 201.723 361.1 203.87 359.224 204.792Z" fill="url(#paint16_linear_3_367)"/>
<path d="M88.8821 335.217L89.5983 336.292L355.44 203.27L354.724 202.195L88.8821 335.217Z" fill="url(#paint17_linear_3_367)"/>
<path d="M390.757 280.429C388.881 281.35 386.417 280.708 385.254 278.995C384.092 277.282 384.67 275.145 386.546 274.224C388.422 273.302 390.886 273.945 392.049 275.658C393.232 277.361 392.654 279.497 390.757 280.429Z" fill="url(#paint18_linear_3_367)"/>
<path d="M-21.8204 482.027L-21.1041 483.102L386.982 278.878L386.266 277.803L-21.8204 482.027Z" fill="url(#paint19_linear_3_367)"/>
<path d="M121.572 152.735C119.696 153.656 117.231 153.014 116.069 151.301C114.906 149.588 115.484 147.451 117.36 146.53C119.236 145.609 121.7 146.251 122.863 147.964C124.026 149.677 123.447 151.814 121.572 152.735Z" fill="url(#paint20_linear_3_367)"/>
<path d="M-148.77 283.16L-148.054 284.235L117.788 151.214L117.071 150.139L-148.77 283.16Z" fill="url(#paint21_linear_3_367)"/>
<path d="M253.76 195.208C251.884 196.13 249.42 195.487 248.257 193.774C247.095 192.061 247.673 189.924 249.549 189.003C251.425 188.082 253.889 188.724 255.052 190.437C256.235 192.14 255.636 194.287 253.76 195.208Z" fill="url(#paint22_linear_3_367)"/>
<path d="M-16.5726 325.604L-15.8563 326.679L249.985 193.658L249.269 192.583L-16.5726 325.604Z" fill="url(#paint23_linear_3_367)"/>
<path d="M314.461 329.259C312.585 330.18 310.12 329.538 308.958 327.825C307.795 326.112 308.374 323.975 310.249 323.054C312.125 322.133 314.59 322.775 315.752 324.488C316.915 326.201 316.336 328.338 314.461 329.259Z" fill="url(#paint24_linear_3_367)"/>
<path d="M44.119 459.684L44.8353 460.759L310.677 327.737L309.961 326.662L44.119 459.684Z" fill="url(#paint25_linear_3_367)"/>
<path d="M4.87574 234.406C2.99998 235.327 0.535477 234.685 -0.627177 232.972C-1.78983 231.259 -1.21142 229.122 0.664343 228.201C2.54011 227.28 5.0046 227.922 6.16725 229.635C7.35075 231.338 6.77234 233.475 4.87574 234.406Z" fill="url(#paint26_linear_3_367)"/>
<path d="M-146.691 305.353L-145.975 306.428L1.07939 232.866L0.36325 231.791L-146.691 305.353Z" fill="url(#paint27_linear_3_367)"/>
<path d="M172.849 329.803C170.973 330.724 168.509 330.082 167.346 328.369C166.184 326.656 166.762 324.519 168.638 323.598C170.514 322.677 172.978 323.319 174.141 325.032C175.303 326.745 174.725 328.882 172.849 329.803Z" fill="url(#paint28_linear_3_367)"/>
<path d="M21.2823 400.75L21.9984 401.824L169.053 328.263L168.337 327.188L21.2823 400.75Z" fill="url(#paint29_linear_3_367)"/>
</g>
<defs>
<linearGradient id="paint0_linear_3_367" x1="74.9237" y1="183.087" x2="21.0211" y2="219.67" gradientUnits="userSpaceOnUse">
<stop stop-color="#A4FFFF"/>
<stop offset="1" stop-color="#A4FFFF" stop-opacity="0"/>
</linearGradient>
<linearGradient id="paint1_linear_3_367" x1="74.3935" y1="183.544" x2="18.4598" y2="220.837" gradientUnits="userSpaceOnUse">
<stop stop-color="#A4FFFF"/>
<stop offset="1" stop-color="#A4FFFF" stop-opacity="0"/>
</linearGradient>
<linearGradient id="paint2_linear_3_367" x1="71.4195" y1="367.801" x2="17.5016" y2="404.396" gradientUnits="userSpaceOnUse">
<stop stop-color="#A4FFFF"/>
<stop offset="1" stop-color="#A4FFFF" stop-opacity="0"/>
</linearGradient>
<linearGradient id="paint3_linear_3_367" x1="70.8978" y1="368.256" x2="14.9613" y2="405.551" gradientUnits="userSpaceOnUse">
<stop stop-color="#A4FFFF"/>
<stop offset="1" stop-color="#A4FFFF" stop-opacity="0"/>
</linearGradient>
<linearGradient id="paint4_linear_3_367" x1="128.117" y1="183.284" x2="74.2291" y2="219.858" gradientUnits="userSpaceOnUse">
<stop stop-color="#A4FFFF"/>
<stop offset="1" stop-color="#A4FFFF" stop-opacity="0"/>
</linearGradient>
<linearGradient id="paint5_linear_3_367" x1="127.583" y1="183.744" x2="71.6494" y2="221.037" gradientUnits="userSpaceOnUse">
<stop stop-color="#A4FFFF"/>
<stop offset="1" stop-color="#A4FFFF" stop-opacity="0"/>
</linearGradient>
<linearGradient id="paint6_linear_3_367" x1="42.4143" y1="122.956" x2="-11.4883" y2="159.539" gradientUnits="userSpaceOnUse">
<stop stop-color="#A4FFFF"/>
<stop offset="1" stop-color="#A4FFFF" stop-opacity="0"/>
</linearGradient>
<linearGradient id="paint7_linear_3_367" x1="50.6995" y1="119.002" x2="22.769" y2="137.646" gradientUnits="userSpaceOnUse">
<stop stop-color="#A4FFFF"/>
<stop offset="1" stop-color="#A4FFFF" stop-opacity="0"/>
</linearGradient>
<linearGradient id="paint8_linear_3_367" x1="145.635" y1="229.05" x2="91.7325" y2="265.634" gradientUnits="userSpaceOnUse">
<stop stop-color="#A4FFFF"/>
<stop offset="1" stop-color="#A4FFFF" stop-opacity="0"/>
</linearGradient>
<linearGradient id="paint9_linear_3_367" x1="145.107" y1="229.508" x2="89.1721" y2="266.803" gradientUnits="userSpaceOnUse">
<stop stop-color="#A4FFFF"/>
<stop offset="1" stop-color="#A4FFFF" stop-opacity="0"/>
</linearGradient>
<linearGradient id="paint10_linear_3_367" x1="74.469" y1="401.419" x2="20.5669" y2="438.003" gradientUnits="userSpaceOnUse">
<stop stop-color="#A4FFFF"/>
<stop offset="1" stop-color="#A4FFFF" stop-opacity="0"/>
</linearGradient>
<linearGradient id="paint11_linear_3_367" x1="73.9429" y1="401.878" x2="18.0093" y2="439.171" gradientUnits="userSpaceOnUse">
<stop stop-color="#A4FFFF"/>
<stop offset="1" stop-color="#A4FFFF" stop-opacity="0"/>
</linearGradient>
<linearGradient id="paint12_linear_3_367" x1="46.7732" y1="162.477" x2="-7.1454" y2="199.072" gradientUnits="userSpaceOnUse">
<stop stop-color="#A4FFFF"/>
<stop offset="1" stop-color="#A4FFFF" stop-opacity="0"/>
</linearGradient>
<linearGradient id="paint13_linear_3_367" x1="46.2497" y1="162.93" x2="-9.68455" y2="200.224" gradientUnits="userSpaceOnUse">
<stop stop-color="#A4FFFF"/>
<stop offset="1" stop-color="#A4FFFF" stop-opacity="0"/>
</linearGradient>
<linearGradient id="paint14_linear_3_367" x1="88.3359" y1="476.898" x2="34.4342" y2="513.482" gradientUnits="userSpaceOnUse">
<stop stop-color="#A4FFFF"/>
<stop offset="1" stop-color="#A4FFFF" stop-opacity="0"/>
</linearGradient>
<linearGradient id="paint15_linear_3_367" x1="87.8072" y1="477.355" x2="31.872" y2="514.649" gradientUnits="userSpaceOnUse">
<stop stop-color="#A4FFFF"/>
<stop offset="1" stop-color="#A4FFFF" stop-opacity="0"/>
</linearGradient>
<linearGradient id="paint16_linear_3_367" x1="323.815" y1="218.037" x2="227.821" y2="283.189" gradientUnits="userSpaceOnUse">
<stop stop-color="#A4FFFF"/>
<stop offset="1" stop-color="#A4FFFF" stop-opacity="0"/>
</linearGradient>
<linearGradient id="paint17_linear_3_367" x1="295.882" y1="232.345" x2="112.456" y2="354.537" gradientUnits="userSpaceOnUse">
<stop stop-color="#A4FFFF"/>
<stop offset="1" stop-color="#A4FFFF" stop-opacity="0"/>
</linearGradient>
<linearGradient id="paint18_linear_3_367" x1="355.35" y1="293.667" x2="259.355" y2="358.819" gradientUnits="userSpaceOnUse">
<stop stop-color="#A4FFFF"/>
<stop offset="1" stop-color="#A4FFFF" stop-opacity="0"/>
</linearGradient>
<linearGradient id="paint19_linear_3_367" x1="295.742" y1="323.832" x2="14.15" y2="511.394" gradientUnits="userSpaceOnUse">
<stop stop-color="#A4FFFF"/>
<stop offset="1" stop-color="#A4FFFF" stop-opacity="0"/>
</linearGradient>
<linearGradient id="paint20_linear_3_367" x1="86.1645" y1="165.99" x2="-9.83085" y2="231.142" gradientUnits="userSpaceOnUse">
<stop stop-color="#A4FFFF"/>
<stop offset="1" stop-color="#A4FFFF" stop-opacity="0"/>
</linearGradient>
<linearGradient id="paint21_linear_3_367" x1="58.2311" y1="180.299" x2="-125.195" y2="302.49" gradientUnits="userSpaceOnUse">
<stop stop-color="#A4FFFF"/>
<stop offset="1" stop-color="#A4FFFF" stop-opacity="0"/>
</linearGradient>
<linearGradient id="paint22_linear_3_367" x1="218.349" y1="208.449" x2="122.354" y2="273.6" gradientUnits="userSpaceOnUse">
<stop stop-color="#A4FFFF"/>
<stop offset="1" stop-color="#A4FFFF" stop-opacity="0"/>
</linearGradient>
<linearGradient id="paint23_linear_3_367" x1="190.415" y1="222.759" x2="6.98974" y2="344.949" gradientUnits="userSpaceOnUse">
<stop stop-color="#A4FFFF"/>
<stop offset="1" stop-color="#A4FFFF" stop-opacity="0"/>
</linearGradient>
<linearGradient id="paint24_linear_3_367" x1="279.049" y1="342.506" x2="183.055" y2="407.659" gradientUnits="userSpaceOnUse">
<stop stop-color="#A4FFFF"/>
<stop offset="1" stop-color="#A4FFFF" stop-opacity="0"/>
</linearGradient>
<linearGradient id="paint25_linear_3_367" x1="251.117" y1="356.815" x2="67.6906" y2="479.007" gradientUnits="userSpaceOnUse">
<stop stop-color="#A4FFFF"/>
<stop offset="1" stop-color="#A4FFFF" stop-opacity="0"/>
</linearGradient>
<linearGradient id="paint26_linear_3_367" x1="-30.5409" y1="247.652" x2="-126.566" y2="312.824" gradientUnits="userSpaceOnUse">
<stop stop-color="#A4FFFF"/>
<stop offset="1" stop-color="#A4FFFF" stop-opacity="0"/>
</linearGradient>
<linearGradient id="paint27_linear_3_367" x1="-32.0099" y1="248.716" x2="-133.462" y2="316.319" gradientUnits="userSpaceOnUse">
<stop stop-color="#A4FFFF"/>
<stop offset="1" stop-color="#A4FFFF" stop-opacity="0"/>
</linearGradient>
<linearGradient id="paint28_linear_3_367" x1="137.436" y1="343.046" x2="41.4698" y2="408.178" gradientUnits="userSpaceOnUse">
<stop stop-color="#A4FFFF"/>
<stop offset="1" stop-color="#A4FFFF" stop-opacity="0"/>
</linearGradient>
<linearGradient id="paint29_linear_3_367" x1="135.947" y1="344.12" x2="34.4952" y2="411.723" gradientUnits="userSpaceOnUse">
<stop stop-color="#A4FFFF"/>
<stop offset="1" stop-color="#A4FFFF" stop-opacity="0"/>
</linearGradient>
</defs>
</svg>
