<svg width="532" height="568" viewBox="0 0 532 568" fill="none" xmlns="http://www.w3.org/2000/svg">
<g opacity="0.2">
<path d="M212.166 390.289C210.29 389.368 207.826 390.01 206.663 391.723C205.501 393.436 206.079 395.573 207.955 396.494C209.83 397.415 212.295 396.773 213.458 395.06C214.607 393.366 214.042 391.21 212.166 390.289Z" fill="url(#paint0_linear_3_434)"/>
<path d="M130.63 354.396L131.346 353.322L208.348 391.82L207.632 392.893L130.63 354.396Z" fill="url(#paint1_linear_3_434)"/>
<path d="M208.654 205.589C206.779 204.668 204.314 205.31 203.151 207.023C201.989 208.736 202.567 210.873 204.443 211.794C206.319 212.716 208.783 212.073 209.946 210.36C211.109 208.647 210.53 206.511 208.654 205.589Z" fill="url(#paint2_linear_3_434)"/>
<path d="M127.131 169.678L127.847 168.604L204.871 207.112L204.155 208.186L127.131 169.678Z" fill="url(#paint3_linear_3_434)"/>
<path d="M101.624 202.141C99.748 201.22 97.2835 201.862 96.1209 203.575C94.9582 205.288 95.5366 207.425 97.4124 208.346C99.2881 209.267 101.753 208.625 102.915 206.912C104.078 205.199 103.5 203.062 101.624 202.141Z" fill="url(#paint4_linear_3_434)"/>
<path d="M20.0877 166.248L20.8036 165.175L97.8062 203.672L97.0902 204.745L20.0877 166.248Z" fill="url(#paint5_linear_3_434)"/>
<path d="M99.2069 241.211C97.3311 240.29 94.8666 240.932 93.704 242.645C92.5413 244.358 93.1198 246.495 94.9955 247.416C96.8713 248.337 99.3357 247.695 100.498 245.982C101.669 244.298 101.103 242.142 99.2069 241.211Z" fill="url(#paint6_linear_3_434)"/>
<path d="M17.6922 205.329L18.4081 204.255L95.4319 242.763L94.716 243.837L17.6922 205.329Z" fill="url(#paint7_linear_3_434)"/>
<path d="M265.35 390.09C263.474 389.169 261.009 389.811 259.847 391.524C258.684 393.237 259.262 395.374 261.138 396.295C263.014 397.216 265.478 396.574 266.641 394.861C267.804 393.148 267.225 391.012 265.35 390.09Z" fill="url(#paint8_linear_3_434)"/>
<path d="M183.813 354.197L184.529 353.124L261.532 391.621L260.816 392.695L183.813 354.197Z" fill="url(#paint9_linear_3_434)"/>
<path d="M9.76118 324.576C7.88541 323.655 5.42092 324.297 4.25826 326.01C3.09561 327.724 3.67402 329.86 5.54979 330.781C7.42556 331.703 9.89007 331.06 11.0527 329.347C12.2154 327.634 11.637 325.498 9.76118 324.576Z" fill="url(#paint10_linear_3_434)"/>
<path d="M-71.7411 288.676L-71.0252 287.602L5.97726 326.099L5.26135 327.173L-71.7411 288.676Z" fill="url(#paint11_linear_3_434)"/>
<path d="M61.9313 239.377C60.0555 238.455 57.591 239.098 56.4284 240.811C55.2657 242.524 55.8441 244.661 57.7199 245.582C59.5957 246.503 62.0602 245.861 63.2228 244.148C64.3855 242.435 63.8071 240.298 61.9313 239.377Z" fill="url(#paint12_linear_3_434)"/>
<path d="M18.9421 222.777L19.6576 221.705L58.135 240.92L57.4195 241.992L18.9421 222.777Z" fill="url(#paint13_linear_3_434)"/>
<path d="M179.658 450.419C177.782 449.498 175.318 450.14 174.155 451.854C172.992 453.567 173.571 455.703 175.446 456.625C177.322 457.546 179.787 456.904 180.949 455.191C182.099 453.497 181.534 451.341 179.658 450.419Z" fill="url(#paint14_linear_3_434)"/>
<path d="M136.647 433.809L137.363 432.738L175.84 451.952L175.125 453.024L136.647 433.809Z" fill="url(#paint15_linear_3_434)"/>
<path d="M53.8042 100.391C51.9285 99.4699 49.464 100.112 48.3014 101.825C47.1387 103.538 47.7171 105.675 49.5929 106.596C51.4686 107.517 53.9331 106.875 55.0957 105.162C56.2455 103.468 55.68 101.312 53.8042 100.391Z" fill="url(#paint16_linear_3_434)"/>
<path d="M10.8152 83.7916L11.5306 82.7197L50.0079 101.934L49.2924 103.006L10.8152 83.7916Z" fill="url(#paint17_linear_3_434)"/>
<path d="M91.3999 174.211C89.5241 173.29 87.0596 173.932 85.8969 175.645C84.7343 177.358 85.3127 179.495 87.1884 180.416C89.0642 181.338 91.5287 180.695 92.6914 178.982C93.854 177.269 93.2756 175.133 91.3999 174.211Z" fill="url(#paint18_linear_3_434)"/>
<path d="M48.3894 157.601L49.1049 156.529L87.5821 175.744L86.8666 176.816L48.3894 157.601Z" fill="url(#paint19_linear_3_434)"/>
<path d="M282.867 344.328C280.992 343.407 278.527 344.049 277.365 345.762C276.202 347.475 276.78 349.612 278.656 350.533C280.532 351.454 282.996 350.812 284.159 349.099C285.322 347.386 284.743 345.249 282.867 344.328Z" fill="url(#paint20_linear_3_434)"/>
<path d="M201.344 308.417L202.06 307.343L279.083 345.851L278.368 346.924L201.344 308.417Z" fill="url(#paint21_linear_3_434)"/>
<path d="M211.703 171.957C209.827 171.036 207.362 171.678 206.2 173.391C205.037 175.104 205.615 177.241 207.491 178.162C209.367 179.083 211.832 178.441 212.994 176.728C214.157 175.015 213.578 172.878 211.703 171.957Z" fill="url(#paint22_linear_3_434)"/>
<path d="M130.188 136.075L130.904 135.001L207.906 173.498L207.19 174.572L130.188 136.075Z" fill="url(#paint23_linear_3_434)"/>
<path d="M183.999 410.903C182.123 409.982 179.659 410.624 178.496 412.337C177.334 414.05 177.912 416.186 179.788 417.108C181.663 418.029 184.128 417.387 185.291 415.674C186.474 413.971 185.896 411.834 183.999 410.903Z" fill="url(#paint24_linear_3_434)"/>
<path d="M102.497 375.002L103.213 373.928L180.237 412.436L179.521 413.51L102.497 375.002Z" fill="url(#paint25_linear_3_434)"/>
<path d="M225.575 96.4854C223.699 95.5642 221.235 96.2064 220.072 97.9195C218.909 99.6326 219.488 101.769 221.364 102.691C223.239 103.612 225.704 102.97 226.867 101.257C228.029 99.5434 227.451 97.4067 225.575 96.4854Z" fill="url(#paint26_linear_3_434)"/>
<path d="M144.051 60.574L144.767 59.5002L221.791 98.008L221.075 99.0818L144.051 60.574Z" fill="url(#paint27_linear_3_434)"/>
<path d="M475.224 362.306C473.348 361.384 470.883 362.027 469.721 363.74C468.558 365.453 469.137 367.59 471.012 368.511C472.888 369.432 475.353 368.79 476.515 367.077C477.699 365.374 477.099 363.227 475.224 362.306Z" fill="url(#paint28_linear_3_434)"/>
<path d="M204.882 231.881L205.598 230.806L471.44 363.827L470.724 364.902L204.882 231.881Z" fill="url(#paint29_linear_3_434)"/>
<path d="M510.915 286.314C509.039 285.393 506.575 286.035 505.412 287.748C504.249 289.461 504.828 291.598 506.704 292.519C508.579 293.44 511.044 292.798 512.207 291.085C513.39 289.382 512.812 287.246 510.915 286.314Z" fill="url(#paint30_linear_3_434)"/>
<path d="M98.3374 84.7163L99.0536 83.6409L507.14 287.865L506.424 288.94L98.3374 84.7163Z" fill="url(#paint31_linear_3_434)"/>
<path d="M237.571 414.363C235.696 413.441 233.231 414.084 232.069 415.797C230.906 417.51 231.484 419.646 233.36 420.568C235.236 421.489 237.7 420.847 238.863 419.134C240.026 417.421 239.447 415.284 237.571 414.363Z" fill="url(#paint32_linear_3_434)"/>
<path d="M-32.7703 283.937L-32.054 282.862L233.788 415.884L233.071 416.959L-32.7703 283.937Z" fill="url(#paint33_linear_3_434)"/>
<path d="M369.76 371.889C367.884 370.968 365.42 371.61 364.257 373.323C363.095 375.036 363.673 377.173 365.549 378.094C367.424 379.016 369.889 378.373 371.052 376.66C372.235 374.958 371.636 372.811 369.76 371.889Z" fill="url(#paint34_linear_3_434)"/>
<path d="M99.4274 241.493L100.144 240.418L365.985 373.44L365.269 374.515L99.4274 241.493Z" fill="url(#paint35_linear_3_434)"/>
<path d="M430.461 237.839C428.585 236.917 426.12 237.56 424.958 239.273C423.795 240.986 424.374 243.123 426.249 244.044C428.125 244.965 430.59 244.323 431.752 242.61C432.915 240.897 432.336 238.76 430.461 237.839Z" fill="url(#paint36_linear_3_434)"/>
<path d="M160.119 107.414L160.835 106.338L426.677 239.36L425.96 240.435L160.119 107.414Z" fill="url(#paint37_linear_3_434)"/>
<path d="M120.876 332.692C119 331.77 116.535 332.413 115.373 334.126C114.21 335.839 114.789 337.975 116.664 338.897C118.54 339.818 121.005 339.176 122.167 337.463C123.351 335.76 122.772 333.623 120.876 332.692Z" fill="url(#paint38_linear_3_434)"/>
<path d="M-30.6914 261.745L-29.9753 260.67L117.079 334.232L116.363 335.307L-30.6914 261.745Z" fill="url(#paint39_linear_3_434)"/>
<path d="M288.849 237.295C286.973 236.373 284.509 237.016 283.346 238.729C282.184 240.442 282.762 242.579 284.638 243.5C286.514 244.421 288.978 243.779 290.141 242.066C291.303 240.353 290.725 238.216 288.849 237.295Z" fill="url(#paint40_linear_3_434)"/>
<path d="M137.282 166.348L137.998 165.273L285.053 238.835L284.337 239.91L137.282 166.348Z" fill="url(#paint41_linear_3_434)"/>
</g>
<defs>
<linearGradient id="paint0_linear_3_434" x1="190.924" y1="384.011" x2="137.02" y2="347.427" gradientUnits="userSpaceOnUse">
<stop stop-color="#A4FFFF"/>
<stop offset="1" stop-color="#A4FFFF" stop-opacity="0"/>
</linearGradient>
<linearGradient id="paint1_linear_3_434" x1="190.393" y1="383.554" x2="134.46" y2="346.261" gradientUnits="userSpaceOnUse">
<stop stop-color="#A4FFFF"/>
<stop offset="1" stop-color="#A4FFFF" stop-opacity="0"/>
</linearGradient>
<linearGradient id="paint2_linear_3_434" x1="187.419" y1="199.297" x2="133.501" y2="162.702" gradientUnits="userSpaceOnUse">
<stop stop-color="#A4FFFF"/>
<stop offset="1" stop-color="#A4FFFF" stop-opacity="0"/>
</linearGradient>
<linearGradient id="paint3_linear_3_434" x1="186.898" y1="198.842" x2="130.962" y2="161.547" gradientUnits="userSpaceOnUse">
<stop stop-color="#A4FFFF"/>
<stop offset="1" stop-color="#A4FFFF" stop-opacity="0"/>
</linearGradient>
<linearGradient id="paint4_linear_3_434" x1="80.3879" y1="195.864" x2="26.4848" y2="159.281" gradientUnits="userSpaceOnUse">
<stop stop-color="#A4FFFF"/>
<stop offset="1" stop-color="#A4FFFF" stop-opacity="0"/>
</linearGradient>
<linearGradient id="paint5_linear_3_434" x1="79.8594" y1="195.405" x2="23.9258" y2="158.112" gradientUnits="userSpaceOnUse">
<stop stop-color="#A4FFFF"/>
<stop offset="1" stop-color="#A4FFFF" stop-opacity="0"/>
</linearGradient>
<linearGradient id="paint6_linear_3_434" x1="77.9784" y1="234.941" x2="24.0742" y2="198.357" gradientUnits="userSpaceOnUse">
<stop stop-color="#A4FFFF"/>
<stop offset="1" stop-color="#A4FFFF" stop-opacity="0"/>
</linearGradient>
<linearGradient id="paint7_linear_3_434" x1="77.4516" y1="234.484" x2="21.5166" y2="197.19" gradientUnits="userSpaceOnUse">
<stop stop-color="#A4FFFF"/>
<stop offset="1" stop-color="#A4FFFF" stop-opacity="0"/>
</linearGradient>
<linearGradient id="paint8_linear_3_434" x1="244.117" y1="383.814" x2="190.23" y2="347.24" gradientUnits="userSpaceOnUse">
<stop stop-color="#A4FFFF"/>
<stop offset="1" stop-color="#A4FFFF" stop-opacity="0"/>
</linearGradient>
<linearGradient id="paint9_linear_3_434" x1="243.583" y1="383.354" x2="187.649" y2="346.061" gradientUnits="userSpaceOnUse">
<stop stop-color="#A4FFFF"/>
<stop offset="1" stop-color="#A4FFFF" stop-opacity="0"/>
</linearGradient>
<linearGradient id="paint10_linear_3_434" x1="-11.465" y1="318.289" x2="-65.3671" y2="281.706" gradientUnits="userSpaceOnUse">
<stop stop-color="#A4FFFF"/>
<stop offset="1" stop-color="#A4FFFF" stop-opacity="0"/>
</linearGradient>
<linearGradient id="paint11_linear_3_434" x1="-11.9937" y1="317.83" x2="-67.9273" y2="280.537" gradientUnits="userSpaceOnUse">
<stop stop-color="#A4FFFF"/>
<stop offset="1" stop-color="#A4FFFF" stop-opacity="0"/>
</linearGradient>
<linearGradient id="paint12_linear_3_434" x1="40.7026" y1="233.099" x2="-13.1995" y2="196.515" gradientUnits="userSpaceOnUse">
<stop stop-color="#A4FFFF"/>
<stop offset="1" stop-color="#A4FFFF" stop-opacity="0"/>
</linearGradient>
<linearGradient id="paint13_linear_3_434" x1="48.9876" y1="237.053" x2="21.0571" y2="218.41" gradientUnits="userSpaceOnUse">
<stop stop-color="#A4FFFF"/>
<stop offset="1" stop-color="#A4FFFF" stop-opacity="0"/>
</linearGradient>
<linearGradient id="paint14_linear_3_434" x1="158.414" y1="444.142" x2="104.511" y2="407.558" gradientUnits="userSpaceOnUse">
<stop stop-color="#A4FFFF"/>
<stop offset="1" stop-color="#A4FFFF" stop-opacity="0"/>
</linearGradient>
<linearGradient id="paint15_linear_3_434" x1="166.7" y1="448.096" x2="138.769" y2="429.452" gradientUnits="userSpaceOnUse">
<stop stop-color="#A4FFFF"/>
<stop offset="1" stop-color="#A4FFFF" stop-opacity="0"/>
</linearGradient>
<linearGradient id="paint16_linear_3_434" x1="32.5705" y1="94.1201" x2="-21.3306" y2="57.5365" gradientUnits="userSpaceOnUse">
<stop stop-color="#A4FFFF"/>
<stop offset="1" stop-color="#A4FFFF" stop-opacity="0"/>
</linearGradient>
<linearGradient id="paint17_linear_3_434" x1="40.8565" y1="98.0729" x2="12.9263" y2="79.4291" gradientUnits="userSpaceOnUse">
<stop stop-color="#A4FFFF"/>
<stop offset="1" stop-color="#A4FFFF" stop-opacity="0"/>
</linearGradient>
<linearGradient id="paint18_linear_3_434" x1="70.1516" y1="167.93" x2="16.2339" y2="131.334" gradientUnits="userSpaceOnUse">
<stop stop-color="#A4FFFF"/>
<stop offset="1" stop-color="#A4FFFF" stop-opacity="0"/>
</linearGradient>
<linearGradient id="paint19_linear_3_434" x1="78.4438" y1="171.886" x2="50.5133" y2="153.243" gradientUnits="userSpaceOnUse">
<stop stop-color="#A4FFFF"/>
<stop offset="1" stop-color="#A4FFFF" stop-opacity="0"/>
</linearGradient>
<linearGradient id="paint20_linear_3_434" x1="261.635" y1="338.047" x2="207.732" y2="301.464" gradientUnits="userSpaceOnUse">
<stop stop-color="#A4FFFF"/>
<stop offset="1" stop-color="#A4FFFF" stop-opacity="0"/>
</linearGradient>
<linearGradient id="paint21_linear_3_434" x1="261.107" y1="337.589" x2="205.172" y2="300.295" gradientUnits="userSpaceOnUse">
<stop stop-color="#A4FFFF"/>
<stop offset="1" stop-color="#A4FFFF" stop-opacity="0"/>
</linearGradient>
<linearGradient id="paint22_linear_3_434" x1="190.469" y1="165.678" x2="136.567" y2="129.095" gradientUnits="userSpaceOnUse">
<stop stop-color="#A4FFFF"/>
<stop offset="1" stop-color="#A4FFFF" stop-opacity="0"/>
</linearGradient>
<linearGradient id="paint23_linear_3_434" x1="189.943" y1="165.22" x2="134.009" y2="127.927" gradientUnits="userSpaceOnUse">
<stop stop-color="#A4FFFF"/>
<stop offset="1" stop-color="#A4FFFF" stop-opacity="0"/>
</linearGradient>
<linearGradient id="paint24_linear_3_434" x1="162.773" y1="404.621" x2="108.856" y2="368.026" gradientUnits="userSpaceOnUse">
<stop stop-color="#A4FFFF"/>
<stop offset="1" stop-color="#A4FFFF" stop-opacity="0"/>
</linearGradient>
<linearGradient id="paint25_linear_3_434" x1="162.25" y1="404.167" x2="106.315" y2="366.874" gradientUnits="userSpaceOnUse">
<stop stop-color="#A4FFFF"/>
<stop offset="1" stop-color="#A4FFFF" stop-opacity="0"/>
</linearGradient>
<linearGradient id="paint26_linear_3_434" x1="204.336" y1="90.1991" x2="150.433" y2="53.6155" gradientUnits="userSpaceOnUse">
<stop stop-color="#A4FFFF"/>
<stop offset="1" stop-color="#A4FFFF" stop-opacity="0"/>
</linearGradient>
<linearGradient id="paint27_linear_3_434" x1="203.807" y1="89.7426" x2="147.872" y2="52.4486" gradientUnits="userSpaceOnUse">
<stop stop-color="#A4FFFF"/>
<stop offset="1" stop-color="#A4FFFF" stop-opacity="0"/>
</linearGradient>
<linearGradient id="paint28_linear_3_434" x1="439.815" y1="349.06" x2="343.818" y2="283.909" gradientUnits="userSpaceOnUse">
<stop stop-color="#A4FFFF"/>
<stop offset="1" stop-color="#A4FFFF" stop-opacity="0"/>
</linearGradient>
<linearGradient id="paint29_linear_3_434" x1="411.882" y1="334.753" x2="228.455" y2="212.561" gradientUnits="userSpaceOnUse">
<stop stop-color="#A4FFFF"/>
<stop offset="1" stop-color="#A4FFFF" stop-opacity="0"/>
</linearGradient>
<linearGradient id="paint30_linear_3_434" x1="475.508" y1="273.076" x2="379.515" y2="207.923" gradientUnits="userSpaceOnUse">
<stop stop-color="#A4FFFF"/>
<stop offset="1" stop-color="#A4FFFF" stop-opacity="0"/>
</linearGradient>
<linearGradient id="paint31_linear_3_434" x1="415.9" y1="242.911" x2="134.308" y2="55.3487" gradientUnits="userSpaceOnUse">
<stop stop-color="#A4FFFF"/>
<stop offset="1" stop-color="#A4FFFF" stop-opacity="0"/>
</linearGradient>
<linearGradient id="paint32_linear_3_434" x1="202.165" y1="401.108" x2="106.17" y2="335.956" gradientUnits="userSpaceOnUse">
<stop stop-color="#A4FFFF"/>
<stop offset="1" stop-color="#A4FFFF" stop-opacity="0"/>
</linearGradient>
<linearGradient id="paint33_linear_3_434" x1="174.231" y1="386.799" x2="-9.19534" y2="264.608" gradientUnits="userSpaceOnUse">
<stop stop-color="#A4FFFF"/>
<stop offset="1" stop-color="#A4FFFF" stop-opacity="0"/>
</linearGradient>
<linearGradient id="paint34_linear_3_434" x1="334.349" y1="358.649" x2="238.354" y2="293.496" gradientUnits="userSpaceOnUse">
<stop stop-color="#A4FFFF"/>
<stop offset="1" stop-color="#A4FFFF" stop-opacity="0"/>
</linearGradient>
<linearGradient id="paint35_linear_3_434" x1="306.415" y1="344.339" x2="122.99" y2="222.148" gradientUnits="userSpaceOnUse">
<stop stop-color="#A4FFFF"/>
<stop offset="1" stop-color="#A4FFFF" stop-opacity="0"/>
</linearGradient>
<linearGradient id="paint36_linear_3_434" x1="395.049" y1="224.591" x2="299.053" y2="159.439" gradientUnits="userSpaceOnUse">
<stop stop-color="#A4FFFF"/>
<stop offset="1" stop-color="#A4FFFF" stop-opacity="0"/>
</linearGradient>
<linearGradient id="paint37_linear_3_434" x1="367.117" y1="210.282" x2="183.691" y2="88.0903" gradientUnits="userSpaceOnUse">
<stop stop-color="#A4FFFF"/>
<stop offset="1" stop-color="#A4FFFF" stop-opacity="0"/>
</linearGradient>
<linearGradient id="paint38_linear_3_434" x1="85.4592" y1="319.446" x2="-10.5642" y2="254.274" gradientUnits="userSpaceOnUse">
<stop stop-color="#A4FFFF"/>
<stop offset="1" stop-color="#A4FFFF" stop-opacity="0"/>
</linearGradient>
<linearGradient id="paint39_linear_3_434" x1="83.99" y1="318.382" x2="-17.4625" y2="250.778" gradientUnits="userSpaceOnUse">
<stop stop-color="#A4FFFF"/>
<stop offset="1" stop-color="#A4FFFF" stop-opacity="0"/>
</linearGradient>
<linearGradient id="paint40_linear_3_434" x1="253.436" y1="224.052" x2="157.469" y2="158.92" gradientUnits="userSpaceOnUse">
<stop stop-color="#A4FFFF"/>
<stop offset="1" stop-color="#A4FFFF" stop-opacity="0"/>
</linearGradient>
<linearGradient id="paint41_linear_3_434" x1="251.947" y1="222.978" x2="150.495" y2="155.375" gradientUnits="userSpaceOnUse">
<stop stop-color="#A4FFFF"/>
<stop offset="1" stop-color="#A4FFFF" stop-opacity="0"/>
</linearGradient>
</defs>
</svg>
