<svg width="398" height="495" viewBox="0 0 398 495" fill="none" xmlns="http://www.w3.org/2000/svg">
<g opacity="0.2">
<path d="M121.103 153.465C119.515 154.237 117.386 153.615 116.35 152.075C115.315 150.536 115.763 148.66 117.352 147.888C118.941 147.116 121.069 147.738 122.105 149.278C123.129 150.801 122.692 152.693 121.103 153.465Z" fill="url(#paint0_linear_3_367)"/>
<path d="M51.9546 183.363L52.5927 184.328L117.794 152.028L117.156 151.063L51.9546 183.363Z" fill="url(#paint1_linear_3_367)"/>
<path d="M122.211 316.597C120.622 317.369 118.493 316.747 117.458 315.207C116.422 313.668 116.871 311.792 118.459 311.02C120.048 310.248 122.177 310.87 123.212 312.41C124.248 313.95 123.799 315.825 122.211 316.597Z" fill="url(#paint2_linear_3_367)"/>
<path d="M53.073 346.512L53.7111 347.477L118.93 315.167L118.292 314.202L53.073 346.512Z" fill="url(#paint3_linear_3_367)"/>
<path d="M30.4666 317.257C28.878 318.029 26.7494 317.407 25.7137 315.867C24.6781 314.327 25.1266 312.452 26.7153 311.68C28.3039 310.908 30.4325 311.53 31.4682 313.07C32.5038 314.609 32.0553 316.485 30.4666 317.257Z" fill="url(#paint4_linear_3_367)"/>
<path d="M-38.682 347.155L-38.0439 348.12L27.1574 315.819L26.5192 314.854L-38.682 347.155Z" fill="url(#paint5_linear_3_367)"/>
<path d="M27.5216 282.679C25.933 283.451 23.8044 282.828 22.7687 281.289C21.7331 279.749 22.1816 277.874 23.7703 277.102C25.3589 276.329 27.4875 276.952 28.5232 278.492C29.565 280.006 29.1279 281.898 27.5216 282.679Z" fill="url(#paint6_linear_3_367)"/>
<path d="M-41.609 312.568L-40.9708 313.532L24.2485 281.223L23.6104 280.258L-41.609 312.568Z" fill="url(#paint7_linear_3_367)"/>
<path d="M166.734 154.827C165.145 155.599 163.016 154.977 161.981 153.437C160.945 151.897 161.394 150.022 162.982 149.25C164.571 148.478 166.699 149.1 167.735 150.64C168.771 152.18 168.322 154.055 166.734 154.827Z" fill="url(#paint8_linear_3_367)"/>
<path d="M97.5848 184.725L98.2229 185.69L163.424 153.389L162.786 152.425L97.5848 184.725Z" fill="url(#paint9_linear_3_367)"/>
<path d="M91.8733 99.6054C90.2847 100.378 88.1561 99.7552 87.1204 98.2155C86.0848 96.6758 86.5333 94.8006 88.122 94.0283C89.7106 93.2561 91.8392 93.8786 92.8749 95.4183C93.899 96.9409 93.462 98.8332 91.8733 99.6054Z" fill="url(#paint10_linear_3_367)"/>
<path d="M55.3453 113.324L55.983 114.287L88.5639 98.166L87.9262 97.2029L55.3453 113.324Z" fill="url(#paint11_linear_3_367)"/>
<path d="M22.3186 341.709C20.73 342.481 18.6014 341.858 17.5657 340.319C16.5301 338.779 16.9786 336.904 18.5673 336.132C20.1559 335.359 22.2846 335.982 23.3202 337.522C24.3558 339.061 23.9073 340.937 22.3186 341.709Z" fill="url(#paint12_linear_3_367)"/>
<path d="M-14.2093 355.427L-13.5716 356.39L19.0093 340.27L18.3716 339.307L-14.2093 355.427Z" fill="url(#paint13_linear_3_367)"/>
<path d="M182.783 195.656C181.194 196.428 179.066 195.806 178.03 194.266C176.994 192.726 177.443 190.851 179.032 190.079C180.62 189.307 182.749 189.929 183.784 191.469C184.82 193.009 184.372 194.884 182.783 195.656Z" fill="url(#paint14_linear_3_367)"/>
<path d="M113.645 225.571L114.283 226.535L179.503 194.226L178.864 193.261L113.645 225.571Z" fill="url(#paint15_linear_3_367)"/>
<path d="M125.576 346.385C123.987 347.157 121.859 346.534 120.823 344.995C119.787 343.455 120.236 341.58 121.825 340.808C123.413 340.035 125.542 340.658 126.578 342.198C127.613 343.737 127.165 345.613 125.576 346.385Z" fill="url(#paint16_linear_3_367)"/>
<path d="M56.4454 376.274L57.0835 377.239L122.285 344.938L121.647 343.973L56.4454 376.274Z" fill="url(#paint17_linear_3_367)"/>
<path d="M96.4792 134.622C94.8905 135.394 92.7619 134.771 91.7263 133.232C90.6906 131.692 91.1392 129.817 92.7278 129.045C94.3165 128.272 96.4451 128.895 97.4807 130.434C98.534 131.966 98.0855 133.841 96.4792 134.622Z" fill="url(#paint18_linear_3_367)"/>
<path d="M27.3595 164.527L27.9977 165.492L93.217 133.183L92.5789 132.218L27.3595 164.527Z" fill="url(#paint19_linear_3_367)"/>
<path d="M139.161 413.385C137.572 414.157 135.443 413.534 134.408 411.995C133.372 410.455 133.821 408.58 135.409 407.808C136.998 407.035 139.127 407.658 140.162 409.197C141.198 410.737 140.749 412.612 139.161 413.385Z" fill="url(#paint20_linear_3_367)"/>
<path d="M70.0229 443.299L70.6611 444.264L135.88 411.955L135.242 410.99L70.0229 443.299Z" fill="url(#paint21_linear_3_367)"/>
<path d="M347.403 184.061C345.815 184.833 343.686 184.21 342.65 182.671C341.615 181.131 342.063 179.256 343.652 178.484C345.24 177.711 347.369 178.334 348.405 179.873C349.458 181.405 348.992 183.288 347.403 184.061Z" fill="url(#paint22_linear_3_367)"/>
<path d="M118.388 293.28L119.026 294.246L344.123 182.632L343.485 181.666L118.388 293.28Z" fill="url(#paint23_linear_3_367)"/>
<path d="M376.143 251.601C374.554 252.373 372.426 251.751 371.39 250.211C370.354 248.671 370.803 246.796 372.391 246.024C373.98 245.252 376.109 245.874 377.144 247.414C378.198 248.945 377.749 250.82 376.143 251.601Z" fill="url(#paint24_linear_3_367)"/>
<path d="M26.6917 420.54L27.3302 421.506L372.87 250.147L372.231 249.18L26.6917 420.54Z" fill="url(#paint25_linear_3_367)"/>
<path d="M142.361 132.759C140.773 133.532 138.644 132.909 137.609 131.369C136.573 129.83 137.021 127.954 138.61 127.182C140.199 126.41 142.327 127.033 143.363 128.572C144.399 130.112 143.95 131.987 142.361 132.759Z" fill="url(#paint26_linear_3_367)"/>
<path d="M-86.6539 241.979L-86.0155 242.945L139.081 131.331L138.443 130.364L-86.6539 241.979Z" fill="url(#paint27_linear_3_367)"/>
<path d="M256.713 173.24C255.124 174.012 252.996 173.389 251.96 171.85C250.924 170.31 251.373 168.435 252.961 167.662C254.55 166.89 256.679 167.513 257.714 169.052C258.768 170.584 258.301 172.467 256.713 173.24Z" fill="url(#paint28_linear_3_367)"/>
<path d="M27.7045 282.434L28.343 283.4L253.44 171.785L252.801 170.819L27.7045 282.434Z" fill="url(#paint29_linear_3_367)"/>
<path d="M311.778 293.048C310.189 293.82 308.06 293.198 307.025 291.658C305.989 290.118 306.438 288.243 308.026 287.471C309.615 286.699 311.744 287.321 312.779 288.861C313.815 290.4 313.366 292.276 311.778 293.048Z" fill="url(#paint30_linear_3_367)"/>
<path d="M82.7624 402.268L83.4009 403.234L308.498 291.619L307.859 290.653L82.7624 402.268Z" fill="url(#paint31_linear_3_367)"/>
<path d="M44.0705 202.325C42.4819 203.097 40.3533 202.475 39.3176 200.935C38.282 199.395 38.7305 197.52 40.3192 196.748C41.9078 195.976 44.0364 196.598 45.0721 198.138C46.1254 199.669 45.6768 201.544 44.0705 202.325Z" fill="url(#paint32_linear_3_367)"/>
<path d="M-84.3754 261.636L-83.7371 262.602L40.7793 200.879L40.141 199.914L-84.3754 261.636Z" fill="url(#paint33_linear_3_367)"/>
<path d="M190.302 290.37C188.713 291.142 186.585 290.519 185.549 288.98C184.514 287.44 184.962 285.565 186.551 284.792C188.139 284.02 190.268 284.643 191.304 286.182C192.339 287.722 191.891 289.597 190.302 290.37Z" fill="url(#paint34_linear_3_367)"/>
<path d="M61.8562 349.681L62.4946 350.646L187.011 288.924L186.373 287.958L61.8562 349.681Z" fill="url(#paint35_linear_3_367)"/>
</g>
<defs>
<linearGradient id="paint0_linear_3_367" x1="103.02" y1="158.539" x2="57.3292" y2="189.272" gradientUnits="userSpaceOnUse">
<stop stop-color="#A4FFFF"/>
<stop offset="1" stop-color="#A4FFFF" stop-opacity="0"/>
</linearGradient>
<linearGradient id="paint1_linear_3_367" x1="102.575" y1="158.931" x2="55.1829" y2="190.277" gradientUnits="userSpaceOnUse">
<stop stop-color="#A4FFFF"/>
<stop offset="1" stop-color="#A4FFFF" stop-opacity="0"/>
</linearGradient>
<linearGradient id="paint2_linear_3_367" x1="104.134" y1="321.684" x2="58.4304" y2="352.426" gradientUnits="userSpaceOnUse">
<stop stop-color="#A4FFFF"/>
<stop offset="1" stop-color="#A4FFFF" stop-opacity="0"/>
</linearGradient>
<linearGradient id="paint3_linear_3_367" x1="103.696" y1="322.074" x2="56.302" y2="353.421" gradientUnits="userSpaceOnUse">
<stop stop-color="#A4FFFF"/>
<stop offset="1" stop-color="#A4FFFF" stop-opacity="0"/>
</linearGradient>
<linearGradient id="paint4_linear_3_367" x1="12.3886" y1="322.329" x2="-33.3013" y2="353.062" gradientUnits="userSpaceOnUse">
<stop stop-color="#A4FFFF"/>
<stop offset="1" stop-color="#A4FFFF" stop-opacity="0"/>
</linearGradient>
<linearGradient id="paint5_linear_3_367" x1="11.9453" y1="322.723" x2="-35.4465" y2="354.069" gradientUnits="userSpaceOnUse">
<stop stop-color="#A4FFFF"/>
<stop offset="1" stop-color="#A4FFFF" stop-opacity="0"/>
</linearGradient>
<linearGradient id="paint6_linear_3_367" x1="9.44962" y1="287.746" x2="-36.242" y2="318.479" gradientUnits="userSpaceOnUse">
<stop stop-color="#A4FFFF"/>
<stop offset="1" stop-color="#A4FFFF" stop-opacity="0"/>
</linearGradient>
<linearGradient id="paint7_linear_3_367" x1="9.00797" y1="288.138" x2="-38.3852" y2="319.484" gradientUnits="userSpaceOnUse">
<stop stop-color="#A4FFFF"/>
<stop offset="1" stop-color="#A4FFFF" stop-opacity="0"/>
</linearGradient>
<linearGradient id="paint8_linear_3_367" x1="148.658" y1="159.9" x2="102.98" y2="190.624" gradientUnits="userSpaceOnUse">
<stop stop-color="#A4FFFF"/>
<stop offset="1" stop-color="#A4FFFF" stop-opacity="0"/>
</linearGradient>
<linearGradient id="paint9_linear_3_367" x1="148.21" y1="160.295" x2="100.819" y2="191.64" gradientUnits="userSpaceOnUse">
<stop stop-color="#A4FFFF"/>
<stop offset="1" stop-color="#A4FFFF" stop-opacity="0"/>
</linearGradient>
<linearGradient id="paint10_linear_3_367" x1="73.7886" y1="104.679" x2="28.0982" y2="135.412" gradientUnits="userSpaceOnUse">
<stop stop-color="#A4FFFF"/>
<stop offset="1" stop-color="#A4FFFF" stop-opacity="0"/>
</linearGradient>
<linearGradient id="paint11_linear_3_367" x1="80.8081" y1="101.37" x2="57.1423" y2="117.04" gradientUnits="userSpaceOnUse">
<stop stop-color="#A4FFFF"/>
<stop offset="1" stop-color="#A4FFFF" stop-opacity="0"/>
</linearGradient>
<linearGradient id="paint12_linear_3_367" x1="4.23009" y1="346.786" x2="-41.4737" y2="377.528" gradientUnits="userSpaceOnUse">
<stop stop-color="#A4FFFF"/>
<stop offset="1" stop-color="#A4FFFF" stop-opacity="0"/>
</linearGradient>
<linearGradient id="paint13_linear_3_367" x1="11.2556" y1="343.475" x2="-12.4101" y2="359.144" gradientUnits="userSpaceOnUse">
<stop stop-color="#A4FFFF"/>
<stop offset="1" stop-color="#A4FFFF" stop-opacity="0"/>
</linearGradient>
<linearGradient id="paint14_linear_3_367" x1="164.707" y1="200.732" x2="119.017" y2="231.465" gradientUnits="userSpaceOnUse">
<stop stop-color="#A4FFFF"/>
<stop offset="1" stop-color="#A4FFFF" stop-opacity="0"/>
</linearGradient>
<linearGradient id="paint15_linear_3_367" x1="164.265" y1="201.125" x2="116.872" y2="232.472" gradientUnits="userSpaceOnUse">
<stop stop-color="#A4FFFF"/>
<stop offset="1" stop-color="#A4FFFF" stop-opacity="0"/>
</linearGradient>
<linearGradient id="paint16_linear_3_367" x1="107.5" y1="351.459" x2="61.8099" y2="382.192" gradientUnits="userSpaceOnUse">
<stop stop-color="#A4FFFF"/>
<stop offset="1" stop-color="#A4FFFF" stop-opacity="0"/>
</linearGradient>
<linearGradient id="paint17_linear_3_367" x1="107.059" y1="351.853" x2="59.6668" y2="383.198" gradientUnits="userSpaceOnUse">
<stop stop-color="#A4FFFF"/>
<stop offset="1" stop-color="#A4FFFF" stop-opacity="0"/>
</linearGradient>
<linearGradient id="paint18_linear_3_367" x1="78.4096" y1="139.699" x2="32.7057" y2="170.441" gradientUnits="userSpaceOnUse">
<stop stop-color="#A4FFFF"/>
<stop offset="1" stop-color="#A4FFFF" stop-opacity="0"/>
</linearGradient>
<linearGradient id="paint19_linear_3_367" x1="77.9706" y1="140.088" x2="30.5782" y2="171.434" gradientUnits="userSpaceOnUse">
<stop stop-color="#A4FFFF"/>
<stop offset="1" stop-color="#A4FFFF" stop-opacity="0"/>
</linearGradient>
<linearGradient id="paint20_linear_3_367" x1="121.08" y1="418.465" x2="75.3903" y2="449.199" gradientUnits="userSpaceOnUse">
<stop stop-color="#A4FFFF"/>
<stop offset="1" stop-color="#A4FFFF" stop-opacity="0"/>
</linearGradient>
<linearGradient id="paint21_linear_3_367" x1="120.636" y1="418.857" x2="73.2433" y2="450.204" gradientUnits="userSpaceOnUse">
<stop stop-color="#A4FFFF"/>
<stop offset="1" stop-color="#A4FFFF" stop-opacity="0"/>
</linearGradient>
<linearGradient id="paint22_linear_3_367" x1="317.322" y1="194.975" x2="235.953" y2="249.707" gradientUnits="userSpaceOnUse">
<stop stop-color="#A4FFFF"/>
<stop offset="1" stop-color="#A4FFFF" stop-opacity="0"/>
</linearGradient>
<linearGradient id="paint23_linear_3_367" x1="293.677" y1="206.995" x2="138.265" y2="309.703" gradientUnits="userSpaceOnUse">
<stop stop-color="#A4FFFF"/>
<stop offset="1" stop-color="#A4FFFF" stop-opacity="0"/>
</linearGradient>
<linearGradient id="paint24_linear_3_367" x1="346.063" y1="262.509" x2="264.693" y2="317.241" gradientUnits="userSpaceOnUse">
<stop stop-color="#A4FFFF"/>
<stop offset="1" stop-color="#A4FFFF" stop-opacity="0"/>
</linearGradient>
<linearGradient id="paint25_linear_3_367" x1="295.598" y1="287.835" x2="57.0141" y2="445.49" gradientUnits="userSpaceOnUse">
<stop stop-color="#A4FFFF"/>
<stop offset="1" stop-color="#A4FFFF" stop-opacity="0"/>
</linearGradient>
<linearGradient id="paint26_linear_3_367" x1="112.282" y1="143.682" x2="30.9115" y2="198.414" gradientUnits="userSpaceOnUse">
<stop stop-color="#A4FFFF"/>
<stop offset="1" stop-color="#A4FFFF" stop-opacity="0"/>
</linearGradient>
<linearGradient id="paint27_linear_3_367" x1="88.6368" y1="155.703" x2="-66.7749" y2="258.41" gradientUnits="userSpaceOnUse">
<stop stop-color="#A4FFFF"/>
<stop offset="1" stop-color="#A4FFFF" stop-opacity="0"/>
</linearGradient>
<linearGradient id="paint28_linear_3_367" x1="226.629" y1="184.15" x2="145.259" y2="238.882" gradientUnits="userSpaceOnUse">
<stop stop-color="#A4FFFF"/>
<stop offset="1" stop-color="#A4FFFF" stop-opacity="0"/>
</linearGradient>
<linearGradient id="paint29_linear_3_367" x1="202.984" y1="196.171" x2="47.573" y2="298.878" gradientUnits="userSpaceOnUse">
<stop stop-color="#A4FFFF"/>
<stop offset="1" stop-color="#A4FFFF" stop-opacity="0"/>
</linearGradient>
<linearGradient id="paint30_linear_3_367" x1="281.694" y1="303.964" x2="200.325" y2="358.697" gradientUnits="userSpaceOnUse">
<stop stop-color="#A4FFFF"/>
<stop offset="1" stop-color="#A4FFFF" stop-opacity="0"/>
</linearGradient>
<linearGradient id="paint31_linear_3_367" x1="258.05" y1="315.985" x2="102.638" y2="418.693" gradientUnits="userSpaceOnUse">
<stop stop-color="#A4FFFF"/>
<stop offset="1" stop-color="#A4FFFF" stop-opacity="0"/>
</linearGradient>
<linearGradient id="paint32_linear_3_367" x1="13.9823" y1="213.24" x2="-67.413" y2="267.989" gradientUnits="userSpaceOnUse">
<stop stop-color="#A4FFFF"/>
<stop offset="1" stop-color="#A4FFFF" stop-opacity="0"/>
</linearGradient>
<linearGradient id="paint33_linear_3_367" x1="12.7457" y1="214.147" x2="-73.2126" y2="270.97" gradientUnits="userSpaceOnUse">
<stop stop-color="#A4FFFF"/>
<stop offset="1" stop-color="#A4FFFF" stop-opacity="0"/>
</linearGradient>
<linearGradient id="paint34_linear_3_367" x1="160.217" y1="301.282" x2="78.8714" y2="355.997" gradientUnits="userSpaceOnUse">
<stop stop-color="#A4FFFF"/>
<stop offset="1" stop-color="#A4FFFF" stop-opacity="0"/>
</linearGradient>
<linearGradient id="paint35_linear_3_367" x1="158.963" y1="302.198" x2="73.0056" y2="359.021" gradientUnits="userSpaceOnUse">
<stop stop-color="#A4FFFF"/>
<stop offset="1" stop-color="#A4FFFF" stop-opacity="0"/>
</linearGradient>
</defs>
</svg>
