<svg width="716" height="701" viewBox="0 0 716 701" fill="none" xmlns="http://www.w3.org/2000/svg">
<g filter="url(#filter0_d_1838_28)">
<g filter="url(#filter1_d_1838_28)">
<rect x="386" y="149" width="240" height="120" rx="8" fill="#8476AA"/>
</g>
<path d="M416.956 193.364V205H418.32L424.661 195.864H424.774V205H426.183V193.364H424.82L418.456 202.523H418.342V193.364H416.956ZM428.276 202.773C428.321 204.205 429.69 205.182 431.548 205.182C433.457 205.182 434.844 204.159 434.844 202.568C434.844 201.477 434.19 200.591 433.207 200.523V200.432C434.037 200.176 434.662 199.574 434.662 198.591C434.662 197.21 433.48 196.159 431.639 196.159C429.821 196.159 428.526 197.159 428.48 198.568H429.889C429.929 197.847 430.685 197.341 431.707 197.341C432.724 197.341 433.298 197.858 433.298 198.636C433.298 199.364 432.798 199.909 431.73 199.909H430.23V201.114H431.73C432.798 201.114 433.48 201.699 433.48 202.568C433.48 203.562 432.599 203.977 431.526 203.977C430.474 203.977 429.77 203.562 429.707 202.773H428.276ZM437.591 208.273C438.801 208.273 439.653 207.631 440.159 206.273L443.875 196.295L442.409 196.273L440 203.227H439.909L437.5 196.273H436.045L439.273 205.045L439.023 205.727C438.534 207.057 437.932 207.182 436.955 206.932L436.614 208.114C436.75 208.182 437.136 208.273 437.591 208.273ZM452.111 196.273H450.77V200.699C450.122 200.886 449.457 201 448.656 201C447.565 201 446.724 200.386 446.724 199.045V196.25H445.384V199.045C445.384 201.182 446.679 202.25 448.656 202.25C449.48 202.25 450.139 202.142 450.77 201.955V205H452.111V196.273ZM458.23 205.182C460.003 205.182 461.298 204.295 461.707 202.977L460.412 202.614C460.071 203.523 459.281 203.977 458.23 203.977C456.656 203.977 455.571 202.96 455.509 201.091H461.844V200.523C461.844 197.273 459.912 196.159 458.094 196.159C455.73 196.159 454.162 198.023 454.162 200.705C454.162 203.386 455.707 205.182 458.23 205.182ZM455.509 199.932C455.599 198.574 456.56 197.364 458.094 197.364C459.548 197.364 460.48 198.455 460.48 199.932H455.509ZM465.224 196.273H463.884V205H465.224V201.273H469.406V205H470.747V196.273H469.406V200.023H465.224V196.273ZM474.537 203.023V196.273H473.196V205H474.764L478.946 198.25V205H480.287V196.273H478.741L474.537 203.023ZM486.402 205.182C488.175 205.182 489.47 204.295 489.879 202.977L488.584 202.614C488.243 203.523 487.453 203.977 486.402 203.977C484.828 203.977 483.743 202.96 483.68 201.091H490.016V200.523C490.016 197.273 488.084 196.159 486.266 196.159C483.902 196.159 482.334 198.023 482.334 200.705C482.334 203.386 483.879 205.182 486.402 205.182ZM483.68 199.932C483.771 198.574 484.732 197.364 486.266 197.364C487.72 197.364 488.652 198.455 488.652 199.932H483.68ZM499.124 205.205C500.646 205.205 501.442 204.386 501.714 203.818H501.783V205H503.124V199.25C503.124 196.477 501.01 196.159 499.896 196.159C498.578 196.159 497.078 196.614 496.396 198.205L497.669 198.659C497.964 198.023 498.663 197.341 499.942 197.341C501.175 197.341 501.783 197.994 501.783 199.114V199.159C501.783 199.807 501.124 199.75 499.533 199.955C497.913 200.165 496.146 200.523 496.146 202.523C496.146 204.227 497.464 205.205 499.124 205.205ZM499.328 204C498.26 204 497.487 203.523 497.487 202.591C497.487 201.568 498.419 201.25 499.464 201.114C500.033 201.045 501.555 200.886 501.783 200.614V201.841C501.783 202.932 500.919 204 499.328 204ZM505.571 208.273H506.912V203.659H507.026C507.321 204.136 507.889 205.182 509.571 205.182C511.753 205.182 513.276 203.432 513.276 200.659C513.276 197.909 511.753 196.159 509.548 196.159C507.844 196.159 507.321 197.205 507.026 197.659H506.866V196.273H505.571V208.273ZM506.889 200.636C506.889 198.682 507.753 197.364 509.389 197.364C511.094 197.364 511.935 198.795 511.935 200.636C511.935 202.5 511.071 203.977 509.389 203.977C507.776 203.977 506.889 202.614 506.889 200.636ZM515.962 196.273H514.416L517.189 200.636L514.416 205H515.962L518.053 201.614L520.143 205H521.689L518.871 200.636L521.689 196.273H520.143L518.053 199.841L515.962 196.273ZM524.943 203.023V196.273H523.602V205H525.17L529.352 198.25V205H530.693V196.273H529.148L524.943 203.023ZM531.962 197.523H534.848V205H536.189V197.523H539.053V196.273H531.962V197.523ZM544.214 205.182C545.987 205.182 547.283 204.295 547.692 202.977L546.396 202.614C546.055 203.523 545.266 203.977 544.214 203.977C542.641 203.977 541.555 202.96 541.493 201.091H547.828V200.523C547.828 197.273 545.896 196.159 544.078 196.159C541.714 196.159 540.146 198.023 540.146 200.705C540.146 203.386 541.692 205.182 544.214 205.182ZM541.493 199.932C541.584 198.574 542.544 197.364 544.078 197.364C545.533 197.364 546.464 198.455 546.464 199.932H541.493ZM549.868 205H551.209V201.318H552.413L555.277 205H557.004L553.436 200.477L556.959 196.273H555.232L552.095 200.068H551.209V196.273H549.868V205ZM557.962 197.523H560.848V205H562.189V197.523H565.053V196.273H557.962V197.523ZM567.872 208.273C569.082 208.273 569.935 207.631 570.44 206.273L574.156 196.295L572.69 196.273L570.281 203.227H570.19L567.781 196.273H566.327L569.554 205.045L569.304 205.727C568.815 207.057 568.213 207.182 567.236 206.932L566.895 208.114C567.031 208.182 567.418 208.273 567.872 208.273ZM575.93 208.273H577.271V203.659H577.385C577.68 204.136 578.249 205.182 579.93 205.182C582.112 205.182 583.635 203.432 583.635 200.659C583.635 197.909 582.112 196.159 579.908 196.159C578.203 196.159 577.68 197.205 577.385 197.659H577.226V196.273H575.93V208.273ZM577.249 200.636C577.249 198.682 578.112 197.364 579.749 197.364C581.453 197.364 582.294 198.795 582.294 200.636C582.294 202.5 581.43 203.977 579.749 203.977C578.135 203.977 577.249 202.614 577.249 200.636ZM587.021 199.432V196.273H585.68V205H589.339C591.385 205 592.499 203.75 592.499 202.182C592.499 200.591 591.385 199.432 589.339 199.432H587.021ZM593.885 205H595.226V196.273H593.885V205ZM587.021 200.682H589.339C590.402 200.682 591.158 201.33 591.158 202.25C591.158 203.131 590.402 203.75 589.339 203.75H587.021V200.682ZM440.506 216.273H439.165V225H440.506V221.273H444.688V225H446.028V216.273H444.688V220.023H440.506V216.273ZM452.136 225.182C453.909 225.182 455.205 224.295 455.614 222.977L454.318 222.614C453.977 223.523 453.188 223.977 452.136 223.977C450.562 223.977 449.477 222.96 449.415 221.091H455.75V220.523C455.75 217.273 453.818 216.159 452 216.159C449.636 216.159 448.068 218.023 448.068 220.705C448.068 223.386 449.614 225.182 452.136 225.182ZM449.415 219.932C449.506 218.574 450.466 217.364 452 217.364C453.455 217.364 454.386 218.455 454.386 219.932H449.415ZM459.131 223.023V216.273H457.79V225H459.358L463.54 218.25V225H464.881V216.273H463.335L459.131 223.023ZM462.449 213.364C462.449 213.955 462.131 214.477 461.335 214.477C460.54 214.477 460.244 213.955 460.244 213.364H458.994C458.994 214.591 459.903 215.455 461.335 215.455C462.79 215.455 463.699 214.591 463.699 213.364H462.449ZM467.337 228.273H468.678V223.659H468.791C469.087 224.136 469.655 225.182 471.337 225.182C473.518 225.182 475.041 223.432 475.041 220.659C475.041 217.909 473.518 216.159 471.314 216.159C469.609 216.159 469.087 217.205 468.791 217.659H468.632V216.273H467.337V228.273ZM468.655 220.636C468.655 218.682 469.518 217.364 471.155 217.364C472.859 217.364 473.7 218.795 473.7 220.636C473.7 222.5 472.837 223.977 471.155 223.977C469.541 223.977 468.655 222.614 468.655 220.636ZM480.632 225.182C482.996 225.182 484.587 223.386 484.587 220.682C484.587 217.955 482.996 216.159 480.632 216.159C478.268 216.159 476.678 217.955 476.678 220.682C476.678 223.386 478.268 225.182 480.632 225.182ZM480.632 223.977C478.837 223.977 478.018 222.432 478.018 220.682C478.018 218.932 478.837 217.364 480.632 217.364C482.428 217.364 483.246 218.932 483.246 220.682C483.246 222.432 482.428 223.977 480.632 223.977ZM487.974 216.273H486.634V225H487.974V221.273H492.156V225H493.497V216.273H492.156V220.023H487.974V216.273ZM497.287 216.273H495.946V225H497.287V221.273H501.469V225H502.81V216.273H501.469V220.023H497.287V216.273ZM506.599 219.432V216.273H505.259V225H508.918C510.963 225 512.077 223.75 512.077 222.182C512.077 220.591 510.963 219.432 508.918 219.432H506.599ZM513.463 225H514.804V216.273H513.463V225ZM506.599 220.682H508.918C509.98 220.682 510.736 221.33 510.736 222.25C510.736 223.131 509.98 223.75 508.918 223.75H506.599V220.682ZM518.259 216.273H516.713L519.486 220.636L516.713 225H518.259L520.349 221.614L522.44 225H523.986L521.168 220.636L523.986 216.273H522.44L520.349 219.841L518.259 216.273ZM533.945 225.182C535.876 225.182 537.149 224 537.376 222.455H536.036C535.786 223.409 534.99 223.977 533.945 223.977C532.354 223.977 531.331 222.659 531.331 220.636C531.331 218.659 532.376 217.364 533.945 217.364C535.126 217.364 535.831 218.091 536.036 218.886H537.376C537.149 217.25 535.763 216.159 533.922 216.159C531.558 216.159 529.99 218.023 529.99 220.682C529.99 223.295 531.49 225.182 533.945 225.182ZM542.996 225.182C544.768 225.182 546.064 224.295 546.473 222.977L545.178 222.614C544.837 223.523 544.047 223.977 542.996 223.977C541.422 223.977 540.337 222.96 540.274 221.091H546.609V220.523C546.609 217.273 544.678 216.159 542.859 216.159C540.496 216.159 538.928 218.023 538.928 220.705C538.928 223.386 540.473 225.182 542.996 225.182ZM540.274 219.932C540.365 218.574 541.325 217.364 542.859 217.364C544.314 217.364 545.246 218.455 545.246 219.932H540.274ZM547.837 217.523H550.723V225H552.064V217.523H554.928V216.273H547.837V217.523ZM560.089 225.182C561.862 225.182 563.158 224.295 563.567 222.977L562.271 222.614C561.93 223.523 561.141 223.977 560.089 223.977C558.516 223.977 557.43 222.96 557.368 221.091H563.703V220.523C563.703 217.273 561.771 216.159 559.953 216.159C557.589 216.159 556.021 218.023 556.021 220.705C556.021 223.386 557.567 225.182 560.089 225.182ZM557.368 219.932C557.459 218.574 558.419 217.364 559.953 217.364C561.408 217.364 562.339 218.455 562.339 219.932H557.368ZM567.084 223.023V216.273H565.743V225H567.311L571.493 218.25V225H572.834V216.273H571.288L567.084 223.023ZM570.402 213.364C570.402 213.955 570.084 214.477 569.288 214.477C568.493 214.477 568.197 213.955 568.197 213.364H566.947C566.947 214.591 567.857 215.455 569.288 215.455C570.743 215.455 571.652 214.591 571.652 213.364H570.402Z" fill="white"/>
</g>
<g filter="url(#filter2_d_1838_28)">
<g filter="url(#filter3_d_1838_28)">
<rect x="24" y="266" width="240" height="120" rx="8" fill="#8476AA"/>
</g>
<path d="M68.321 326.182C68.321 322.5 66.1619 320.205 63.1847 320.205C60.2074 320.205 58.0483 322.5 58.0483 326.182C58.0483 329.864 60.2074 332.159 63.1847 332.159C66.1619 332.159 68.321 329.864 68.321 326.182ZM66.9574 326.182C66.9574 329.205 65.2983 330.841 63.1847 330.841C61.071 330.841 59.4119 329.205 59.4119 326.182C59.4119 323.159 61.071 321.523 63.1847 321.523C65.2983 321.523 66.9574 323.159 66.9574 326.182ZM76.9858 320C76.5597 320.358 75.9233 320.358 75.0312 320.352C74.7415 320.352 74.4233 320.352 74.0767 320.364C71.4176 320.432 70.0994 322.455 70.0994 326.341V327.273C70.0994 330.5 71.6676 332.182 74.0085 332.182C76.3438 332.182 77.8949 330.489 77.8949 327.75C77.8949 325 76.321 323.545 74.2812 323.545C73.0824 323.545 71.9631 324.045 71.3722 325.136H71.2585C71.4403 322.886 72.2812 321.682 74.0994 321.614C75.7131 321.545 76.8722 321.591 77.6676 320.818L76.9858 320ZM74.0085 330.977C72.4176 330.977 71.4403 329.705 71.4403 327.75C71.4688 325.841 72.429 324.75 73.9858 324.75C75.5824 324.75 76.554 325.841 76.554 327.75C76.554 329.716 75.5881 330.977 74.0085 330.977ZM80.8097 335.273C82.0199 335.273 82.8722 334.631 83.3778 333.273L87.0938 323.295L85.6278 323.273L83.2188 330.227H83.1278L80.7188 323.273H79.2642L82.4915 332.045L82.2415 332.727C81.7528 334.057 81.1506 334.182 80.1733 333.932L79.8324 335.114C79.9688 335.182 80.3551 335.273 80.8097 335.273ZM95.3295 323.273H93.9886V327.699C93.3409 327.886 92.6761 328 91.875 328C90.7841 328 89.9432 327.386 89.9432 326.045V323.25H88.6023V326.045C88.6023 328.182 89.8977 329.25 91.875 329.25C92.6989 329.25 93.358 329.142 93.9886 328.955V332H95.3295V323.273ZM101.449 332.182C103.222 332.182 104.517 331.295 104.926 329.977L103.631 329.614C103.29 330.523 102.5 330.977 101.449 330.977C99.875 330.977 98.7898 329.96 98.7273 328.091H105.062V327.523C105.062 324.273 103.131 323.159 101.312 323.159C98.9489 323.159 97.3807 325.023 97.3807 327.705C97.3807 330.386 98.9261 332.182 101.449 332.182ZM98.7273 326.932C98.8182 325.574 99.7784 324.364 101.312 324.364C102.767 324.364 103.699 325.455 103.699 326.932H98.7273ZM108.443 323.273H107.102V332H108.443V328.273H112.625V332H113.966V323.273H112.625V327.023H108.443V323.273ZM117.756 330.023V323.273H116.415V332H117.983L122.165 325.25V332H123.506V323.273H121.96L117.756 330.023ZM129.621 332.182C131.393 332.182 132.689 331.295 133.098 329.977L131.803 329.614C131.462 330.523 130.672 330.977 129.621 330.977C128.047 330.977 126.962 329.96 126.899 328.091H133.234V327.523C133.234 324.273 131.303 323.159 129.484 323.159C127.121 323.159 125.553 325.023 125.553 327.705C125.553 330.386 127.098 332.182 129.621 332.182ZM126.899 326.932C126.99 325.574 127.95 324.364 129.484 324.364C130.939 324.364 131.871 325.455 131.871 326.932H126.899ZM141.115 323.273H139.774V332H141.115V328.273H145.297V332H146.638V323.273H145.297V327.023H141.115V323.273ZM152.746 332.182C154.518 332.182 155.814 331.295 156.223 329.977L154.928 329.614C154.587 330.523 153.797 330.977 152.746 330.977C151.172 330.977 150.087 329.96 150.024 328.091H156.359V327.523C156.359 324.273 154.428 323.159 152.609 323.159C150.246 323.159 148.678 325.023 148.678 327.705C148.678 330.386 150.223 332.182 152.746 332.182ZM150.024 326.932C150.115 325.574 151.075 324.364 152.609 324.364C154.064 324.364 154.996 325.455 154.996 326.932H150.024ZM159.74 330.023V323.273H158.399V332H159.967L164.149 325.25V332H165.49V323.273H163.945L159.74 330.023ZM163.058 320.364C163.058 320.955 162.74 321.477 161.945 321.477C161.149 321.477 160.854 320.955 160.854 320.364H159.604C159.604 321.591 160.513 322.455 161.945 322.455C163.399 322.455 164.308 321.591 164.308 320.364H163.058ZM167.946 335.273H169.287V330.659H169.401C169.696 331.136 170.264 332.182 171.946 332.182C174.128 332.182 175.651 330.432 175.651 327.659C175.651 324.909 174.128 323.159 171.923 323.159C170.219 323.159 169.696 324.205 169.401 324.659H169.241V323.273H167.946V335.273ZM169.264 327.636C169.264 325.682 170.128 324.364 171.764 324.364C173.469 324.364 174.31 325.795 174.31 327.636C174.31 329.5 173.446 330.977 171.764 330.977C170.151 330.977 169.264 329.614 169.264 327.636ZM181.241 332.182C183.605 332.182 185.196 330.386 185.196 327.682C185.196 324.955 183.605 323.159 181.241 323.159C178.878 323.159 177.287 324.955 177.287 327.682C177.287 330.386 178.878 332.182 181.241 332.182ZM181.241 330.977C179.446 330.977 178.628 329.432 178.628 327.682C178.628 325.932 179.446 324.364 181.241 324.364C183.037 324.364 183.855 325.932 183.855 327.682C183.855 329.432 183.037 330.977 181.241 330.977ZM190.788 332.182C192.72 332.182 193.993 331 194.22 329.455H192.879C192.629 330.409 191.834 330.977 190.788 330.977C189.197 330.977 188.175 329.659 188.175 327.636C188.175 325.659 189.22 324.364 190.788 324.364C191.97 324.364 192.675 325.091 192.879 325.886H194.22C193.993 324.25 192.607 323.159 190.766 323.159C188.402 323.159 186.834 325.023 186.834 327.682C186.834 330.295 188.334 332.182 190.788 332.182ZM199.839 332.182C201.612 332.182 202.908 331.295 203.317 329.977L202.021 329.614C201.68 330.523 200.891 330.977 199.839 330.977C198.266 330.977 197.18 329.96 197.118 328.091H203.453V327.523C203.453 324.273 201.521 323.159 199.703 323.159C197.339 323.159 195.771 325.023 195.771 327.705C195.771 330.386 197.317 332.182 199.839 332.182ZM197.118 326.932C197.209 325.574 198.169 324.364 199.703 324.364C201.158 324.364 202.089 325.455 202.089 326.932H197.118ZM204.68 324.523H207.567V332H208.908V324.523H211.771V323.273H204.68V324.523ZM216.933 332.182C218.706 332.182 220.001 331.295 220.411 329.977L219.115 329.614C218.774 330.523 217.984 330.977 216.933 330.977C215.359 330.977 214.274 329.96 214.212 328.091H220.547V327.523C220.547 324.273 218.615 323.159 216.797 323.159C214.433 323.159 212.865 325.023 212.865 327.705C212.865 330.386 214.411 332.182 216.933 332.182ZM214.212 326.932C214.303 325.574 215.263 324.364 216.797 324.364C218.251 324.364 219.183 325.455 219.183 326.932H214.212ZM223.928 330.023V323.273H222.587V332H224.155L228.337 325.25V332H229.678V323.273H228.132L223.928 330.023ZM227.246 320.364C227.246 320.955 226.928 321.477 226.132 321.477C225.337 321.477 225.041 320.955 225.041 320.364H223.791C223.791 321.591 224.7 322.455 226.132 322.455C227.587 322.455 228.496 321.591 228.496 320.364H227.246Z" fill="white"/>
</g>
<path d="M630 207.5C629.172 207.5 628.5 208.172 628.5 209C628.5 209.828 629.172 210.5 630 210.5V207.5ZM266.939 324.939C266.354 325.525 266.354 326.475 266.939 327.061L276.485 336.607C277.071 337.192 278.021 337.192 278.607 336.607C279.192 336.021 279.192 335.071 278.607 334.485L270.121 326L278.607 317.515C279.192 316.929 279.192 315.979 278.607 315.393C278.021 314.808 277.071 314.808 276.485 315.393L266.939 324.939ZM630 210.5H690V207.5H630V210.5ZM712.5 233V302H715.5V233H712.5ZM690 324.5H268V327.5H690V324.5ZM712.5 302C712.5 314.426 702.426 324.5 690 324.5V327.5C704.083 327.5 715.5 316.083 715.5 302H712.5ZM690 210.5C702.426 210.5 712.5 220.574 712.5 233H715.5C715.5 218.917 704.083 207.5 690 207.5V210.5Z" fill="#E3FFF2"/>
<g filter="url(#filter4_d_1838_28)">
<g filter="url(#filter5_d_1838_28)">
<rect x="386" y="419" width="240" height="120" rx="8" fill="#8476AA"/>
</g>
<path d="M432.987 463.364H425.964V475H427.373V464.614H432.987V463.364ZM437.379 475.182C439.151 475.182 440.447 474.295 440.856 472.977L439.56 472.614C439.219 473.523 438.43 473.977 437.379 473.977C435.805 473.977 434.719 472.96 434.657 471.091H440.992V470.523C440.992 467.273 439.06 466.159 437.242 466.159C434.879 466.159 433.31 468.023 433.31 470.705C433.31 473.386 434.856 475.182 437.379 475.182ZM434.657 469.932C434.748 468.574 435.708 467.364 437.242 467.364C438.697 467.364 439.629 468.455 439.629 469.932H434.657ZM444.373 466.273H443.032V475H444.373V471.273H448.555V475H449.896V466.273H448.555V470.023H444.373V466.273ZM456.004 475.182C457.776 475.182 459.072 474.295 459.481 472.977L458.185 472.614C457.844 473.523 457.055 473.977 456.004 473.977C454.43 473.977 453.344 472.96 453.282 471.091H459.617V470.523C459.617 467.273 457.685 466.159 455.867 466.159C453.504 466.159 451.935 468.023 451.935 470.705C451.935 473.386 453.481 475.182 456.004 475.182ZM453.282 469.932C453.373 468.574 454.333 467.364 455.867 467.364C457.322 467.364 458.254 468.455 458.254 469.932H453.282ZM461.657 478.273H462.998V473.659H463.112C463.407 474.136 463.975 475.182 465.657 475.182C467.839 475.182 469.362 473.432 469.362 470.659C469.362 467.909 467.839 466.159 465.634 466.159C463.93 466.159 463.407 467.205 463.112 467.659H462.952V466.273H461.657V478.273ZM462.975 470.636C462.975 468.682 463.839 467.364 465.475 467.364C467.18 467.364 468.021 468.795 468.021 470.636C468.021 472.5 467.157 473.977 465.475 473.977C463.862 473.977 462.975 472.614 462.975 470.636ZM473.975 475.205C475.498 475.205 476.293 474.386 476.566 473.818H476.634V475H477.975V469.25C477.975 466.477 475.862 466.159 474.748 466.159C473.43 466.159 471.93 466.614 471.248 468.205L472.521 468.659C472.816 468.023 473.515 467.341 474.793 467.341C476.026 467.341 476.634 467.994 476.634 469.114V469.159C476.634 469.807 475.975 469.75 474.384 469.955C472.765 470.165 470.998 470.523 470.998 472.523C470.998 474.227 472.316 475.205 473.975 475.205ZM474.18 474C473.112 474 472.339 473.523 472.339 472.591C472.339 471.568 473.271 471.25 474.316 471.114C474.884 471.045 476.407 470.886 476.634 470.614V471.841C476.634 472.932 475.771 474 474.18 474ZM487.286 466.273H485.945V473.75H481.763V466.273H480.423V475H487.173V477.818H488.513V473.75H487.286V466.273ZM491.92 473.023V466.273H490.579V475H492.147L496.329 468.25V475H497.67V466.273H496.124L491.92 473.023ZM505.376 475H506.648V466.273H503.058C501.177 466.273 500.035 467.256 500.035 468.864C500.035 470.062 500.637 470.915 501.688 471.273L499.558 475H501.012L503.035 471.455H505.376V475ZM505.376 470.205H502.898C501.95 470.205 501.376 469.699 501.376 468.864C501.376 468.017 502.012 467.5 503.058 467.5H505.376V470.205ZM513.11 467.523H515.996V475H517.337V467.523H520.201V466.273H513.11V467.523ZM525.363 475.182C527.136 475.182 528.431 474.295 528.84 472.977L527.545 472.614C527.204 473.523 526.414 473.977 525.363 473.977C523.789 473.977 522.704 472.96 522.641 471.091H528.977V470.523C528.977 467.273 527.045 466.159 525.227 466.159C522.863 466.159 521.295 468.023 521.295 470.705C521.295 473.386 522.84 475.182 525.363 475.182ZM522.641 469.932C522.732 468.574 523.692 467.364 525.227 467.364C526.681 467.364 527.613 468.455 527.613 469.932H522.641ZM531.016 475H532.357V471.318H533.562L536.425 475H538.153L534.585 470.477L538.107 466.273H536.38L533.244 470.068H532.357V466.273H531.016V475ZM542.796 475.182C544.728 475.182 546.001 474 546.228 472.455H544.887C544.637 473.409 543.842 473.977 542.796 473.977C541.205 473.977 540.183 472.659 540.183 470.636C540.183 468.659 541.228 467.364 542.796 467.364C543.978 467.364 544.683 468.091 544.887 468.886H546.228C546.001 467.25 544.614 466.159 542.773 466.159C540.41 466.159 538.842 468.023 538.842 470.682C538.842 473.295 540.342 475.182 542.796 475.182ZM547.501 467.523H550.387V475H551.728V467.523H554.592V466.273H547.501V467.523ZM559.64 475.182C562.004 475.182 563.594 473.386 563.594 470.682C563.594 467.955 562.004 466.159 559.64 466.159C557.276 466.159 555.685 467.955 555.685 470.682C555.685 473.386 557.276 475.182 559.64 475.182ZM559.64 473.977C557.844 473.977 557.026 472.432 557.026 470.682C557.026 468.932 557.844 467.364 559.64 467.364C561.435 467.364 562.254 468.932 562.254 470.682C562.254 472.432 561.435 473.977 559.64 473.977ZM565.641 475H569.755C571.528 475 572.596 474 572.596 472.659C572.596 471.29 571.556 470.551 570.596 470.409C571.579 470.205 572.278 469.653 572.278 468.591C572.278 467.199 571.085 466.273 569.21 466.273H565.641V475ZM566.914 473.773V471.091H569.755C570.675 471.091 571.232 471.642 571.232 472.545C571.232 473.307 570.675 473.773 569.755 473.773H566.914ZM566.914 469.932V467.5H569.21C570.283 467.5 570.937 467.949 570.937 468.682C570.937 469.46 570.283 469.932 569.21 469.932H566.914ZM580.467 473.023V466.273H579.126V475H580.694L584.876 468.25V475H586.217V466.273H584.671L580.467 473.023ZM413.812 497.977H415.153V495.182C417.516 495.182 419.107 493.386 419.107 490.682C419.107 487.955 417.516 486.159 415.153 486.159V483.364H413.812V486.159C411.448 486.159 409.857 487.955 409.857 490.682C409.857 493.386 411.448 495.182 413.812 495.182V497.977ZM415.153 493.977V487.364C416.948 487.364 417.766 488.932 417.766 490.682C417.766 492.432 416.948 493.977 415.153 493.977ZM413.812 493.977C412.016 493.977 411.198 492.432 411.198 490.682C411.198 488.932 412.016 487.364 413.812 487.364V493.977ZM422.498 493.023V486.273H421.157V495H422.725L426.907 488.25V495H428.248V486.273H426.702L422.498 493.023ZM429.931 495H430.386C432.317 495 432.874 493.5 432.999 490.636L433.136 487.523H436.34V495H437.681V486.273H431.863L431.704 490.136C431.59 493.068 431.295 493.75 430.249 493.75H429.931V495ZM441.482 489.432V486.273H440.141V495H443.8C445.846 495 446.96 493.75 446.96 492.182C446.96 490.591 445.846 489.432 443.8 489.432H441.482ZM441.482 490.682H443.8C444.863 490.682 445.619 491.33 445.619 492.25C445.619 493.131 444.863 493.75 443.8 493.75H441.482V490.682ZM447.594 487.523H450.481V495H451.822V487.523H454.685V486.273H447.594V487.523ZM456.641 498.273H457.982V493.659H458.096C458.391 494.136 458.96 495.182 460.641 495.182C462.823 495.182 464.346 493.432 464.346 490.659C464.346 487.909 462.823 486.159 460.619 486.159C458.914 486.159 458.391 487.205 458.096 487.659H457.937V486.273H456.641V498.273ZM457.96 490.636C457.96 488.682 458.823 487.364 460.46 487.364C462.164 487.364 463.005 488.795 463.005 490.636C463.005 492.5 462.141 493.977 460.46 493.977C458.846 493.977 457.96 492.614 457.96 490.636ZM468.96 495.205C470.482 495.205 471.278 494.386 471.55 493.818H471.619V495H472.96V489.25C472.96 486.477 470.846 486.159 469.732 486.159C468.414 486.159 466.914 486.614 466.232 488.205L467.505 488.659C467.8 488.023 468.499 487.341 469.778 487.341C471.011 487.341 471.619 487.994 471.619 489.114V489.159C471.619 489.807 470.96 489.75 469.369 489.955C467.749 490.165 465.982 490.523 465.982 492.523C465.982 494.227 467.3 495.205 468.96 495.205ZM469.164 494C468.096 494 467.323 493.523 467.323 492.591C467.323 491.568 468.255 491.25 469.3 491.114C469.869 491.045 471.391 490.886 471.619 490.614V491.841C471.619 492.932 470.755 494 469.164 494ZM482.271 486.273H480.93V493.75H476.748V486.273H475.407V495H482.157V497.818H483.498V493.75H482.271V486.273ZM486.904 493.023V486.273H485.563V495H487.131L491.313 488.25V495H492.654V486.273H491.109L486.904 493.023ZM500.36 495H501.633V486.273H498.042C496.161 486.273 495.019 487.256 495.019 488.864C495.019 490.062 495.621 490.915 496.673 491.273L494.542 495H495.996L498.019 491.455H500.36V495ZM500.36 490.205H497.883C496.934 490.205 496.36 489.699 496.36 488.864C496.36 488.017 496.996 487.5 498.042 487.5H500.36V490.205ZM508.594 498.273H509.935V493.659H510.049C510.344 494.136 510.913 495.182 512.594 495.182C514.776 495.182 516.299 493.432 516.299 490.659C516.299 487.909 514.776 486.159 512.572 486.159C510.867 486.159 510.344 487.205 510.049 487.659H509.89V486.273H508.594V498.273ZM509.913 490.636C509.913 488.682 510.776 487.364 512.413 487.364C514.117 487.364 514.958 488.795 514.958 490.636C514.958 492.5 514.094 493.977 512.413 493.977C510.799 493.977 509.913 492.614 509.913 490.636ZM522.004 495.182C523.776 495.182 525.072 494.295 525.481 492.977L524.185 492.614C523.844 493.523 523.055 493.977 522.004 493.977C520.43 493.977 519.344 492.96 519.282 491.091H525.617V490.523C525.617 487.273 523.685 486.159 521.867 486.159C519.504 486.159 517.935 488.023 517.935 490.705C517.935 493.386 519.481 495.182 522.004 495.182ZM519.282 489.932C519.373 488.574 520.333 487.364 521.867 487.364C523.322 487.364 524.254 488.455 524.254 489.932H519.282ZM527.112 492.773C527.157 494.205 528.526 495.182 530.384 495.182C532.293 495.182 533.68 494.159 533.68 492.568C533.68 491.477 533.026 490.591 532.043 490.523V490.432C532.873 490.176 533.498 489.574 533.498 488.591C533.498 487.21 532.316 486.159 530.475 486.159C528.657 486.159 527.362 487.159 527.316 488.568H528.725C528.765 487.847 529.521 487.341 530.543 487.341C531.56 487.341 532.134 487.858 532.134 488.636C532.134 489.364 531.634 489.909 530.566 489.909H529.066V491.114H530.566C531.634 491.114 532.316 491.699 532.316 492.568C532.316 493.562 531.435 493.977 530.362 493.977C529.31 493.977 528.606 493.562 528.543 492.773H527.112ZM536.427 498.273C537.637 498.273 538.489 497.631 538.995 496.273L542.711 486.295L541.245 486.273L538.836 493.227H538.745L536.336 486.273H534.881L538.109 495.045L537.859 495.727C537.37 497.057 536.768 497.182 535.79 496.932L535.45 498.114C535.586 498.182 535.972 498.273 536.427 498.273ZM542.978 495H543.433C545.364 495 545.921 493.5 546.046 490.636L546.183 487.523H549.387V495H550.728V486.273H544.91L544.751 490.136C544.637 493.068 544.342 493.75 543.296 493.75H542.978V495ZM554.529 489.432V486.273H553.188V495H556.847C558.893 495 560.006 493.75 560.006 492.182C560.006 490.591 558.893 489.432 556.847 489.432H554.529ZM554.529 490.682H556.847C557.91 490.682 558.665 491.33 558.665 492.25C558.665 493.131 557.91 493.75 556.847 493.75H554.529V490.682ZM560.641 487.523H563.528V495H564.869V487.523H567.732V486.273H560.641V487.523ZM571.803 495.205C573.326 495.205 574.121 494.386 574.394 493.818H574.462V495H575.803V489.25C575.803 486.477 573.69 486.159 572.576 486.159C571.258 486.159 569.758 486.614 569.076 488.205L570.349 488.659C570.644 488.023 571.343 487.341 572.621 487.341C573.854 487.341 574.462 487.994 574.462 489.114V489.159C574.462 489.807 573.803 489.75 572.212 489.955C570.593 490.165 568.826 490.523 568.826 492.523C568.826 494.227 570.144 495.205 571.803 495.205ZM572.008 494C570.94 494 570.167 493.523 570.167 492.591C570.167 491.568 571.099 491.25 572.144 491.114C572.712 491.045 574.235 490.886 574.462 490.614V491.841C574.462 492.932 573.599 494 572.008 494ZM577.063 487.523H579.95V495H581.29V487.523H584.154V486.273H577.063V487.523ZM589.202 495.182C591.566 495.182 593.157 493.386 593.157 490.682C593.157 487.955 591.566 486.159 589.202 486.159C586.839 486.159 585.248 487.955 585.248 490.682C585.248 493.386 586.839 495.182 589.202 495.182ZM589.202 493.977C587.407 493.977 586.589 492.432 586.589 490.682C586.589 488.932 587.407 487.364 589.202 487.364C590.998 487.364 591.816 488.932 591.816 490.682C591.816 492.432 590.998 493.977 589.202 493.977ZM595.204 495H599.317C601.09 495 602.158 494 602.158 492.659C602.158 491.29 601.119 490.551 600.158 490.409C601.141 490.205 601.84 489.653 601.84 488.591C601.84 487.199 600.647 486.273 598.772 486.273H595.204V495ZM596.477 493.773V491.091H599.317C600.238 491.091 600.795 491.642 600.795 492.545C600.795 493.307 600.238 493.773 599.317 493.773H596.477ZM596.477 489.932V487.5H598.772C599.846 487.5 600.499 487.949 600.499 488.682C600.499 489.46 599.846 489.932 598.772 489.932H596.477Z" fill="white"/>
</g>
<path d="M145.5 390C145.5 389.172 144.828 388.5 144 388.5C143.172 388.5 142.5 389.172 142.5 390H145.5ZM383.061 480.061C383.646 479.475 383.646 478.525 383.061 477.939L373.515 468.393C372.929 467.808 371.979 467.808 371.393 468.393C370.808 468.979 370.808 469.929 371.393 470.515L379.879 479L371.393 487.485C370.808 488.071 370.808 489.021 371.393 489.607C371.979 490.192 372.929 490.192 373.515 489.607L383.061 480.061ZM142.5 390V410H145.5V390H142.5ZM168 435.5H337V432.5H168V435.5ZM337 450.5H231.5V453.5H337V450.5ZM231.5 480.5H382V477.5H231.5V480.5ZM216.5 465.5C216.5 473.784 223.216 480.5 231.5 480.5V477.5C224.873 477.5 219.5 472.127 219.5 465.5H216.5ZM231.5 450.5C223.216 450.5 216.5 457.216 216.5 465.5H219.5C219.5 458.873 224.873 453.5 231.5 453.5V450.5ZM344.5 443C344.5 447.142 341.142 450.5 337 450.5V453.5C342.799 453.5 347.5 448.799 347.5 443H344.5ZM337 435.5C341.142 435.5 344.5 438.858 344.5 443H347.5C347.5 437.201 342.799 432.5 337 432.5V435.5ZM142.5 410C142.5 424.083 153.917 435.5 168 435.5V432.5C155.574 432.5 145.5 422.426 145.5 410H142.5Z" fill="#E3FFF2"/>
<g filter="url(#filter6_d_1838_28)">
<g filter="url(#filter7_d_1838_28)">
<rect x="24" y="549" width="240" height="120" rx="8" fill="#8476AA"/>
</g>
<path d="M58.0007 599.182C58.0007 595.5 55.8416 593.205 52.8643 593.205C49.8871 593.205 47.728 595.5 47.728 599.182C47.728 602.864 49.8871 605.159 52.8643 605.159C55.8416 605.159 58.0007 602.864 58.0007 599.182ZM56.6371 599.182C56.6371 602.205 54.978 603.841 52.8643 603.841C50.7507 603.841 49.0916 602.205 49.0916 599.182C49.0916 596.159 50.7507 594.523 52.8643 594.523C54.978 594.523 56.6371 596.159 56.6371 599.182ZM60.1882 605H61.5291V597.523H65.7109V605H67.0518V596.273H60.1882V605ZM69.5007 608.273H70.8416V603.659H70.9553C71.2507 604.136 71.8189 605.182 73.5007 605.182C75.6825 605.182 77.2053 603.432 77.2053 600.659C77.2053 597.909 75.6825 596.159 73.478 596.159C71.7734 596.159 71.2507 597.205 70.9553 597.659H70.7962V596.273H69.5007V608.273ZM70.8189 600.636C70.8189 598.682 71.6825 597.364 73.3189 597.364C75.0234 597.364 75.8643 598.795 75.8643 600.636C75.8643 602.5 75.0007 603.977 73.3189 603.977C71.7053 603.977 70.8189 602.614 70.8189 600.636ZM82.9098 605.182C84.6825 605.182 85.978 604.295 86.3871 602.977L85.0916 602.614C84.7507 603.523 83.9609 603.977 82.9098 603.977C81.3359 603.977 80.2507 602.96 80.1882 601.091H86.5234V600.523C86.5234 597.273 84.5916 596.159 82.7734 596.159C80.4098 596.159 78.8416 598.023 78.8416 600.705C78.8416 603.386 80.3871 605.182 82.9098 605.182ZM80.1882 599.932C80.2791 598.574 81.2393 597.364 82.7734 597.364C84.228 597.364 85.1598 598.455 85.1598 599.932H80.1882ZM87.6314 607.5H88.9723V605H95.4268V607.5H96.7678V603.75H95.4268V596.273H89.8814L89.5859 599.727C89.3757 602.17 89.0632 603.011 88.3587 603.75H87.6314V607.5ZM89.8814 603.75C90.495 602.943 90.7166 601.551 90.9041 599.727L91.1314 597.523H94.0859V603.75H89.8814ZM102.207 605.182C103.979 605.182 105.275 604.295 105.684 602.977L104.388 602.614C104.048 603.523 103.258 603.977 102.207 603.977C100.633 603.977 99.5476 602.96 99.4851 601.091H105.82V600.523C105.82 597.273 103.888 596.159 102.07 596.159C99.7067 596.159 98.1385 598.023 98.1385 600.705C98.1385 603.386 99.6839 605.182 102.207 605.182ZM99.4851 599.932C99.576 598.574 100.536 597.364 102.07 597.364C103.525 597.364 104.457 598.455 104.457 599.932H99.4851ZM107.087 605H107.542C109.474 605 110.031 603.5 110.156 600.636L110.292 597.523H113.496V605H114.837V596.273H109.019L108.86 600.136C108.746 603.068 108.451 603.75 107.406 603.75H107.087V605ZM120.957 605.182C122.729 605.182 124.025 604.295 124.434 602.977L123.138 602.614C122.798 603.523 122.008 603.977 120.957 603.977C119.383 603.977 118.298 602.96 118.235 601.091H124.57V600.523C124.57 597.273 122.638 596.159 120.82 596.159C118.457 596.159 116.888 598.023 116.888 600.705C116.888 603.386 118.434 605.182 120.957 605.182ZM118.235 599.932C118.326 598.574 119.286 597.364 120.82 597.364C122.275 597.364 123.207 598.455 123.207 599.932H118.235ZM127.951 596.273H126.61V605H127.951V601.273H132.133V605H133.474V596.273H132.133V600.023H127.951V596.273ZM137.263 603.023V596.273H135.923V605H137.491L141.673 598.25V605H143.013V596.273H141.468L137.263 603.023ZM149.129 605.182C150.901 605.182 152.197 604.295 152.606 602.977L151.31 602.614C150.969 603.523 150.18 603.977 149.129 603.977C147.555 603.977 146.469 602.96 146.407 601.091H152.742V600.523C152.742 597.273 150.81 596.159 148.992 596.159C146.629 596.159 145.06 598.023 145.06 600.705C145.06 603.386 146.606 605.182 149.129 605.182ZM146.407 599.932C146.498 598.574 147.458 597.364 148.992 597.364C150.447 597.364 151.379 598.455 151.379 599.932H146.407ZM159.282 605H160.623V601.318H161.827L164.691 605H166.418L162.85 600.477L166.373 596.273H164.646L161.509 600.068H160.623V596.273H159.282V605ZM171.062 605.182C173.425 605.182 175.016 603.386 175.016 600.682C175.016 597.955 173.425 596.159 171.062 596.159C168.698 596.159 167.107 597.955 167.107 600.682C167.107 603.386 168.698 605.182 171.062 605.182ZM171.062 603.977C169.266 603.977 168.448 602.432 168.448 600.682C168.448 598.932 169.266 597.364 171.062 597.364C172.857 597.364 173.675 598.932 173.675 600.682C173.675 602.432 172.857 603.977 171.062 603.977ZM178.404 596.273H177.063V605H178.404V601.273H182.586V605H183.927V596.273H182.586V600.023H178.404V596.273ZM186.376 605H190.489C192.262 605 193.33 604 193.33 602.659C193.33 601.29 192.29 600.551 191.33 600.409C192.313 600.205 193.012 599.653 193.012 598.591C193.012 597.199 191.819 596.273 189.944 596.273H186.376V605ZM187.648 603.773V601.091H190.489C191.41 601.091 191.967 601.642 191.967 602.545C191.967 603.307 191.41 603.773 190.489 603.773H187.648ZM187.648 599.932V597.5H189.944C191.018 597.5 191.671 597.949 191.671 598.682C191.671 599.46 191.018 599.932 189.944 599.932H187.648ZM199.019 605.182C200.792 605.182 202.087 604.295 202.496 602.977L201.201 602.614C200.86 603.523 200.07 603.977 199.019 603.977C197.445 603.977 196.36 602.96 196.298 601.091H202.633V600.523C202.633 597.273 200.701 596.159 198.883 596.159C196.519 596.159 194.951 598.023 194.951 600.705C194.951 603.386 196.496 605.182 199.019 605.182ZM196.298 599.932C196.388 598.574 197.349 597.364 198.883 597.364C200.337 597.364 201.269 598.455 201.269 599.932H196.298ZM204.673 608.273H206.013V603.659H206.127C206.423 604.136 206.991 605.182 208.673 605.182C210.854 605.182 212.377 603.432 212.377 600.659C212.377 597.909 210.854 596.159 208.65 596.159C206.945 596.159 206.423 597.205 206.127 597.659H205.968V596.273H204.673V608.273ZM205.991 600.636C205.991 598.682 206.854 597.364 208.491 597.364C210.195 597.364 211.036 598.795 211.036 600.636C211.036 602.5 210.173 603.977 208.491 603.977C206.877 603.977 205.991 602.614 205.991 600.636ZM217.968 605.182C219.9 605.182 221.173 604 221.4 602.455H220.059C219.809 603.409 219.013 603.977 217.968 603.977C216.377 603.977 215.354 602.659 215.354 600.636C215.354 598.659 216.4 597.364 217.968 597.364C219.15 597.364 219.854 598.091 220.059 598.886H221.4C221.173 597.25 219.786 596.159 217.945 596.159C215.582 596.159 214.013 598.023 214.013 600.682C214.013 603.295 215.513 605.182 217.968 605.182ZM224.701 603.023V596.273H223.36V605H224.928L229.11 598.25V605H230.451V596.273H228.906L224.701 603.023ZM234.248 603.023V596.273H232.907V605H234.475L238.657 598.25V605H239.998V596.273H238.452L234.248 603.023ZM114.219 617.523H117.106V625H118.447V617.523H121.31V616.273H114.219V617.523ZM126.472 625.182C128.245 625.182 129.54 624.295 129.95 622.977L128.654 622.614C128.313 623.523 127.523 623.977 126.472 623.977C124.898 623.977 123.813 622.96 123.751 621.091H130.086V620.523C130.086 617.273 128.154 616.159 126.336 616.159C123.972 616.159 122.404 618.023 122.404 620.705C122.404 623.386 123.95 625.182 126.472 625.182ZM123.751 619.932C123.842 618.574 124.802 617.364 126.336 617.364C127.79 617.364 128.722 618.455 128.722 619.932H123.751ZM132.126 625H133.467V621.318H134.671L137.535 625H139.262L135.694 620.477L139.217 616.273H137.489L134.353 620.068H133.467V616.273H132.126V625ZM143.906 625.182C145.837 625.182 147.11 624 147.337 622.455H145.996C145.746 623.409 144.951 623.977 143.906 623.977C142.315 623.977 141.292 622.659 141.292 620.636C141.292 618.659 142.337 617.364 143.906 617.364C145.087 617.364 145.792 618.091 145.996 618.886H147.337C147.11 617.25 145.724 616.159 143.883 616.159C141.519 616.159 139.951 618.023 139.951 620.682C139.951 623.295 141.451 625.182 143.906 625.182ZM148.61 617.523H151.496V625H152.837V617.523H155.701V616.273H148.61V617.523ZM160.749 625.182C163.113 625.182 164.704 623.386 164.704 620.682C164.704 617.955 163.113 616.159 160.749 616.159C158.386 616.159 156.795 617.955 156.795 620.682C156.795 623.386 158.386 625.182 160.749 625.182ZM160.749 623.977C158.954 623.977 158.136 622.432 158.136 620.682C158.136 618.932 158.954 617.364 160.749 617.364C162.545 617.364 163.363 618.932 163.363 620.682C163.363 622.432 162.545 623.977 160.749 623.977ZM166.751 625H170.864C172.637 625 173.705 624 173.705 622.659C173.705 621.29 172.665 620.551 171.705 620.409C172.688 620.205 173.387 619.653 173.387 618.591C173.387 617.199 172.194 616.273 170.319 616.273H166.751V625ZM168.023 623.773V621.091H170.864C171.785 621.091 172.342 621.642 172.342 622.545C172.342 623.307 171.785 623.773 170.864 623.773H168.023ZM168.023 619.932V617.5H170.319C171.393 617.5 172.046 617.949 172.046 618.682C172.046 619.46 171.393 619.932 170.319 619.932H168.023Z" fill="white"/>
</g>
<path d="M507.5 543C507.5 542.172 506.828 541.5 506 541.5C505.172 541.5 504.5 542.172 504.5 543H507.5ZM266.939 607.939C266.354 608.525 266.354 609.475 266.939 610.061L276.485 619.607C277.071 620.192 278.021 620.192 278.607 619.607C279.192 619.021 279.192 618.071 278.607 617.485L270.121 609L278.607 600.515C279.192 599.929 279.192 598.979 278.607 598.393C278.021 597.808 277.071 597.808 276.485 598.393L266.939 607.939ZM504.5 543V585H507.5V543H504.5ZM482 607.5H268V610.5H482V607.5ZM504.5 585C504.5 597.426 494.426 607.5 482 607.5V610.5C496.083 610.5 507.5 599.083 507.5 585H504.5Z" fill="#E3FFF2"/>
<g filter="url(#filter8_d_1838_28)">
<g filter="url(#filter9_d_1838_28)">
<rect x="22" y="12" width="240" height="120" rx="8" fill="#8476AA"/>
</g>
<path d="M50.804 70C50.3722 67.6136 48.4631 66.2045 46.1222 66.2045C43.1449 66.2045 40.9858 68.5 40.9858 72.1818C40.9858 75.8636 43.1449 78.1591 46.1222 78.1591C48.4631 78.1591 50.3722 76.75 50.804 74.3636H49.3949C49.054 75.9773 47.6676 76.8409 46.1222 76.8409C44.0085 76.8409 42.3494 75.2045 42.3494 72.1818C42.3494 69.1591 44.0085 67.5227 46.1222 67.5227C47.6676 67.5227 49.054 68.3864 49.3949 70H50.804ZM59.3764 66C58.9503 66.358 58.3139 66.358 57.4219 66.3523C57.1321 66.3523 56.8139 66.3523 56.4673 66.3636C53.8082 66.4318 52.4901 68.4545 52.4901 72.3409V73.2727C52.4901 76.5 54.0582 78.1818 56.3991 78.1818C58.7344 78.1818 60.2855 76.4886 60.2855 73.75C60.2855 71 58.7116 69.5455 56.6719 69.5455C55.473 69.5455 54.3537 70.0455 53.7628 71.1364H53.6491C53.831 68.8864 54.6719 67.6818 56.4901 67.6136C58.1037 67.5455 59.2628 67.5909 60.0582 66.8182L59.3764 66ZM56.3991 76.9773C54.8082 76.9773 53.831 75.7045 53.831 73.75C53.8594 71.8409 54.8196 70.75 56.3764 70.75C57.973 70.75 58.9446 71.8409 58.9446 73.75C58.9446 75.7159 57.9787 76.9773 56.3991 76.9773ZM65.8821 78.1818C68.2457 78.1818 69.8366 76.3864 69.8366 73.6818C69.8366 70.9545 68.2457 69.1591 65.8821 69.1591C63.5185 69.1591 61.9276 70.9545 61.9276 73.6818C61.9276 76.3864 63.5185 78.1818 65.8821 78.1818ZM65.8821 76.9773C64.0866 76.9773 63.2685 75.4318 63.2685 73.6818C63.2685 71.9318 64.0866 70.3636 65.8821 70.3636C67.6776 70.3636 68.4957 71.9318 68.4957 73.6818C68.4957 75.4318 67.6776 76.9773 65.8821 76.9773ZM71.8835 81.2727H73.2244V76.6591H73.3381C73.6335 77.1364 74.2017 78.1818 75.8835 78.1818C78.0653 78.1818 79.5881 76.4318 79.5881 73.6591C79.5881 70.9091 78.0653 69.1591 75.8608 69.1591C74.1562 69.1591 73.6335 70.2045 73.3381 70.6591H73.179V69.2727H71.8835V81.2727ZM73.2017 73.6364C73.2017 71.6818 74.0653 70.3636 75.7017 70.3636C77.4062 70.3636 78.2472 71.7955 78.2472 73.6364C78.2472 75.5 77.3835 76.9773 75.7017 76.9773C74.0881 76.9773 73.2017 75.6136 73.2017 73.6364ZM87.4744 76.0227V69.2727H86.1335V78H87.7017L91.8835 71.25V78H93.2244V69.2727H91.679L87.4744 76.0227ZM103.726 78.1818C106.089 78.1818 107.68 76.3864 107.68 73.6818C107.68 70.9545 106.089 69.1591 103.726 69.1591C101.362 69.1591 99.7713 70.9545 99.7713 73.6818C99.7713 76.3864 101.362 78.1818 103.726 78.1818ZM103.726 76.9773C101.93 76.9773 101.112 75.4318 101.112 73.6818C101.112 71.9318 101.93 70.3636 103.726 70.3636C105.521 70.3636 106.339 71.9318 106.339 73.6818C106.339 75.4318 105.521 76.9773 103.726 76.9773ZM116.205 66C115.778 66.358 115.142 66.358 114.25 66.3523C113.96 66.3523 113.642 66.3523 113.295 66.3636C110.636 66.4318 109.318 68.4545 109.318 72.3409V73.2727C109.318 76.5 110.886 78.1818 113.227 78.1818C115.562 78.1818 117.114 76.4886 117.114 73.75C117.114 71 115.54 69.5455 113.5 69.5455C112.301 69.5455 111.182 70.0455 110.591 71.1364H110.477C110.659 68.8864 111.5 67.6818 113.318 67.6136C114.932 67.5455 116.091 67.5909 116.886 66.8182L116.205 66ZM113.227 76.9773C111.636 76.9773 110.659 75.7045 110.659 73.75C110.688 71.8409 111.648 70.75 113.205 70.75C114.801 70.75 115.773 71.8409 115.773 73.75C115.773 75.7159 114.807 76.9773 113.227 76.9773ZM119.165 81.2727H120.506V76.6591H120.619C120.915 77.1364 121.483 78.1818 123.165 78.1818C125.347 78.1818 126.869 76.4318 126.869 73.6591C126.869 70.9091 125.347 69.1591 123.142 69.1591C121.438 69.1591 120.915 70.2045 120.619 70.6591H120.46V69.2727H119.165V81.2727ZM120.483 73.6364C120.483 71.6818 121.347 70.3636 122.983 70.3636C124.688 70.3636 125.528 71.7955 125.528 73.6364C125.528 75.5 124.665 76.9773 122.983 76.9773C121.369 76.9773 120.483 75.6136 120.483 73.6364ZM131.483 78.2045C133.006 78.2045 133.801 77.3864 134.074 76.8182H134.142V78H135.483V72.25C135.483 69.4773 133.369 69.1591 132.256 69.1591C130.938 69.1591 129.438 69.6136 128.756 71.2045L130.028 71.6591C130.324 71.0227 131.023 70.3409 132.301 70.3409C133.534 70.3409 134.142 70.9943 134.142 72.1136V72.1591C134.142 72.8068 133.483 72.75 131.892 72.9545C130.273 73.1648 128.506 73.5227 128.506 75.5227C128.506 77.2273 129.824 78.2045 131.483 78.2045ZM131.688 77C130.619 77 129.847 76.5227 129.847 75.5909C129.847 74.5682 130.778 74.25 131.824 74.1136C132.392 74.0455 133.915 73.8864 134.142 73.6136V74.8409C134.142 75.9318 133.278 77 131.688 77ZM144.408 66C143.982 66.358 143.345 66.358 142.453 66.3523C142.163 66.3523 141.845 66.3523 141.499 66.3636C138.839 66.4318 137.521 68.4545 137.521 72.3409V73.2727C137.521 76.5 139.089 78.1818 141.43 78.1818C143.766 78.1818 145.317 76.4886 145.317 73.75C145.317 71 143.743 69.5455 141.703 69.5455C140.504 69.5455 139.385 70.0455 138.794 71.1364H138.68C138.862 68.8864 139.703 67.6818 141.521 67.6136C143.135 67.5455 144.294 67.5909 145.089 66.8182L144.408 66ZM141.43 76.9773C139.839 76.9773 138.862 75.7045 138.862 73.75C138.891 71.8409 139.851 70.75 141.408 70.75C143.004 70.75 143.976 71.8409 143.976 73.75C143.976 75.7159 143.01 76.9773 141.43 76.9773ZM150.913 78.1818C153.277 78.1818 154.868 76.3864 154.868 73.6818C154.868 70.9545 153.277 69.1591 150.913 69.1591C148.55 69.1591 146.959 70.9545 146.959 73.6818C146.959 76.3864 148.55 78.1818 150.913 78.1818ZM150.913 76.9773C149.118 76.9773 148.3 75.4318 148.3 73.6818C148.3 71.9318 149.118 70.3636 150.913 70.3636C152.709 70.3636 153.527 71.9318 153.527 73.6818C153.527 75.4318 152.709 76.9773 150.913 76.9773ZM155.774 70.5227H158.661V78H160.001V70.5227H162.865V69.2727H155.774V70.5227ZM164.821 78H166.162V74.3182H167.366L170.23 78H171.957L168.389 73.4773L171.912 69.2727H170.185L167.048 73.0682H166.162V69.2727H164.821V78ZM175.983 78.2045C177.506 78.2045 178.301 77.3864 178.574 76.8182H178.642V78H179.983V72.25C179.983 69.4773 177.869 69.1591 176.756 69.1591C175.438 69.1591 173.938 69.6136 173.256 71.2045L174.528 71.6591C174.824 71.0227 175.523 70.3409 176.801 70.3409C178.034 70.3409 178.642 70.9943 178.642 72.1136V72.1591C178.642 72.8068 177.983 72.75 176.392 72.9545C174.773 73.1648 173.006 73.5227 173.006 75.5227C173.006 77.2273 174.324 78.2045 175.983 78.2045ZM176.188 77C175.119 77 174.347 76.5227 174.347 75.5909C174.347 74.5682 175.278 74.25 176.324 74.1136C176.892 74.0455 178.415 73.8864 178.642 73.6136V74.8409C178.642 75.9318 177.778 77 176.188 77ZM185.999 80.5H187.339V78H193.794V80.5H195.135V76.75H193.794V69.2727H188.249L187.953 72.7273C187.743 75.1705 187.43 76.0114 186.726 76.75H185.999V80.5ZM188.249 76.75C188.862 75.9432 189.084 74.5511 189.271 72.7273L189.499 70.5227H192.453V76.75H188.249ZM199.483 78.2045C201.006 78.2045 201.801 77.3864 202.074 76.8182H202.142V78H203.483V72.25C203.483 69.4773 201.369 69.1591 200.256 69.1591C198.938 69.1591 197.438 69.6136 196.756 71.2045L198.028 71.6591C198.324 71.0227 199.023 70.3409 200.301 70.3409C201.534 70.3409 202.142 70.9943 202.142 72.1136V72.1591C202.142 72.8068 201.483 72.75 199.892 72.9545C198.273 73.1648 196.506 73.5227 196.506 75.5227C196.506 77.2273 197.824 78.2045 199.483 78.2045ZM199.688 77C198.619 77 197.847 76.5227 197.847 75.5909C197.847 74.5682 198.778 74.25 199.824 74.1136C200.392 74.0455 201.915 73.8864 202.142 73.6136V74.8409C202.142 75.9318 201.278 77 199.688 77ZM207.271 69.2727H205.93V78H207.271V74.2727H211.453V78H212.794V69.2727H211.453V73.0227H207.271V69.2727ZM216.584 69.2727H215.243V78H216.584V74.2727H220.766V78H222.107V69.2727H220.766V73.0227H216.584V69.2727ZM225.896 72.4318V69.2727H224.555V78H228.214C230.26 78 231.374 76.75 231.374 75.1818C231.374 73.5909 230.26 72.4318 228.214 72.4318H225.896ZM232.76 78H234.101V69.2727H232.76V78ZM225.896 73.6818H228.214C229.277 73.6818 230.033 74.3295 230.033 75.25C230.033 76.1307 229.277 76.75 228.214 76.75H225.896V73.6818ZM237.555 69.2727H236.01L238.783 73.6364L236.01 78H237.555L239.646 74.6136L241.737 78H243.283L240.464 73.6364L243.283 69.2727H241.737L239.646 72.8409L237.555 69.2727Z" fill="white"/>
</g>
<path d="M266 70.5C265.172 70.5 264.5 71.1716 264.5 72C264.5 72.8284 265.172 73.5 266 73.5V70.5ZM383.061 210.061C383.646 209.475 383.646 208.525 383.061 207.939L373.515 198.393C372.929 197.808 371.979 197.808 371.393 198.393C370.808 198.979 370.808 199.929 371.393 200.515L379.879 209L371.393 217.485C370.808 218.071 370.808 219.021 371.393 219.607C371.979 220.192 372.929 220.192 373.515 219.607L383.061 210.061ZM266 73.5H300V70.5H266V73.5ZM322.5 96V185H325.5V96H322.5ZM348 210.5H382V207.5H348V210.5ZM322.5 185C322.5 199.083 333.917 210.5 348 210.5V207.5C335.574 207.5 325.5 197.426 325.5 185H322.5ZM300 73.5C312.426 73.5 322.5 83.5736 322.5 96H325.5C325.5 81.9167 314.083 70.5 300 70.5V73.5Z" fill="#E3FFF2"/>
<defs>
<filter id="filter0_d_1838_28" x="382" y="149" width="248" height="128" filterUnits="userSpaceOnUse" color-interpolation-filters="sRGB">
<feFlood flood-opacity="0" result="BackgroundImageFix"/>
<feColorMatrix in="SourceAlpha" type="matrix" values="0 0 0 0 0 0 0 0 0 0 0 0 0 0 0 0 0 0 127 0" result="hardAlpha"/>
<feOffset dy="4"/>
<feGaussianBlur stdDeviation="2"/>
<feComposite in2="hardAlpha" operator="out"/>
<feColorMatrix type="matrix" values="0 0 0 0 0 0 0 0 0 0 0 0 0 0 0 0 0 0 0.25 0"/>
<feBlend mode="normal" in2="BackgroundImageFix" result="effect1_dropShadow_1838_28"/>
<feBlend mode="normal" in="SourceGraphic" in2="effect1_dropShadow_1838_28" result="shape"/>
</filter>
<filter id="filter1_d_1838_28" x="364" y="137" width="284" height="164" filterUnits="userSpaceOnUse" color-interpolation-filters="sRGB">
<feFlood flood-opacity="0" result="BackgroundImageFix"/>
<feColorMatrix in="SourceAlpha" type="matrix" values="0 0 0 0 0 0 0 0 0 0 0 0 0 0 0 0 0 0 127 0" result="hardAlpha"/>
<feOffset dy="10"/>
<feGaussianBlur stdDeviation="11"/>
<feColorMatrix type="matrix" values="0 0 0 0 0.289635 0 0 0 0 0.537189 0 0 0 0 0.8375 0 0 0 0.3 0"/>
<feBlend mode="normal" in2="BackgroundImageFix" result="effect1_dropShadow_1838_28"/>
<feBlend mode="normal" in="SourceGraphic" in2="effect1_dropShadow_1838_28" result="shape"/>
</filter>
<filter id="filter2_d_1838_28" x="20" y="266" width="248" height="128" filterUnits="userSpaceOnUse" color-interpolation-filters="sRGB">
<feFlood flood-opacity="0" result="BackgroundImageFix"/>
<feColorMatrix in="SourceAlpha" type="matrix" values="0 0 0 0 0 0 0 0 0 0 0 0 0 0 0 0 0 0 127 0" result="hardAlpha"/>
<feOffset dy="4"/>
<feGaussianBlur stdDeviation="2"/>
<feComposite in2="hardAlpha" operator="out"/>
<feColorMatrix type="matrix" values="0 0 0 0 0 0 0 0 0 0 0 0 0 0 0 0 0 0 0.25 0"/>
<feBlend mode="normal" in2="BackgroundImageFix" result="effect1_dropShadow_1838_28"/>
<feBlend mode="normal" in="SourceGraphic" in2="effect1_dropShadow_1838_28" result="shape"/>
</filter>
<filter id="filter3_d_1838_28" x="2" y="254" width="284" height="164" filterUnits="userSpaceOnUse" color-interpolation-filters="sRGB">
<feFlood flood-opacity="0" result="BackgroundImageFix"/>
<feColorMatrix in="SourceAlpha" type="matrix" values="0 0 0 0 0 0 0 0 0 0 0 0 0 0 0 0 0 0 127 0" result="hardAlpha"/>
<feOffset dy="10"/>
<feGaussianBlur stdDeviation="11"/>
<feColorMatrix type="matrix" values="0 0 0 0 0.289635 0 0 0 0 0.537189 0 0 0 0 0.8375 0 0 0 0.3 0"/>
<feBlend mode="normal" in2="BackgroundImageFix" result="effect1_dropShadow_1838_28"/>
<feBlend mode="normal" in="SourceGraphic" in2="effect1_dropShadow_1838_28" result="shape"/>
</filter>
<filter id="filter4_d_1838_28" x="382" y="419" width="248" height="128" filterUnits="userSpaceOnUse" color-interpolation-filters="sRGB">
<feFlood flood-opacity="0" result="BackgroundImageFix"/>
<feColorMatrix in="SourceAlpha" type="matrix" values="0 0 0 0 0 0 0 0 0 0 0 0 0 0 0 0 0 0 127 0" result="hardAlpha"/>
<feOffset dy="4"/>
<feGaussianBlur stdDeviation="2"/>
<feComposite in2="hardAlpha" operator="out"/>
<feColorMatrix type="matrix" values="0 0 0 0 0 0 0 0 0 0 0 0 0 0 0 0 0 0 0.25 0"/>
<feBlend mode="normal" in2="BackgroundImageFix" result="effect1_dropShadow_1838_28"/>
<feBlend mode="normal" in="SourceGraphic" in2="effect1_dropShadow_1838_28" result="shape"/>
</filter>
<filter id="filter5_d_1838_28" x="364" y="407" width="284" height="164" filterUnits="userSpaceOnUse" color-interpolation-filters="sRGB">
<feFlood flood-opacity="0" result="BackgroundImageFix"/>
<feColorMatrix in="SourceAlpha" type="matrix" values="0 0 0 0 0 0 0 0 0 0 0 0 0 0 0 0 0 0 127 0" result="hardAlpha"/>
<feOffset dy="10"/>
<feGaussianBlur stdDeviation="11"/>
<feColorMatrix type="matrix" values="0 0 0 0 0.289635 0 0 0 0 0.537189 0 0 0 0 0.8375 0 0 0 0.3 0"/>
<feBlend mode="normal" in2="BackgroundImageFix" result="effect1_dropShadow_1838_28"/>
<feBlend mode="normal" in="SourceGraphic" in2="effect1_dropShadow_1838_28" result="shape"/>
</filter>
<filter id="filter6_d_1838_28" x="20" y="549" width="248" height="128" filterUnits="userSpaceOnUse" color-interpolation-filters="sRGB">
<feFlood flood-opacity="0" result="BackgroundImageFix"/>
<feColorMatrix in="SourceAlpha" type="matrix" values="0 0 0 0 0 0 0 0 0 0 0 0 0 0 0 0 0 0 127 0" result="hardAlpha"/>
<feOffset dy="4"/>
<feGaussianBlur stdDeviation="2"/>
<feComposite in2="hardAlpha" operator="out"/>
<feColorMatrix type="matrix" values="0 0 0 0 0 0 0 0 0 0 0 0 0 0 0 0 0 0 0.25 0"/>
<feBlend mode="normal" in2="BackgroundImageFix" result="effect1_dropShadow_1838_28"/>
<feBlend mode="normal" in="SourceGraphic" in2="effect1_dropShadow_1838_28" result="shape"/>
</filter>
<filter id="filter7_d_1838_28" x="2" y="537" width="284" height="164" filterUnits="userSpaceOnUse" color-interpolation-filters="sRGB">
<feFlood flood-opacity="0" result="BackgroundImageFix"/>
<feColorMatrix in="SourceAlpha" type="matrix" values="0 0 0 0 0 0 0 0 0 0 0 0 0 0 0 0 0 0 127 0" result="hardAlpha"/>
<feOffset dy="10"/>
<feGaussianBlur stdDeviation="11"/>
<feColorMatrix type="matrix" values="0 0 0 0 0.289635 0 0 0 0 0.537189 0 0 0 0 0.8375 0 0 0 0.3 0"/>
<feBlend mode="normal" in2="BackgroundImageFix" result="effect1_dropShadow_1838_28"/>
<feBlend mode="normal" in="SourceGraphic" in2="effect1_dropShadow_1838_28" result="shape"/>
</filter>
<filter id="filter8_d_1838_28" x="18" y="12" width="248" height="128" filterUnits="userSpaceOnUse" color-interpolation-filters="sRGB">
<feFlood flood-opacity="0" result="BackgroundImageFix"/>
<feColorMatrix in="SourceAlpha" type="matrix" values="0 0 0 0 0 0 0 0 0 0 0 0 0 0 0 0 0 0 127 0" result="hardAlpha"/>
<feOffset dy="4"/>
<feGaussianBlur stdDeviation="2"/>
<feComposite in2="hardAlpha" operator="out"/>
<feColorMatrix type="matrix" values="0 0 0 0 0 0 0 0 0 0 0 0 0 0 0 0 0 0 0.25 0"/>
<feBlend mode="normal" in2="BackgroundImageFix" result="effect1_dropShadow_1838_28"/>
<feBlend mode="normal" in="SourceGraphic" in2="effect1_dropShadow_1838_28" result="shape"/>
</filter>
<filter id="filter9_d_1838_28" x="0" y="0" width="284" height="164" filterUnits="userSpaceOnUse" color-interpolation-filters="sRGB">
<feFlood flood-opacity="0" result="BackgroundImageFix"/>
<feColorMatrix in="SourceAlpha" type="matrix" values="0 0 0 0 0 0 0 0 0 0 0 0 0 0 0 0 0 0 127 0" result="hardAlpha"/>
<feOffset dy="10"/>
<feGaussianBlur stdDeviation="11"/>
<feColorMatrix type="matrix" values="0 0 0 0 0.289635 0 0 0 0 0.537189 0 0 0 0 0.8375 0 0 0 0.3 0"/>
<feBlend mode="normal" in2="BackgroundImageFix" result="effect1_dropShadow_1838_28"/>
<feBlend mode="normal" in="SourceGraphic" in2="effect1_dropShadow_1838_28" result="shape"/>
</filter>
</defs>
</svg>
