<svg width="521" height="568" viewBox="0 0 521 568" fill="none" xmlns="http://www.w3.org/2000/svg">
<g opacity="0.2">
<path d="M201.166 390.289C199.29 389.368 196.826 390.01 195.663 391.723C194.501 393.436 195.079 395.573 196.955 396.494C198.83 397.415 201.295 396.773 202.458 395.06C203.607 393.366 203.042 391.21 201.166 390.289Z" fill="url(#paint0_linear_3_434)"/>
<path d="M119.63 354.396L120.346 353.322L197.348 391.82L196.632 392.893L119.63 354.396Z" fill="url(#paint1_linear_3_434)"/>
<path d="M197.654 205.589C195.779 204.668 193.314 205.31 192.151 207.023C190.989 208.736 191.567 210.873 193.443 211.794C195.319 212.716 197.783 212.073 198.946 210.36C200.109 208.647 199.53 206.511 197.654 205.589Z" fill="url(#paint2_linear_3_434)"/>
<path d="M116.131 169.678L116.847 168.604L193.871 207.112L193.155 208.186L116.131 169.678Z" fill="url(#paint3_linear_3_434)"/>
<path d="M90.6238 202.141C88.748 201.22 86.2835 201.862 85.1209 203.575C83.9582 205.288 84.5366 207.425 86.4124 208.346C88.2881 209.267 90.7526 208.625 91.9153 206.912C93.078 205.199 92.4996 203.062 90.6238 202.141Z" fill="url(#paint4_linear_3_434)"/>
<path d="M9.08766 166.248L9.80359 165.175L86.8062 203.672L86.0902 204.745L9.08766 166.248Z" fill="url(#paint5_linear_3_434)"/>
<path d="M88.2069 241.211C86.3311 240.29 83.8666 240.932 82.704 242.645C81.5413 244.358 82.1198 246.495 83.9955 247.416C85.8713 248.337 88.3357 247.695 89.4984 245.982C90.669 244.298 90.1035 242.142 88.2069 241.211Z" fill="url(#paint6_linear_3_434)"/>
<path d="M6.69215 205.329L7.40808 204.255L84.4319 242.763L83.716 243.837L6.69215 205.329Z" fill="url(#paint7_linear_3_434)"/>
<path d="M254.35 390.09C252.474 389.169 250.009 389.811 248.847 391.524C247.684 393.237 248.262 395.374 250.138 396.295C252.014 397.216 254.478 396.574 255.641 394.861C256.804 393.148 256.225 391.012 254.35 390.09Z" fill="url(#paint8_linear_3_434)"/>
<path d="M172.813 354.197L173.529 353.124L250.532 391.621L249.816 392.695L172.813 354.197Z" fill="url(#paint9_linear_3_434)"/>
<path d="M-1.23882 324.576C-3.11459 323.655 -5.57908 324.297 -6.74174 326.01C-7.90439 327.724 -7.32598 329.86 -5.45021 330.781C-3.57444 331.703 -1.10993 331.06 0.0527248 329.347C1.21538 327.634 0.636954 325.498 -1.23882 324.576Z" fill="url(#paint10_linear_3_434)"/>
<path d="M50.9313 239.377C49.0555 238.456 46.591 239.098 45.4284 240.811C44.2657 242.524 44.8441 244.661 46.7199 245.582C48.5957 246.503 51.0602 245.861 52.2228 244.148C53.3855 242.435 52.8071 240.298 50.9313 239.377Z" fill="url(#paint11_linear_3_434)"/>
<path d="M7.94212 222.777L8.65759 221.705L47.135 240.92L46.4195 241.992L7.94212 222.777Z" fill="url(#paint12_linear_3_434)"/>
<path d="M168.658 450.419C166.782 449.498 164.318 450.14 163.155 451.854C161.992 453.567 162.571 455.703 164.446 456.625C166.322 457.546 168.787 456.904 169.949 455.191C171.099 453.497 170.534 451.341 168.658 450.419Z" fill="url(#paint13_linear_3_434)"/>
<path d="M125.647 433.809L126.363 432.738L164.84 451.952L164.125 453.024L125.647 433.809Z" fill="url(#paint14_linear_3_434)"/>
<path d="M42.8042 100.391C40.9285 99.4699 38.464 100.112 37.3014 101.825C36.1387 103.538 36.7171 105.675 38.5929 106.596C40.4686 107.517 42.9331 106.875 44.0957 105.162C45.2455 103.468 44.68 101.312 42.8042 100.391Z" fill="url(#paint15_linear_3_434)"/>
<path d="M-0.184843 83.7916L0.53064 82.7197L39.0079 101.934L38.2924 103.006L-0.184843 83.7916Z" fill="url(#paint16_linear_3_434)"/>
<path d="M80.3999 174.211C78.5241 173.29 76.0596 173.932 74.8969 175.645C73.7343 177.358 74.3127 179.495 76.1884 180.416C78.0642 181.338 80.5287 180.695 81.6914 178.982C82.854 177.269 82.2756 175.133 80.3999 174.211Z" fill="url(#paint17_linear_3_434)"/>
<path d="M37.3894 157.601L38.1049 156.529L76.5821 175.744L75.8666 176.816L37.3894 157.601Z" fill="url(#paint18_linear_3_434)"/>
<path d="M271.867 344.328C269.992 343.407 267.527 344.049 266.365 345.762C265.202 347.475 265.78 349.612 267.656 350.533C269.532 351.454 271.996 350.812 273.159 349.099C274.322 347.386 273.743 345.249 271.867 344.328Z" fill="url(#paint19_linear_3_434)"/>
<path d="M190.344 308.417L191.06 307.343L268.083 345.851L267.368 346.924L190.344 308.417Z" fill="url(#paint20_linear_3_434)"/>
<path d="M200.703 171.957C198.827 171.036 196.362 171.678 195.2 173.391C194.037 175.104 194.615 177.241 196.491 178.162C198.367 179.083 200.832 178.441 201.994 176.728C203.157 175.015 202.578 172.878 200.703 171.957Z" fill="url(#paint21_linear_3_434)"/>
<path d="M119.188 136.075L119.904 135.001L196.906 173.498L196.19 174.572L119.188 136.075Z" fill="url(#paint22_linear_3_434)"/>
<path d="M172.999 410.903C171.123 409.982 168.659 410.624 167.496 412.337C166.333 414.05 166.912 416.186 168.788 417.108C170.663 418.029 173.128 417.387 174.291 415.674C175.474 413.971 174.896 411.834 172.999 410.903Z" fill="url(#paint23_linear_3_434)"/>
<path d="M91.4968 375.002L92.2127 373.928L169.237 412.436L168.521 413.51L91.4968 375.002Z" fill="url(#paint24_linear_3_434)"/>
<path d="M214.575 96.4854C212.699 95.5642 210.235 96.2064 209.072 97.9195C207.909 99.6326 208.488 101.769 210.364 102.691C212.239 103.612 214.704 102.97 215.867 101.257C217.029 99.5434 216.451 97.4067 214.575 96.4854Z" fill="url(#paint25_linear_3_434)"/>
<path d="M133.051 60.574L133.767 59.5002L210.791 98.008L210.075 99.0818L133.051 60.574Z" fill="url(#paint26_linear_3_434)"/>
<path d="M464.224 362.306C462.348 361.384 459.883 362.027 458.721 363.74C457.558 365.453 458.137 367.59 460.012 368.511C461.888 369.432 464.353 368.79 465.515 367.077C466.699 365.374 466.099 363.227 464.224 362.306Z" fill="url(#paint27_linear_3_434)"/>
<path d="M193.882 231.881L194.598 230.806L460.44 363.827L459.724 364.902L193.882 231.881Z" fill="url(#paint28_linear_3_434)"/>
<path d="M499.915 286.314C498.039 285.393 495.575 286.035 494.412 287.748C493.249 289.461 493.828 291.598 495.704 292.519C497.579 293.44 500.044 292.798 501.207 291.085C502.39 289.382 501.812 287.246 499.915 286.314Z" fill="url(#paint29_linear_3_434)"/>
<path d="M87.3374 84.7163L88.0536 83.6409L496.14 287.865L495.424 288.94L87.3374 84.7163Z" fill="url(#paint30_linear_3_434)"/>
<path d="M226.571 414.363C224.696 413.441 222.231 414.084 221.069 415.797C219.906 417.51 220.484 419.646 222.36 420.568C224.236 421.489 226.7 420.847 227.863 419.134C229.026 417.421 228.447 415.284 226.571 414.363Z" fill="url(#paint31_linear_3_434)"/>
<path d="M-43.7703 283.937L-43.054 282.862L222.788 415.884L222.071 416.959L-43.7703 283.937Z" fill="url(#paint32_linear_3_434)"/>
<path d="M358.76 371.889C356.884 370.968 354.42 371.61 353.257 373.323C352.095 375.036 352.673 377.173 354.549 378.094C356.424 379.016 358.889 378.373 360.052 376.66C361.235 374.958 360.636 372.811 358.76 371.889Z" fill="url(#paint33_linear_3_434)"/>
<path d="M88.4274 241.493L89.1436 240.418L354.985 373.44L354.269 374.515L88.4274 241.493Z" fill="url(#paint34_linear_3_434)"/>
<path d="M419.461 237.839C417.585 236.917 415.12 237.56 413.958 239.273C412.795 240.986 413.374 243.123 415.249 244.044C417.125 244.965 419.59 244.323 420.752 242.61C421.915 240.897 421.336 238.76 419.461 237.839Z" fill="url(#paint35_linear_3_434)"/>
<path d="M149.119 107.414L149.835 106.338L415.677 239.36L414.96 240.435L149.119 107.414Z" fill="url(#paint36_linear_3_434)"/>
<path d="M109.876 332.692C108 331.77 105.535 332.413 104.373 334.126C103.21 335.839 103.789 337.975 105.664 338.897C107.54 339.818 110.005 339.176 111.167 337.463C112.351 335.76 111.772 333.623 109.876 332.692Z" fill="url(#paint37_linear_3_434)"/>
<path d="M-41.6914 261.745L-40.9753 260.67L106.079 334.232L105.363 335.307L-41.6914 261.745Z" fill="url(#paint38_linear_3_434)"/>
<path d="M277.849 237.295C275.973 236.373 273.509 237.016 272.346 238.729C271.184 240.442 271.762 242.579 273.638 243.5C275.514 244.421 277.978 243.779 279.141 242.066C280.303 240.353 279.725 238.216 277.849 237.295Z" fill="url(#paint39_linear_3_434)"/>
<path d="M126.282 166.348L126.998 165.273L274.053 238.835L273.337 239.91L126.282 166.348Z" fill="url(#paint40_linear_3_434)"/>
</g>
<defs>
<linearGradient id="paint0_linear_3_434" x1="179.924" y1="384.011" x2="126.02" y2="347.427" gradientUnits="userSpaceOnUse">
<stop stop-color="#A4FFFF"/>
<stop offset="1" stop-color="#A4FFFF" stop-opacity="0"/>
</linearGradient>
<linearGradient id="paint1_linear_3_434" x1="179.393" y1="383.554" x2="123.46" y2="346.261" gradientUnits="userSpaceOnUse">
<stop stop-color="#A4FFFF"/>
<stop offset="1" stop-color="#A4FFFF" stop-opacity="0"/>
</linearGradient>
<linearGradient id="paint2_linear_3_434" x1="176.419" y1="199.297" x2="122.501" y2="162.702" gradientUnits="userSpaceOnUse">
<stop stop-color="#A4FFFF"/>
<stop offset="1" stop-color="#A4FFFF" stop-opacity="0"/>
</linearGradient>
<linearGradient id="paint3_linear_3_434" x1="175.898" y1="198.842" x2="119.962" y2="161.547" gradientUnits="userSpaceOnUse">
<stop stop-color="#A4FFFF"/>
<stop offset="1" stop-color="#A4FFFF" stop-opacity="0"/>
</linearGradient>
<linearGradient id="paint4_linear_3_434" x1="69.3879" y1="195.864" x2="15.4848" y2="159.281" gradientUnits="userSpaceOnUse">
<stop stop-color="#A4FFFF"/>
<stop offset="1" stop-color="#A4FFFF" stop-opacity="0"/>
</linearGradient>
<linearGradient id="paint5_linear_3_434" x1="68.8594" y1="195.405" x2="12.9258" y2="158.112" gradientUnits="userSpaceOnUse">
<stop stop-color="#A4FFFF"/>
<stop offset="1" stop-color="#A4FFFF" stop-opacity="0"/>
</linearGradient>
<linearGradient id="paint6_linear_3_434" x1="66.9784" y1="234.941" x2="13.0742" y2="198.357" gradientUnits="userSpaceOnUse">
<stop stop-color="#A4FFFF"/>
<stop offset="1" stop-color="#A4FFFF" stop-opacity="0"/>
</linearGradient>
<linearGradient id="paint7_linear_3_434" x1="66.4516" y1="234.484" x2="10.5166" y2="197.19" gradientUnits="userSpaceOnUse">
<stop stop-color="#A4FFFF"/>
<stop offset="1" stop-color="#A4FFFF" stop-opacity="0"/>
</linearGradient>
<linearGradient id="paint8_linear_3_434" x1="233.117" y1="383.814" x2="179.23" y2="347.24" gradientUnits="userSpaceOnUse">
<stop stop-color="#A4FFFF"/>
<stop offset="1" stop-color="#A4FFFF" stop-opacity="0"/>
</linearGradient>
<linearGradient id="paint9_linear_3_434" x1="232.583" y1="383.354" x2="176.649" y2="346.061" gradientUnits="userSpaceOnUse">
<stop stop-color="#A4FFFF"/>
<stop offset="1" stop-color="#A4FFFF" stop-opacity="0"/>
</linearGradient>
<linearGradient id="paint10_linear_3_434" x1="-22.465" y1="318.289" x2="-76.3671" y2="281.706" gradientUnits="userSpaceOnUse">
<stop stop-color="#A4FFFF"/>
<stop offset="1" stop-color="#A4FFFF" stop-opacity="0"/>
</linearGradient>
<linearGradient id="paint11_linear_3_434" x1="29.7026" y1="233.099" x2="-24.1995" y2="196.516" gradientUnits="userSpaceOnUse">
<stop stop-color="#A4FFFF"/>
<stop offset="1" stop-color="#A4FFFF" stop-opacity="0"/>
</linearGradient>
<linearGradient id="paint12_linear_3_434" x1="37.9876" y1="237.054" x2="10.0571" y2="218.41" gradientUnits="userSpaceOnUse">
<stop stop-color="#A4FFFF"/>
<stop offset="1" stop-color="#A4FFFF" stop-opacity="0"/>
</linearGradient>
<linearGradient id="paint13_linear_3_434" x1="147.414" y1="444.142" x2="93.5111" y2="407.558" gradientUnits="userSpaceOnUse">
<stop stop-color="#A4FFFF"/>
<stop offset="1" stop-color="#A4FFFF" stop-opacity="0"/>
</linearGradient>
<linearGradient id="paint14_linear_3_434" x1="155.7" y1="448.096" x2="127.769" y2="429.452" gradientUnits="userSpaceOnUse">
<stop stop-color="#A4FFFF"/>
<stop offset="1" stop-color="#A4FFFF" stop-opacity="0"/>
</linearGradient>
<linearGradient id="paint15_linear_3_434" x1="21.5705" y1="94.1201" x2="-32.3306" y2="57.5365" gradientUnits="userSpaceOnUse">
<stop stop-color="#A4FFFF"/>
<stop offset="1" stop-color="#A4FFFF" stop-opacity="0"/>
</linearGradient>
<linearGradient id="paint16_linear_3_434" x1="29.8565" y1="98.0729" x2="1.92629" y2="79.4291" gradientUnits="userSpaceOnUse">
<stop stop-color="#A4FFFF"/>
<stop offset="1" stop-color="#A4FFFF" stop-opacity="0"/>
</linearGradient>
<linearGradient id="paint17_linear_3_434" x1="59.1516" y1="167.93" x2="5.23387" y2="131.334" gradientUnits="userSpaceOnUse">
<stop stop-color="#A4FFFF"/>
<stop offset="1" stop-color="#A4FFFF" stop-opacity="0"/>
</linearGradient>
<linearGradient id="paint18_linear_3_434" x1="67.4438" y1="171.886" x2="39.5133" y2="153.243" gradientUnits="userSpaceOnUse">
<stop stop-color="#A4FFFF"/>
<stop offset="1" stop-color="#A4FFFF" stop-opacity="0"/>
</linearGradient>
<linearGradient id="paint19_linear_3_434" x1="250.635" y1="338.047" x2="196.732" y2="301.464" gradientUnits="userSpaceOnUse">
<stop stop-color="#A4FFFF"/>
<stop offset="1" stop-color="#A4FFFF" stop-opacity="0"/>
</linearGradient>
<linearGradient id="paint20_linear_3_434" x1="250.107" y1="337.589" x2="194.172" y2="300.295" gradientUnits="userSpaceOnUse">
<stop stop-color="#A4FFFF"/>
<stop offset="1" stop-color="#A4FFFF" stop-opacity="0"/>
</linearGradient>
<linearGradient id="paint21_linear_3_434" x1="179.469" y1="165.678" x2="125.567" y2="129.095" gradientUnits="userSpaceOnUse">
<stop stop-color="#A4FFFF"/>
<stop offset="1" stop-color="#A4FFFF" stop-opacity="0"/>
</linearGradient>
<linearGradient id="paint22_linear_3_434" x1="178.943" y1="165.22" x2="123.009" y2="127.927" gradientUnits="userSpaceOnUse">
<stop stop-color="#A4FFFF"/>
<stop offset="1" stop-color="#A4FFFF" stop-opacity="0"/>
</linearGradient>
<linearGradient id="paint23_linear_3_434" x1="151.773" y1="404.621" x2="97.8555" y2="368.026" gradientUnits="userSpaceOnUse">
<stop stop-color="#A4FFFF"/>
<stop offset="1" stop-color="#A4FFFF" stop-opacity="0"/>
</linearGradient>
<linearGradient id="paint24_linear_3_434" x1="151.25" y1="404.167" x2="95.3154" y2="366.874" gradientUnits="userSpaceOnUse">
<stop stop-color="#A4FFFF"/>
<stop offset="1" stop-color="#A4FFFF" stop-opacity="0"/>
</linearGradient>
<linearGradient id="paint25_linear_3_434" x1="193.336" y1="90.1991" x2="139.433" y2="53.6155" gradientUnits="userSpaceOnUse">
<stop stop-color="#A4FFFF"/>
<stop offset="1" stop-color="#A4FFFF" stop-opacity="0"/>
</linearGradient>
<linearGradient id="paint26_linear_3_434" x1="192.807" y1="89.7426" x2="136.872" y2="52.4486" gradientUnits="userSpaceOnUse">
<stop stop-color="#A4FFFF"/>
<stop offset="1" stop-color="#A4FFFF" stop-opacity="0"/>
</linearGradient>
<linearGradient id="paint27_linear_3_434" x1="428.815" y1="349.06" x2="332.818" y2="283.909" gradientUnits="userSpaceOnUse">
<stop stop-color="#A4FFFF"/>
<stop offset="1" stop-color="#A4FFFF" stop-opacity="0"/>
</linearGradient>
<linearGradient id="paint28_linear_3_434" x1="400.882" y1="334.753" x2="217.455" y2="212.561" gradientUnits="userSpaceOnUse">
<stop stop-color="#A4FFFF"/>
<stop offset="1" stop-color="#A4FFFF" stop-opacity="0"/>
</linearGradient>
<linearGradient id="paint29_linear_3_434" x1="464.508" y1="273.076" x2="368.515" y2="207.923" gradientUnits="userSpaceOnUse">
<stop stop-color="#A4FFFF"/>
<stop offset="1" stop-color="#A4FFFF" stop-opacity="0"/>
</linearGradient>
<linearGradient id="paint30_linear_3_434" x1="404.9" y1="242.911" x2="123.308" y2="55.3487" gradientUnits="userSpaceOnUse">
<stop stop-color="#A4FFFF"/>
<stop offset="1" stop-color="#A4FFFF" stop-opacity="0"/>
</linearGradient>
<linearGradient id="paint31_linear_3_434" x1="191.165" y1="401.108" x2="95.1701" y2="335.956" gradientUnits="userSpaceOnUse">
<stop stop-color="#A4FFFF"/>
<stop offset="1" stop-color="#A4FFFF" stop-opacity="0"/>
</linearGradient>
<linearGradient id="paint32_linear_3_434" x1="163.231" y1="386.799" x2="-20.1953" y2="264.608" gradientUnits="userSpaceOnUse">
<stop stop-color="#A4FFFF"/>
<stop offset="1" stop-color="#A4FFFF" stop-opacity="0"/>
</linearGradient>
<linearGradient id="paint33_linear_3_434" x1="323.349" y1="358.649" x2="227.354" y2="293.496" gradientUnits="userSpaceOnUse">
<stop stop-color="#A4FFFF"/>
<stop offset="1" stop-color="#A4FFFF" stop-opacity="0"/>
</linearGradient>
<linearGradient id="paint34_linear_3_434" x1="295.415" y1="344.339" x2="111.99" y2="222.148" gradientUnits="userSpaceOnUse">
<stop stop-color="#A4FFFF"/>
<stop offset="1" stop-color="#A4FFFF" stop-opacity="0"/>
</linearGradient>
<linearGradient id="paint35_linear_3_434" x1="384.049" y1="224.591" x2="288.053" y2="159.439" gradientUnits="userSpaceOnUse">
<stop stop-color="#A4FFFF"/>
<stop offset="1" stop-color="#A4FFFF" stop-opacity="0"/>
</linearGradient>
<linearGradient id="paint36_linear_3_434" x1="356.117" y1="210.282" x2="172.691" y2="88.0903" gradientUnits="userSpaceOnUse">
<stop stop-color="#A4FFFF"/>
<stop offset="1" stop-color="#A4FFFF" stop-opacity="0"/>
</linearGradient>
<linearGradient id="paint37_linear_3_434" x1="74.4592" y1="319.446" x2="-21.5642" y2="254.274" gradientUnits="userSpaceOnUse">
<stop stop-color="#A4FFFF"/>
<stop offset="1" stop-color="#A4FFFF" stop-opacity="0"/>
</linearGradient>
<linearGradient id="paint38_linear_3_434" x1="72.99" y1="318.382" x2="-28.4625" y2="250.778" gradientUnits="userSpaceOnUse">
<stop stop-color="#A4FFFF"/>
<stop offset="1" stop-color="#A4FFFF" stop-opacity="0"/>
</linearGradient>
<linearGradient id="paint39_linear_3_434" x1="242.436" y1="224.052" x2="146.469" y2="158.92" gradientUnits="userSpaceOnUse">
<stop stop-color="#A4FFFF"/>
<stop offset="1" stop-color="#A4FFFF" stop-opacity="0"/>
</linearGradient>
<linearGradient id="paint40_linear_3_434" x1="240.947" y1="222.978" x2="139.495" y2="155.375" gradientUnits="userSpaceOnUse">
<stop stop-color="#A4FFFF"/>
<stop offset="1" stop-color="#A4FFFF" stop-opacity="0"/>
</linearGradient>
</defs>
</svg>
